<svg width="224" height="216" viewBox="0 0 224 216" fill="none" xmlns="http://www.w3.org/2000/svg">
<rect width="224" height="216" rx="20" fill="black" fill-opacity="0.03"/>
<path d="M30.358 47.4659V43.9062H31.0142C31.2396 43.7008 31.4517 43.4107 31.6506 43.0362C31.8527 42.6584 32.0234 42.1546 32.1626 41.5249C32.3052 40.8918 32.3996 40.0881 32.446 39.1136L32.6648 34.8182H38.7102V43.9062H39.8835V47.446H38.7102V45H31.5312V47.4659H30.358ZM32.4858 43.9062H37.5369V35.9119H33.7784L33.6193 39.1136C33.5795 39.8561 33.5099 40.5289 33.4105 41.1321C33.3111 41.732 33.1835 42.264 33.0277 42.728C32.8719 43.1887 32.6913 43.5814 32.4858 43.9062ZM44.6898 45.1591C44.0004 45.1591 43.3955 44.995 42.8752 44.6669C42.3581 44.3388 41.9538 43.8797 41.6621 43.2898C41.3738 42.6998 41.2296 42.0104 41.2296 41.2216C41.2296 40.4261 41.3738 39.7318 41.6621 39.1385C41.9538 38.5452 42.3581 38.0845 42.8752 37.7564C43.3955 37.4283 44.0004 37.2642 44.6898 37.2642C45.3792 37.2642 45.9824 37.4283 46.4995 37.7564C47.0198 38.0845 47.4242 38.5452 47.7125 39.1385C48.0042 39.7318 48.15 40.4261 48.15 41.2216C48.15 42.0104 48.0042 42.6998 47.7125 43.2898C47.4242 43.8797 47.0198 44.3388 46.4995 44.6669C45.9824 44.995 45.3792 45.1591 44.6898 45.1591ZM44.6898 44.1051C45.2135 44.1051 45.6444 43.9709 45.9824 43.7024C46.3205 43.4339 46.5707 43.081 46.7331 42.6435C46.8955 42.206 46.9767 41.732 46.9767 41.2216C46.9767 40.7112 46.8955 40.2356 46.7331 39.7947C46.5707 39.3539 46.3205 38.9976 45.9824 38.7259C45.6444 38.4541 45.2135 38.3182 44.6898 38.3182C44.1661 38.3182 43.7353 38.4541 43.3972 38.7259C43.0591 38.9976 42.8089 39.3539 42.6465 39.7947C42.4841 40.2356 42.4029 40.7112 42.4029 41.2216C42.4029 41.732 42.4841 42.206 42.6465 42.6435C42.8089 43.081 43.0591 43.4339 43.3972 43.7024C43.7353 43.9709 44.1661 44.1051 44.6898 44.1051ZM55.6087 34.5L56.2053 35.2159C55.9732 35.4413 55.7048 35.5987 55.3999 35.6882C55.0949 35.7777 54.7502 35.8324 54.3658 35.8523C53.9813 35.8722 53.5537 35.892 53.0831 35.9119C52.5528 35.9318 52.1136 36.0611 51.7656 36.2997C51.4176 36.5384 51.1491 36.883 50.9602 37.3338C50.7713 37.7846 50.6503 38.3381 50.5973 38.9943H50.6967C50.9553 38.517 51.3132 38.1657 51.7706 37.9403C52.228 37.715 52.7185 37.6023 53.2422 37.6023C53.8388 37.6023 54.3757 37.7415 54.853 38.0199C55.3303 38.2983 55.7081 38.7109 55.9865 39.2578C56.2649 39.8047 56.4041 40.4792 56.4041 41.2812C56.4041 42.08 56.2616 42.7694 55.9766 43.3494C55.6948 43.9295 55.2988 44.3769 54.7884 44.6918C54.2813 45.0033 53.6863 45.1591 53.0036 45.1591C52.3208 45.1591 51.7225 44.9983 51.2088 44.6768C50.6951 44.352 50.2957 43.8714 50.0107 43.2351C49.7256 42.5954 49.5831 41.8049 49.5831 40.8636V40.0483C49.5831 38.348 49.8714 37.0587 50.4482 36.1804C51.0282 35.3021 51.8999 34.848 53.0632 34.8182C53.4742 34.8049 53.8404 34.8016 54.1619 34.8082C54.4834 34.8149 54.7635 34.8 55.0021 34.7635C55.2408 34.727 55.4429 34.6392 55.6087 34.5ZM53.0036 44.1051C53.4643 44.1051 53.8603 43.9891 54.1918 43.7571C54.5265 43.5251 54.7834 43.1986 54.9624 42.7777C55.1413 42.3535 55.2308 41.8546 55.2308 41.2812C55.2308 40.7244 55.1397 40.2505 54.9574 39.8594C54.7784 39.4683 54.5215 39.17 54.1868 38.9645C53.852 38.759 53.451 38.6562 52.9837 38.6562C52.6423 38.6562 52.3357 38.7143 52.0639 38.8303C51.7921 38.9463 51.5601 39.117 51.3679 39.3423C51.1757 39.5677 51.0265 39.8428 50.9205 40.1676C50.8177 40.4924 50.763 40.8636 50.7564 41.2812C50.7564 42.1364 50.9569 42.8208 51.358 43.3345C51.759 43.8482 52.3075 44.1051 53.0036 44.1051ZM60.446 45.179C59.9621 45.179 59.523 45.0878 59.1286 44.9055C58.7341 44.7199 58.4209 44.4531 58.1889 44.1051C57.9569 43.7538 57.8409 43.3295 57.8409 42.8324C57.8409 42.3949 57.9271 42.0402 58.0994 41.7685C58.2718 41.4934 58.5021 41.2779 58.7905 41.1222C59.0788 40.9664 59.397 40.8504 59.745 40.7741C60.0964 40.6946 60.4493 40.6316 60.804 40.5852C61.268 40.5256 61.6442 40.4808 61.9325 40.451C62.2242 40.4179 62.4363 40.3632 62.5689 40.2869C62.7048 40.2107 62.7727 40.0781 62.7727 39.8892V39.8494C62.7727 39.3589 62.6385 38.9777 62.37 38.706C62.1049 38.4342 61.7022 38.2983 61.1619 38.2983C60.6018 38.2983 60.1626 38.4209 59.8445 38.6662C59.5263 38.9115 59.3026 39.1733 59.1733 39.4517L58.0597 39.054C58.2585 38.59 58.5237 38.2287 58.8551 37.9702C59.1899 37.7083 59.5545 37.526 59.9489 37.4233C60.3466 37.3172 60.7377 37.2642 61.1222 37.2642C61.3674 37.2642 61.6491 37.294 61.9673 37.3537C62.2888 37.41 62.5987 37.5277 62.897 37.7067C63.1986 37.8857 63.4489 38.1558 63.6477 38.517C63.8466 38.8783 63.946 39.3622 63.946 39.9688V45H62.7727V43.9659H62.7131C62.6335 44.1316 62.5009 44.3089 62.3153 44.4979C62.1297 44.6868 61.8828 44.8475 61.5746 44.9801C61.2663 45.1127 60.8902 45.179 60.446 45.179ZM60.625 44.125C61.089 44.125 61.4801 44.0339 61.7983 43.8516C62.1198 43.6693 62.3617 43.4339 62.5241 43.1456C62.6899 42.8572 62.7727 42.554 62.7727 42.2358V41.1619C62.723 41.2216 62.6136 41.2763 62.4446 41.326C62.2789 41.3724 62.0866 41.4138 61.8679 41.4503C61.6525 41.4834 61.442 41.5133 61.2365 41.5398C61.0343 41.563 60.8703 41.5829 60.7443 41.5994C60.4394 41.6392 60.1544 41.7038 59.8892 41.7933C59.6274 41.8795 59.4152 42.0104 59.2528 42.1861C59.0938 42.3584 59.0142 42.5937 59.0142 42.892C59.0142 43.2997 59.165 43.608 59.4666 43.8168C59.7715 44.0223 60.1577 44.125 60.625 44.125ZM66.0875 45V37.3636H69.2097C70.0317 37.3636 70.6846 37.5492 71.1685 37.9205C71.6524 38.2917 71.8944 38.7822 71.8944 39.392C71.8944 39.8561 71.7568 40.2157 71.4817 40.4709C71.2066 40.7228 70.8536 40.8935 70.4228 40.983C70.7045 41.0227 70.9779 41.1222 71.2431 41.2812C71.5115 41.4403 71.7336 41.6591 71.9093 41.9375C72.0849 42.2126 72.1728 42.5507 72.1728 42.9517C72.1728 43.3428 72.0733 43.6925 71.8745 44.0007C71.6756 44.3089 71.3906 44.5526 71.0194 44.7315C70.6481 44.9105 70.204 45 69.687 45H66.0875ZM67.2012 43.9261H69.687C70.0913 43.9261 70.4078 43.83 70.6365 43.6378C70.8652 43.4455 70.9796 43.1837 70.9796 42.8523C70.9796 42.4579 70.8652 42.148 70.6365 41.9226C70.4078 41.6939 70.0913 41.5795 69.687 41.5795H67.2012V43.9261ZM67.2012 40.5653H69.2097C69.5246 40.5653 69.7947 40.5223 70.0201 40.4361C70.2454 40.3466 70.4178 40.2206 70.5371 40.0582C70.6597 39.8925 70.7211 39.697 70.7211 39.4716C70.7211 39.1501 70.5868 38.8982 70.3184 38.7159C70.0499 38.5303 69.6803 38.4375 69.2097 38.4375H67.2012V40.5653ZM73.2727 45V43.9062H73.5511C73.7798 43.9062 73.9704 43.8615 74.1229 43.772C74.2753 43.6792 74.398 43.5185 74.4908 43.2898C74.5869 43.0578 74.6598 42.7363 74.7095 42.3253C74.7625 41.911 74.8007 41.384 74.8239 40.7443L74.9631 37.3636H80.054V45H78.8807V38.4574H76.0767L75.9574 41.1818C75.9309 41.8082 75.8745 42.3601 75.7884 42.8374C75.7055 43.3113 75.5779 43.709 75.4055 44.0305C75.2365 44.352 75.0111 44.594 74.7294 44.7564C74.4477 44.9188 74.0947 45 73.6705 45H73.2727ZM85.4084 45.1591C84.6726 45.1591 84.0379 44.9967 83.5043 44.6719C82.974 44.3438 82.5646 43.8864 82.2763 43.2997C81.9912 42.7098 81.8487 42.0237 81.8487 41.2415C81.8487 40.4593 81.9912 39.7699 82.2763 39.1733C82.5646 38.5734 82.9657 38.1061 83.4794 37.7713C83.9964 37.4332 84.5997 37.2642 85.2891 37.2642C85.6868 37.2642 86.0795 37.3305 86.4673 37.4631C86.8551 37.5956 87.2081 37.8111 87.5263 38.1094C87.8445 38.4044 88.098 38.7955 88.2869 39.2827C88.4759 39.7699 88.5703 40.3698 88.5703 41.0824V41.5795H82.6839V40.5653H87.3771C87.3771 40.1345 87.291 39.75 87.1186 39.4119C86.9496 39.0739 86.7076 38.8071 86.3928 38.6115C86.0812 38.416 85.7133 38.3182 85.2891 38.3182C84.8217 38.3182 84.4174 38.4342 84.076 38.6662C83.7379 38.8949 83.4777 39.1932 83.2955 39.5611C83.1132 39.929 83.022 40.3234 83.022 40.7443V41.4205C83.022 41.9972 83.1214 42.486 83.3203 42.8871C83.5225 43.2848 83.8026 43.5881 84.1605 43.7969C84.5185 44.0024 84.9344 44.1051 85.4084 44.1051C85.7166 44.1051 85.995 44.062 86.2436 43.9759C86.4955 43.8864 86.7126 43.7538 86.8949 43.5781C87.0772 43.3991 87.218 43.1771 87.3175 42.9119L88.451 43.2301C88.3317 43.6146 88.1312 43.9527 87.8494 44.2443C87.5677 44.5327 87.2197 44.758 86.8054 44.9205C86.3911 45.0795 85.9254 45.1591 85.4084 45.1591ZM95.4659 40.6449V41.7386H91.25V40.6449H95.4659ZM91.5284 37.3636V45H90.3551V37.3636H91.5284ZM96.3608 37.3636V45H95.1875V37.3636H96.3608ZM101.606 45.1591C100.916 45.1591 100.312 44.995 99.7912 44.6669C99.2741 44.3388 98.8698 43.8797 98.5781 43.2898C98.2898 42.6998 98.1456 42.0104 98.1456 41.2216C98.1456 40.4261 98.2898 39.7318 98.5781 39.1385C98.8698 38.5452 99.2741 38.0845 99.7912 37.7564C100.312 37.4283 100.916 37.2642 101.606 37.2642C102.295 37.2642 102.898 37.4283 103.415 37.7564C103.936 38.0845 104.34 38.5452 104.629 39.1385C104.92 39.7318 105.066 40.4261 105.066 41.2216C105.066 42.0104 104.92 42.6998 104.629 43.2898C104.34 43.8797 103.936 44.3388 103.415 44.6669C102.898 44.995 102.295 45.1591 101.606 45.1591ZM101.606 44.1051C102.129 44.1051 102.56 43.9709 102.898 43.7024C103.237 43.4339 103.487 43.081 103.649 42.6435C103.812 42.206 103.893 41.732 103.893 41.2216C103.893 40.7112 103.812 40.2356 103.649 39.7947C103.487 39.3539 103.237 38.9976 102.898 38.7259C102.56 38.4541 102.129 38.3182 101.606 38.3182C101.082 38.3182 100.651 38.4541 100.313 38.7259C99.9751 38.9976 99.7249 39.3539 99.5625 39.7947C99.4001 40.2356 99.3189 40.7112 99.3189 41.2216C99.3189 41.732 99.4001 42.206 99.5625 42.6435C99.7249 43.081 99.9751 43.4339 100.313 43.7024C100.651 43.9709 101.082 44.1051 101.606 44.1051ZM110.775 45V44.1051L114.135 40.4261C114.53 39.9953 114.855 39.6207 115.11 39.3026C115.365 38.9811 115.554 38.6795 115.677 38.3977C115.803 38.1127 115.866 37.8144 115.866 37.5028C115.866 37.1449 115.779 36.835 115.607 36.5732C115.438 36.3113 115.206 36.1091 114.911 35.9666C114.616 35.8241 114.285 35.7528 113.917 35.7528C113.526 35.7528 113.184 35.834 112.893 35.9964C112.604 36.1555 112.381 36.3793 112.221 36.6676C112.066 36.956 111.988 37.294 111.988 37.6818H110.814C110.814 37.0852 110.952 36.5616 111.227 36.1108C111.502 35.66 111.877 35.3087 112.351 35.0568C112.828 34.8049 113.363 34.679 113.956 34.679C114.553 34.679 115.082 34.8049 115.542 35.0568C116.003 35.3087 116.364 35.6484 116.626 36.076C116.888 36.5036 117.019 36.9792 117.019 37.5028C117.019 37.8774 116.951 38.2436 116.815 38.6016C116.683 38.9562 116.451 39.3523 116.119 39.7898C115.791 40.224 115.335 40.7543 114.752 41.3807L112.465 43.8267V43.9062H117.198V45H110.775ZM122.632 45.1392C122.214 45.1326 121.797 45.053 121.379 44.9006C120.961 44.7481 120.58 44.4912 120.236 44.13C119.891 43.7654 119.614 43.2732 119.405 42.6534C119.197 42.0303 119.092 41.2481 119.092 40.3068C119.092 39.4053 119.177 38.6065 119.346 37.9105C119.515 37.2112 119.76 36.6229 120.081 36.1456C120.403 35.665 120.791 35.3004 121.245 35.0518C121.702 34.8033 122.218 34.679 122.791 34.679C123.361 34.679 123.868 34.7933 124.312 35.022C124.76 35.2474 125.124 35.5623 125.406 35.9666C125.688 36.371 125.87 36.8366 125.953 37.3636H124.74C124.627 36.9062 124.408 36.5268 124.084 36.2251C123.759 35.9235 123.328 35.7727 122.791 35.7727C122.002 35.7727 121.381 36.1158 120.927 36.8018C120.476 37.4879 120.249 38.4508 120.246 39.6903H120.325C120.511 39.4086 120.731 39.1683 120.986 38.9695C121.245 38.7673 121.53 38.6115 121.841 38.5021C122.153 38.3928 122.483 38.3381 122.831 38.3381C123.414 38.3381 123.948 38.4839 124.432 38.7756C124.916 39.0639 125.303 39.4633 125.595 39.9737C125.887 40.4808 126.032 41.0625 126.032 41.7188C126.032 42.3485 125.892 42.9252 125.61 43.4489C125.328 43.9692 124.932 44.3835 124.422 44.6918C123.915 44.9967 123.318 45.1458 122.632 45.1392ZM122.632 44.0455C123.05 44.0455 123.424 43.9411 123.756 43.7322C124.09 43.5234 124.354 43.2434 124.546 42.892C124.742 42.5407 124.839 42.1496 124.839 41.7188C124.839 41.2978 124.745 40.915 124.556 40.5703C124.37 40.2223 124.113 39.9455 123.785 39.7401C123.461 39.5346 123.089 39.4318 122.672 39.4318C122.357 39.4318 122.064 39.4948 121.792 39.6207C121.52 39.7434 121.281 39.9124 121.076 40.1278C120.874 40.3433 120.715 40.5902 120.599 40.8686C120.483 41.1437 120.425 41.4337 120.425 41.7386C120.425 42.143 120.519 42.5208 120.708 42.8722C120.9 43.2235 121.162 43.5069 121.493 43.7223C121.828 43.9377 122.208 44.0455 122.632 44.0455ZM133.118 43.2699L136.797 37.3636H138.15V45H136.976V39.0938L133.317 45H131.945V37.3636H133.118V43.2699ZM143.958 40.7045V41.7983H139.921V40.7045H143.958ZM140.915 37.3636V45H139.742V37.3636H140.915ZM146.304 45.1591C145.615 45.1591 145.01 44.995 144.49 44.6669C143.972 44.3388 143.568 43.8797 143.276 43.2898C142.988 42.6998 142.844 42.0104 142.844 41.2216C142.844 40.4261 142.988 39.7318 143.276 39.1385C143.568 38.5452 143.972 38.0845 144.49 37.7564C145.01 37.4283 145.615 37.2642 146.304 37.2642C146.994 37.2642 147.597 37.4283 148.114 37.7564C148.634 38.0845 149.039 38.5452 149.327 39.1385C149.619 39.7318 149.764 40.4261 149.764 41.2216C149.764 42.0104 149.619 42.6998 149.327 43.2898C149.039 43.8797 148.634 44.3388 148.114 44.6669C147.597 44.995 146.994 45.1591 146.304 45.1591ZM146.304 44.1051C146.828 44.1051 147.259 43.9709 147.597 43.7024C147.935 43.4339 148.185 43.081 148.347 42.6435C148.51 42.206 148.591 41.732 148.591 41.2216C148.591 40.7112 148.51 40.2356 148.347 39.7947C148.185 39.3539 147.935 38.9976 147.597 38.7259C147.259 38.4541 146.828 38.3182 146.304 38.3182C145.78 38.3182 145.35 38.4541 145.012 38.7259C144.673 38.9976 144.423 39.3539 144.261 39.7947C144.098 40.2356 144.017 40.7112 144.017 41.2216C144.017 41.732 144.098 42.206 144.261 42.6435C144.423 43.081 144.673 43.4339 145.012 43.7024C145.35 43.9709 145.78 44.1051 146.304 44.1051ZM150.997 45V43.9062H151.276C151.504 43.9062 151.695 43.8615 151.847 43.772C152 43.6792 152.123 43.5185 152.215 43.2898C152.311 43.0578 152.384 42.7363 152.434 42.3253C152.487 41.911 152.525 41.384 152.548 40.7443L152.688 37.3636H157.779V45H156.605V38.4574H153.801L153.682 41.1818C153.655 41.8082 153.599 42.3601 153.513 42.8374C153.43 43.3113 153.302 43.709 153.13 44.0305C152.961 44.352 152.736 44.594 152.454 44.7564C152.172 44.9188 151.819 45 151.395 45H150.997ZM164.525 45V38.4375H162.497C162.039 38.4375 161.68 38.5436 161.418 38.7557C161.156 38.9678 161.025 39.2595 161.025 39.6307C161.025 39.9953 161.143 40.282 161.378 40.4908C161.617 40.6996 161.943 40.804 162.357 40.804H164.823V41.8977H162.357C161.84 41.8977 161.395 41.8066 161.02 41.6243C160.646 41.442 160.357 41.1818 160.155 40.8438C159.953 40.5024 159.852 40.098 159.852 39.6307C159.852 39.16 159.958 38.7557 160.17 38.4176C160.382 38.0795 160.685 37.8194 161.08 37.6371C161.477 37.4548 161.95 37.3636 162.497 37.3636H165.639V45H164.525ZM159.434 45L161.602 41.2017H162.874L160.707 45H159.434Z" fill="#838383"/>
<path d="M30.4972 82V80.0966L30.9233 80.0824C31.5009 80.0682 31.9555 79.8717 32.2869 79.4929C32.6231 79.1141 32.867 78.5033 33.0185 77.6605C33.1747 76.8177 33.2789 75.6932 33.331 74.2869L33.5795 67.4545H42.777V82H40.6108V69.3153H35.6463L35.419 74.8693C35.3575 76.4271 35.2012 77.7363 34.9503 78.7969C34.6993 79.8527 34.2732 80.6506 33.6719 81.1903C33.0753 81.7301 32.2254 82 31.1222 82H30.4972ZM48.9773 82.2415C48.286 82.2415 47.661 82.1136 47.1023 81.858C46.5436 81.5975 46.1009 81.2211 45.7741 80.7287C45.4522 80.2363 45.2912 79.6326 45.2912 78.9176C45.2912 78.3021 45.4096 77.7955 45.6463 77.3977C45.883 77 46.2027 76.6851 46.6051 76.4531C47.0076 76.2211 47.4574 76.0459 47.9545 75.9276C48.4517 75.8092 48.9583 75.7192 49.4744 75.6577C50.1278 75.5819 50.6581 75.5204 51.0653 75.473C51.4725 75.4209 51.7685 75.3381 51.9531 75.2244C52.1378 75.1108 52.2301 74.9261 52.2301 74.6705V74.6207C52.2301 74.0005 52.0549 73.5199 51.7045 73.179C51.3589 72.8381 50.8428 72.6676 50.1562 72.6676C49.4413 72.6676 48.8778 72.8262 48.4659 73.1435C48.0587 73.456 47.777 73.804 47.6207 74.1875L45.625 73.733C45.8617 73.0701 46.2074 72.535 46.6619 72.1278C47.1212 71.7159 47.6491 71.4176 48.2457 71.233C48.8423 71.0436 49.4697 70.9489 50.1278 70.9489C50.5634 70.9489 51.0251 71.0009 51.5128 71.1051C52.0052 71.2045 52.4645 71.3892 52.8906 71.6591C53.3215 71.929 53.6742 72.3149 53.9489 72.8168C54.2235 73.3139 54.3608 73.9602 54.3608 74.7557V82H52.2869V80.5085H52.2017C52.0644 80.7831 51.8584 81.053 51.5838 81.3182C51.3092 81.5833 50.9564 81.8035 50.5256 81.9787C50.0947 82.1539 49.5786 82.2415 48.9773 82.2415ZM49.4389 80.5369C50.026 80.5369 50.5279 80.4209 50.9446 80.1889C51.366 79.9569 51.6856 79.6539 51.9034 79.2798C52.1259 78.901 52.2372 78.4962 52.2372 78.0653V76.6591C52.1615 76.7348 52.0147 76.8059 51.7969 76.8722C51.5838 76.9337 51.34 76.9882 51.0653 77.0355C50.7907 77.0781 50.5232 77.1184 50.2628 77.1562C50.0024 77.1894 49.7846 77.2178 49.6094 77.2415C49.1974 77.2936 48.821 77.3812 48.4801 77.5043C48.1439 77.6274 47.8741 77.8049 47.6705 78.0369C47.4716 78.2642 47.3722 78.5672 47.3722 78.946C47.3722 79.4716 47.5663 79.8693 47.9545 80.1392C48.3428 80.4044 48.8376 80.5369 49.4389 80.5369ZM65.6055 67.0284L66.4862 68.3707C66.1594 68.669 65.7878 68.8821 65.3711 69.0099C64.9592 69.133 64.4833 69.2112 63.9435 69.2443C63.4038 69.2727 62.7859 69.2988 62.0898 69.3224C61.3039 69.3461 60.6576 69.5166 60.1509 69.8338C59.6443 70.1463 59.2537 70.6103 58.979 71.2259C58.7092 71.8366 58.534 72.6037 58.4535 73.527H58.5884C58.9435 72.8499 59.436 72.3433 60.0657 72.0071C60.7002 71.6709 61.4128 71.5028 62.2035 71.5028C63.0842 71.5028 63.8678 71.7041 64.5543 72.1065C65.2409 72.509 65.7807 73.0985 66.1737 73.875C66.5714 74.6468 66.7702 75.5914 66.7702 76.7088C66.7702 77.8404 66.5619 78.8182 66.1452 79.642C65.7333 80.4659 65.1509 81.1027 64.3981 81.5526C63.65 81.9976 62.7669 82.2202 61.7489 82.2202C60.7309 82.2202 59.8432 81.9905 59.0856 81.5312C58.3327 81.0672 57.748 80.3807 57.3313 79.4716C56.9194 78.5625 56.7134 77.4403 56.7134 76.1051V75.0256C56.7134 72.5303 57.1585 70.6529 58.0487 69.3935C58.9388 68.134 60.2693 67.4877 62.0401 67.4545C62.613 67.4403 63.1244 67.438 63.5742 67.4474C64.024 67.4522 64.417 67.4309 64.7532 67.3835C65.0941 67.3314 65.3782 67.2131 65.6055 67.0284ZM61.756 80.4375C62.3479 80.4375 62.8569 80.2884 63.283 79.9901C63.7139 79.687 64.0453 79.2585 64.2773 78.7045C64.5094 78.1506 64.6254 77.4972 64.6254 76.7443C64.6254 76.0057 64.5094 75.3783 64.2773 74.8622C64.0453 74.3461 63.7139 73.9531 63.283 73.6832C62.8522 73.4086 62.3361 73.2713 61.7347 73.2713C61.2897 73.2713 60.8919 73.3494 60.5415 73.5057C60.1912 73.6572 59.8905 73.8821 59.6396 74.1804C59.3933 74.4787 59.2016 74.8433 59.0643 75.2741C58.9317 75.7003 58.8607 76.1903 58.8512 76.7443C58.8512 77.8712 59.1093 78.7685 59.6254 79.4361C60.1462 80.1037 60.8564 80.4375 61.756 80.4375ZM73.7376 82.2202C72.7148 82.2202 71.8223 81.9858 71.06 81.517C70.2977 81.0483 69.7058 80.3925 69.2844 79.5497C68.863 78.7069 68.6523 77.7221 68.6523 76.5952C68.6523 75.4635 68.863 74.474 69.2844 73.6264C69.7058 72.7789 70.2977 72.1207 71.06 71.652C71.8223 71.1832 72.7148 70.9489 73.7376 70.9489C74.7603 70.9489 75.6528 71.1832 76.4151 71.652C77.1774 72.1207 77.7693 72.7789 78.1907 73.6264C78.6121 74.474 78.8228 75.4635 78.8228 76.5952C78.8228 77.7221 78.6121 78.7069 78.1907 79.5497C77.7693 80.3925 77.1774 81.0483 76.4151 81.517C75.6528 81.9858 74.7603 82.2202 73.7376 82.2202ZM73.7447 80.4375C74.4076 80.4375 74.9568 80.2623 75.3924 79.9119C75.828 79.5616 76.15 79.0952 76.3583 78.5128C76.5714 77.9304 76.6779 77.2888 76.6779 76.5881C76.6779 75.892 76.5714 75.2528 76.3583 74.6705C76.15 74.0833 75.828 73.6122 75.3924 73.2571C74.9568 72.902 74.4076 72.7244 73.7447 72.7244C73.0771 72.7244 72.5231 72.902 72.0827 73.2571C71.6471 73.6122 71.3228 74.0833 71.1097 74.6705C70.9014 75.2528 70.7972 75.892 70.7972 76.5881C70.7972 77.2888 70.9014 77.9304 71.1097 78.5128C71.3228 79.0952 71.6471 79.5616 72.0827 79.9119C72.5231 80.2623 73.0771 80.4375 73.7447 80.4375ZM81.1932 86.0909V71.0909H83.267V72.8594H83.4446C83.5677 72.6321 83.7453 72.3693 83.9773 72.071C84.2093 71.7727 84.5313 71.5123 84.9432 71.2898C85.3551 71.0625 85.8996 70.9489 86.5767 70.9489C87.4574 70.9489 88.2434 71.1714 88.9347 71.6165C89.6259 72.0616 90.1681 72.7031 90.5611 73.5412C90.9588 74.3793 91.1577 75.3878 91.1577 76.5668C91.1577 77.7457 90.9612 78.7566 90.5682 79.5994C90.1752 80.4375 89.6354 81.0838 88.9489 81.5384C88.2623 81.9882 87.4787 82.2131 86.598 82.2131C85.9351 82.2131 85.393 82.1018 84.9716 81.8793C84.5549 81.6567 84.2282 81.3963 83.9915 81.098C83.7547 80.7997 83.5724 80.5346 83.4446 80.3026H83.3168V86.0909H81.1932ZM83.2741 76.5455C83.2741 77.3125 83.3854 77.9848 83.608 78.5625C83.8305 79.1402 84.1525 79.5923 84.5739 79.919C84.9953 80.241 85.5114 80.402 86.1222 80.402C86.7566 80.402 87.2869 80.2339 87.7131 79.8977C88.1392 79.5568 88.4612 79.0952 88.679 78.5128C88.9015 77.9304 89.0128 77.2746 89.0128 76.5455C89.0128 75.8258 88.9039 75.1795 88.6861 74.6065C88.473 74.0336 88.151 73.5814 87.7202 73.25C87.294 72.9186 86.7614 72.7528 86.1222 72.7528C85.5066 72.7528 84.9858 72.9115 84.5597 73.2287C84.1383 73.5459 83.8187 73.9886 83.6009 74.5568C83.383 75.125 83.2741 75.7879 83.2741 76.5455ZM96.7116 82.2415C96.0204 82.2415 95.3954 82.1136 94.8366 81.858C94.2779 81.5975 93.8352 81.2211 93.5085 80.7287C93.1866 80.2363 93.0256 79.6326 93.0256 78.9176C93.0256 78.3021 93.1439 77.7955 93.3807 77.3977C93.6174 77 93.937 76.6851 94.3395 76.4531C94.742 76.2211 95.1918 76.0459 95.6889 75.9276C96.1861 75.8092 96.6927 75.7192 97.2088 75.6577C97.8622 75.5819 98.3925 75.5204 98.7997 75.473C99.2069 75.4209 99.5028 75.3381 99.6875 75.2244C99.8722 75.1108 99.9645 74.9261 99.9645 74.6705V74.6207C99.9645 74.0005 99.7893 73.5199 99.4389 73.179C99.0933 72.8381 98.5772 72.6676 97.8906 72.6676C97.1757 72.6676 96.6122 72.8262 96.2003 73.1435C95.7931 73.456 95.5114 73.804 95.3551 74.1875L93.3594 73.733C93.5961 73.0701 93.9418 72.535 94.3963 72.1278C94.8556 71.7159 95.3835 71.4176 95.9801 71.233C96.5767 71.0436 97.2041 70.9489 97.8622 70.9489C98.2978 70.9489 98.7595 71.0009 99.2472 71.1051C99.7396 71.2045 100.199 71.3892 100.625 71.6591C101.056 71.929 101.409 72.3149 101.683 72.8168C101.958 73.3139 102.095 73.9602 102.095 74.7557V82H100.021V80.5085H99.9361C99.7988 80.7831 99.5928 81.053 99.3182 81.3182C99.0436 81.5833 98.6908 81.8035 98.2599 81.9787C97.8291 82.1539 97.313 82.2415 96.7116 82.2415ZM97.1733 80.5369C97.7604 80.5369 98.2623 80.4209 98.679 80.1889C99.1004 79.9569 99.42 79.6539 99.6378 79.2798C99.8603 78.901 99.9716 78.4962 99.9716 78.0653V76.6591C99.8958 76.7348 99.7491 76.8059 99.5312 76.8722C99.3182 76.9337 99.0743 76.9882 98.7997 77.0355C98.5251 77.0781 98.2576 77.1184 97.9972 77.1562C97.7367 77.1894 97.5189 77.2178 97.3438 77.2415C96.9318 77.2936 96.5554 77.3812 96.2145 77.5043C95.8783 77.6274 95.6084 77.8049 95.4048 78.0369C95.206 78.2642 95.1065 78.5672 95.1065 78.946C95.1065 79.4716 95.3007 79.8693 95.6889 80.1392C96.0772 80.4044 96.572 80.5369 97.1733 80.5369ZM103.571 72.9233V71.0909H112.775V72.9233H109.217V82H107.143V72.9233H103.571ZM119.109 82.2202C118.086 82.2202 117.193 81.9858 116.431 81.517C115.669 81.0483 115.077 80.3925 114.656 79.5497C114.234 78.7069 114.023 77.7221 114.023 76.5952C114.023 75.4635 114.234 74.474 114.656 73.6264C115.077 72.7789 115.669 72.1207 116.431 71.652C117.193 71.1832 118.086 70.9489 119.109 70.9489C120.131 70.9489 121.024 71.1832 121.786 71.652C122.549 72.1207 123.14 72.7789 123.562 73.6264C123.983 74.474 124.194 75.4635 124.194 76.5952C124.194 77.7221 123.983 78.7069 123.562 79.5497C123.14 80.3925 122.549 81.0483 121.786 81.517C121.024 81.9858 120.131 82.2202 119.109 82.2202ZM119.116 80.4375C119.779 80.4375 120.328 80.2623 120.763 79.9119C121.199 79.5616 121.521 79.0952 121.729 78.5128C121.942 77.9304 122.049 77.2888 122.049 76.5881C122.049 75.892 121.942 75.2528 121.729 74.6705C121.521 74.0833 121.199 73.6122 120.763 73.2571C120.328 72.902 119.779 72.7244 119.116 72.7244C118.448 72.7244 117.894 72.902 117.454 73.2571C117.018 73.6122 116.694 74.0833 116.481 74.6705C116.272 75.2528 116.168 75.892 116.168 76.5881C116.168 77.2888 116.272 77.9304 116.481 78.5128C116.694 79.0952 117.018 79.5616 117.454 79.9119C117.894 80.2623 118.448 80.4375 119.116 80.4375ZM126.564 86.0909V71.0909H128.638V72.8594H128.816C128.939 72.6321 129.116 72.3693 129.348 72.071C129.58 71.7727 129.902 71.5123 130.314 71.2898C130.726 71.0625 131.271 70.9489 131.948 70.9489C132.828 70.9489 133.614 71.1714 134.306 71.6165C134.997 72.0616 135.539 72.7031 135.932 73.5412C136.33 74.3793 136.529 75.3878 136.529 76.5668C136.529 77.7457 136.332 78.7566 135.939 79.5994C135.546 80.4375 135.007 81.0838 134.32 81.5384C133.633 81.9882 132.85 82.2131 131.969 82.2131C131.306 82.2131 130.764 82.1018 130.343 81.8793C129.926 81.6567 129.599 81.3963 129.363 81.098C129.126 80.7997 128.944 80.5346 128.816 80.3026H128.688V86.0909H126.564ZM128.645 76.5455C128.645 77.3125 128.757 77.9848 128.979 78.5625C129.202 79.1402 129.524 79.5923 129.945 79.919C130.366 80.241 130.882 80.402 131.493 80.402C132.128 80.402 132.658 80.2339 133.084 79.8977C133.51 79.5568 133.832 79.0952 134.05 78.5128C134.273 77.9304 134.384 77.2746 134.384 76.5455C134.384 75.8258 134.275 75.1795 134.057 74.6065C133.844 74.0336 133.522 73.5814 133.091 73.25C132.665 72.9186 132.132 72.7528 131.493 72.7528C130.878 72.7528 130.357 72.9115 129.931 73.2287C129.509 73.5459 129.19 73.9886 128.972 74.5568C128.754 75.125 128.645 75.7879 128.645 76.5455ZM146.301 75.6293V77.4688H140.392V75.6293H146.301ZM140.989 71.0909V82H138.908V71.0909H140.989ZM147.786 71.0909V82H145.712V71.0909H147.786ZM153.801 82.2415C153.11 82.2415 152.485 82.1136 151.926 81.858C151.368 81.5975 150.925 81.2211 150.598 80.7287C150.276 80.2363 150.115 79.6326 150.115 78.9176C150.115 78.3021 150.234 77.7955 150.471 77.3977C150.707 77 151.027 76.6851 151.429 76.4531C151.832 76.2211 152.282 76.0459 152.779 75.9276C153.276 75.8092 153.783 75.7192 154.299 75.6577C154.952 75.5819 155.482 75.5204 155.89 75.473C156.297 75.4209 156.593 75.3381 156.777 75.2244C156.962 75.1108 157.054 74.9261 157.054 74.6705V74.6207C157.054 74.0005 156.879 73.5199 156.529 73.179C156.183 72.8381 155.667 72.6676 154.98 72.6676C154.266 72.6676 153.702 72.8262 153.29 73.1435C152.883 73.456 152.601 73.804 152.445 74.1875L150.449 73.733C150.686 73.0701 151.032 72.535 151.486 72.1278C151.945 71.7159 152.473 71.4176 153.07 71.233C153.667 71.0436 154.294 70.9489 154.952 70.9489C155.388 70.9489 155.849 71.0009 156.337 71.1051C156.829 71.2045 157.289 71.3892 157.715 71.6591C158.146 71.929 158.498 72.3149 158.773 72.8168C159.048 73.3139 159.185 73.9602 159.185 74.7557V82H157.111V80.5085H157.026C156.889 80.7831 156.683 81.053 156.408 81.3182C156.133 81.5833 155.781 81.8035 155.35 81.9787C154.919 82.1539 154.403 82.2415 153.801 82.2415ZM154.263 80.5369C154.85 80.5369 155.352 80.4209 155.769 80.1889C156.19 79.9569 156.51 79.6539 156.728 79.2798C156.95 78.901 157.061 78.4962 157.061 78.0653V76.6591C156.986 76.7348 156.839 76.8059 156.621 76.8722C156.408 76.9337 156.164 76.9882 155.89 77.0355C155.615 77.0781 155.347 77.1184 155.087 77.1562C154.827 77.1894 154.609 77.2178 154.434 77.2415C154.022 77.2936 153.645 77.3812 153.304 77.5043C152.968 77.6274 152.698 77.8049 152.495 78.0369C152.296 78.2642 152.196 78.5672 152.196 78.946C152.196 79.4716 152.391 79.8693 152.779 80.1392C153.167 80.4044 153.662 80.5369 154.263 80.5369ZM168.519 82V72.902H165.906C165.285 72.902 164.802 73.0464 164.457 73.3352C164.111 73.6241 163.938 74.0028 163.938 74.4716C163.938 74.9356 164.097 75.3097 164.414 75.5938C164.736 75.8731 165.186 76.0128 165.763 76.0128H169.137V77.7315H165.763C164.959 77.7315 164.263 77.599 163.675 77.3338C163.093 77.0639 162.643 76.6828 162.326 76.1903C162.013 75.6979 161.857 75.1155 161.857 74.4432C161.857 73.7566 162.018 73.1648 162.34 72.6676C162.667 72.1657 163.133 71.7775 163.739 71.5028C164.35 71.2282 165.072 71.0909 165.906 71.0909H170.515V82H168.519ZM161.36 82L164.435 76.4886H166.609L163.533 82H161.36ZM31.4276 112.091V97.0909H33.5014V98.8594H33.679C33.8021 98.6321 33.9796 98.3693 34.2116 98.071C34.4437 97.7727 34.7656 97.5123 35.1776 97.2898C35.5895 97.0625 36.134 96.9489 36.8111 96.9489C37.6918 96.9489 38.4777 97.1714 39.169 97.6165C39.8603 98.0616 40.4025 98.7031 40.7955 99.5412C41.1932 100.379 41.392 101.388 41.392 102.567C41.392 103.746 41.1955 104.757 40.8026 105.599C40.4096 106.437 39.8698 107.084 39.1832 107.538C38.4967 107.988 37.7131 108.213 36.8324 108.213C36.1695 108.213 35.6274 108.102 35.206 107.879C34.7893 107.657 34.4626 107.396 34.2259 107.098C33.9891 106.8 33.8068 106.535 33.679 106.303H33.5511V112.091H31.4276ZM33.5085 102.545C33.5085 103.312 33.6198 103.985 33.8423 104.562C34.0649 105.14 34.3868 105.592 34.8082 105.919C35.2296 106.241 35.7457 106.402 36.3565 106.402C36.991 106.402 37.5213 106.234 37.9474 105.898C38.3736 105.557 38.6955 105.095 38.9134 104.513C39.1359 103.93 39.2472 103.275 39.2472 102.545C39.2472 101.826 39.1383 101.179 38.9205 100.607C38.7074 100.034 38.3854 99.5814 37.9545 99.25C37.5284 98.9186 36.9957 98.7528 36.3565 98.7528C35.741 98.7528 35.2202 98.9115 34.794 99.2287C34.3726 99.5459 34.053 99.9886 33.8352 100.557C33.6174 101.125 33.5085 101.788 33.5085 102.545ZM46.946 108.241C46.2547 108.241 45.6297 108.114 45.071 107.858C44.5123 107.598 44.0696 107.221 43.7429 106.729C43.4209 106.236 43.2599 105.633 43.2599 104.918C43.2599 104.302 43.3783 103.795 43.6151 103.398C43.8518 103 44.1714 102.685 44.5739 102.453C44.9763 102.221 45.4261 102.046 45.9233 101.928C46.4205 101.809 46.9271 101.719 47.4432 101.658C48.0966 101.582 48.6269 101.52 49.0341 101.473C49.4413 101.421 49.7372 101.338 49.9219 101.224C50.1065 101.111 50.1989 100.926 50.1989 100.67V100.621C50.1989 100 50.0237 99.5199 49.6733 99.179C49.3277 98.8381 48.8116 98.6676 48.125 98.6676C47.41 98.6676 46.8466 98.8262 46.4347 99.1435C46.0275 99.456 45.7457 99.804 45.5895 100.188L43.5938 99.733C43.8305 99.0701 44.1761 98.535 44.6307 98.1278C45.09 97.7159 45.6179 97.4176 46.2145 97.233C46.8111 97.0436 47.4384 96.9489 48.0966 96.9489C48.5322 96.9489 48.9938 97.0009 49.4815 97.1051C49.974 97.2045 50.4332 97.3892 50.8594 97.6591C51.2902 97.929 51.643 98.3149 51.9176 98.8168C52.1922 99.3139 52.3295 99.9602 52.3295 100.756V108H50.2557V106.509H50.1705C50.0331 106.783 49.8272 107.053 49.5526 107.318C49.2779 107.583 48.9252 107.804 48.4943 107.979C48.0634 108.154 47.5473 108.241 46.946 108.241ZM47.4077 106.537C47.9948 106.537 48.4967 106.421 48.9134 106.189C49.3348 105.957 49.6544 105.654 49.8722 105.28C50.0947 104.901 50.206 104.496 50.206 104.065V102.659C50.1302 102.735 49.9834 102.806 49.7656 102.872C49.5526 102.934 49.3087 102.988 49.0341 103.036C48.7595 103.078 48.492 103.118 48.2315 103.156C47.9711 103.189 47.7533 103.218 47.5781 103.241C47.1662 103.294 46.7898 103.381 46.4489 103.504C46.1127 103.627 45.8428 103.805 45.6392 104.037C45.4403 104.264 45.3409 104.567 45.3409 104.946C45.3409 105.472 45.535 105.869 45.9233 106.139C46.3116 106.404 46.8063 106.537 47.4077 106.537ZM63.5742 93.0284L64.4549 94.3707C64.1282 94.669 63.7565 94.8821 63.3398 95.0099C62.9279 95.133 62.4521 95.2112 61.9123 95.2443C61.3725 95.2727 60.7546 95.2988 60.0586 95.3224C59.2726 95.3461 58.6263 95.5166 58.1197 95.8338C57.613 96.1463 57.2224 96.6103 56.9478 97.2259C56.6779 97.8366 56.5027 98.6037 56.4222 99.527H56.5572C56.9123 98.8499 57.4047 98.3433 58.0344 98.0071C58.6689 97.6709 59.3815 97.5028 60.1722 97.5028C61.0529 97.5028 61.8365 97.7041 62.5231 98.1065C63.2096 98.509 63.7494 99.0985 64.1424 99.875C64.5401 100.647 64.739 101.591 64.739 102.709C64.739 103.84 64.5307 104.818 64.114 105.642C63.7021 106.466 63.1197 107.103 62.3668 107.553C61.6187 107.998 60.7357 108.22 59.7177 108.22C58.6997 108.22 57.8119 107.991 57.0543 107.531C56.3015 107.067 55.7167 106.381 55.3001 105.472C54.8881 104.562 54.6822 103.44 54.6822 102.105V101.026C54.6822 98.5303 55.1272 96.6529 56.0174 95.3935C56.9076 94.134 58.238 93.4877 60.0089 93.4545C60.5818 93.4403 61.0932 93.438 61.543 93.4474C61.9928 93.4522 62.3858 93.4309 62.7219 93.3835C63.0629 93.3314 63.3469 93.2131 63.5742 93.0284ZM59.7248 106.438C60.3166 106.438 60.8256 106.288 61.2518 105.99C61.6826 105.687 62.0141 105.259 62.2461 104.705C62.4781 104.151 62.5941 103.497 62.5941 102.744C62.5941 102.006 62.4781 101.378 62.2461 100.862C62.0141 100.346 61.6826 99.9531 61.2518 99.6832C60.8209 99.4086 60.3048 99.2713 59.7035 99.2713C59.2584 99.2713 58.8607 99.3494 58.5103 99.5057C58.1599 99.6572 57.8593 99.8821 57.6083 100.18C57.3621 100.479 57.1703 100.843 57.033 101.274C56.9004 101.7 56.8294 102.19 56.82 102.744C56.82 103.871 57.078 104.768 57.5941 105.436C58.1149 106.104 58.8252 106.438 59.7248 106.438ZM71.7063 108.22C70.6836 108.22 69.7911 107.986 69.0288 107.517C68.2665 107.048 67.6746 106.393 67.2532 105.55C66.8318 104.707 66.6211 103.722 66.6211 102.595C66.6211 101.464 66.8318 100.474 67.2532 99.6264C67.6746 98.7789 68.2665 98.1207 69.0288 97.652C69.7911 97.1832 70.6836 96.9489 71.7063 96.9489C72.729 96.9489 73.6216 97.1832 74.3839 97.652C75.1462 98.1207 75.738 98.7789 76.1594 99.6264C76.5808 100.474 76.7915 101.464 76.7915 102.595C76.7915 103.722 76.5808 104.707 76.1594 105.55C75.738 106.393 75.1462 107.048 74.3839 107.517C73.6216 107.986 72.729 108.22 71.7063 108.22ZM71.7134 106.438C72.3763 106.438 72.9255 106.262 73.3612 105.912C73.7968 105.562 74.1187 105.095 74.3271 104.513C74.5401 103.93 74.6467 103.289 74.6467 102.588C74.6467 101.892 74.5401 101.253 74.3271 100.67C74.1187 100.083 73.7968 99.6122 73.3612 99.2571C72.9255 98.902 72.3763 98.7244 71.7134 98.7244C71.0458 98.7244 70.4918 98.902 70.0515 99.2571C69.6159 99.6122 69.2915 100.083 69.0785 100.67C68.8701 101.253 68.766 101.892 68.766 102.588C68.766 103.289 68.8701 103.93 69.0785 104.513C69.2915 105.095 69.6159 105.562 70.0515 105.912C70.4918 106.262 71.0458 106.438 71.7134 106.438ZM77.848 98.9233V97.0909H87.0526V98.9233H83.4943V108H81.4205V98.9233H77.848ZM91.9656 108.241C91.2743 108.241 90.6493 108.114 90.0906 107.858C89.5318 107.598 89.0891 107.221 88.7624 106.729C88.4405 106.236 88.2795 105.633 88.2795 104.918C88.2795 104.302 88.3978 103.795 88.6346 103.398C88.8713 103 89.1909 102.685 89.5934 102.453C89.9959 102.221 90.4457 102.046 90.9428 101.928C91.44 101.809 91.9466 101.719 92.4627 101.658C93.1161 101.582 93.6464 101.52 94.0536 101.473C94.4608 101.421 94.7567 101.338 94.9414 101.224C95.1261 101.111 95.2184 100.926 95.2184 100.67V100.621C95.2184 100 95.0432 99.5199 94.6928 99.179C94.3472 98.8381 93.8311 98.6676 93.1445 98.6676C92.4296 98.6676 91.8661 98.8262 91.4542 99.1435C91.047 99.456 90.7653 99.804 90.609 100.188L88.6133 99.733C88.85 99.0701 89.1957 98.535 89.6502 98.1278C90.1095 97.7159 90.6374 97.4176 91.234 97.233C91.8306 97.0436 92.458 96.9489 93.1161 96.9489C93.5517 96.9489 94.0134 97.0009 94.5011 97.1051C94.9935 97.2045 95.4528 97.3892 95.8789 97.6591C96.3098 97.929 96.6625 98.3149 96.9371 98.8168C97.2118 99.3139 97.3491 99.9602 97.3491 100.756V108H95.2752V106.509H95.19C95.0527 106.783 94.8467 107.053 94.5721 107.318C94.2975 107.583 93.9447 107.804 93.5138 107.979C93.083 108.154 92.5669 108.241 91.9656 108.241ZM92.4272 106.537C93.0143 106.537 93.5162 106.421 93.9329 106.189C94.3543 105.957 94.6739 105.654 94.8917 105.28C95.1142 104.901 95.2255 104.496 95.2255 104.065V102.659C95.1497 102.735 95.003 102.806 94.7852 102.872C94.5721 102.934 94.3282 102.988 94.0536 103.036C93.779 103.078 93.5115 103.118 93.2511 103.156C92.9906 103.189 92.7728 103.218 92.5977 103.241C92.1857 103.294 91.8093 103.381 91.4684 103.504C91.1322 103.627 90.8623 103.805 90.6587 104.037C90.4599 104.264 90.3604 104.567 90.3604 104.946C90.3604 105.472 90.5546 105.869 90.9428 106.139C91.3311 106.404 91.8259 106.537 92.4272 106.537ZM110.925 108L113.311 93.4545H115.016L112.63 108H110.925ZM104.341 104.108L104.618 102.403H115.641L115.364 104.108H104.341ZM105.811 108L108.198 93.4545H109.902L107.516 108H105.811ZM105.186 99.0511L105.463 97.3466H116.486L116.209 99.0511H105.186ZM122.978 108.199C122.087 108.199 121.287 108.028 120.577 107.688C119.872 107.342 119.308 106.868 118.887 106.267C118.465 105.666 118.24 104.979 118.212 104.207H120.343C120.395 104.832 120.672 105.346 121.174 105.749C121.676 106.151 122.277 106.352 122.978 106.352C123.536 106.352 124.031 106.224 124.462 105.969C124.898 105.708 125.239 105.351 125.485 104.896C125.736 104.442 125.861 103.923 125.861 103.341C125.861 102.749 125.733 102.221 125.478 101.757C125.222 101.293 124.869 100.929 124.419 100.663C123.974 100.398 123.463 100.263 122.885 100.259C122.445 100.259 122.002 100.334 121.557 100.486C121.112 100.637 120.752 100.836 120.478 101.082L118.468 100.784L119.284 93.4545H127.282V95.3366H121.11L120.648 99.4062H120.733C121.017 99.1316 121.394 98.902 121.863 98.7173C122.336 98.5327 122.843 98.4403 123.382 98.4403C124.268 98.4403 125.056 98.651 125.748 99.0724C126.444 99.4938 126.99 100.069 127.388 100.798C127.791 101.523 127.989 102.356 127.985 103.298C127.989 104.241 127.776 105.081 127.346 105.82C126.919 106.558 126.328 107.141 125.57 107.567C124.817 107.988 123.953 108.199 122.978 108.199Z" fill="#181818"/>
<rect x="31" y="143" width="162" height="42" rx="9" stroke="#A6C81E" stroke-width="2"/>
<path d="M82.0208 158.818V169H80.1912V160.349H75.7367V169H73.9071V158.818H82.0208ZM87.4783 169.149C86.7326 169.149 86.0863 168.985 85.5394 168.657C84.9925 168.329 84.5683 167.87 84.2667 167.28C83.9684 166.69 83.8192 166 83.8192 165.212C83.8192 164.423 83.9684 163.732 84.2667 163.138C84.5683 162.545 84.9925 162.085 85.5394 161.756C86.0863 161.428 86.7326 161.264 87.4783 161.264C88.2241 161.264 88.8704 161.428 89.4173 161.756C89.9641 162.085 90.3867 162.545 90.685 163.138C90.9866 163.732 91.1374 164.423 91.1374 165.212C91.1374 166 90.9866 166.69 90.685 167.28C90.3867 167.87 89.9641 168.329 89.4173 168.657C88.8704 168.985 88.2241 169.149 87.4783 169.149ZM87.4883 167.707C87.8926 167.707 88.2307 167.596 88.5025 167.374C88.7743 167.149 88.9764 166.847 89.109 166.469C89.2449 166.092 89.3129 165.671 89.3129 165.207C89.3129 164.739 89.2449 164.317 89.109 163.939C88.9764 163.558 88.7743 163.254 88.5025 163.029C88.2307 162.804 87.8926 162.691 87.4883 162.691C87.074 162.691 86.7293 162.804 86.4542 163.029C86.1824 163.254 85.9786 163.558 85.8427 163.939C85.7101 164.317 85.6438 164.739 85.6438 165.207C85.6438 165.671 85.7101 166.092 85.8427 166.469C85.9786 166.847 86.1824 167.149 86.4542 167.374C86.7293 167.596 87.074 167.707 87.4883 167.707ZM91.9888 171.217V167.518H92.5953C92.7578 167.393 92.8936 167.222 93.003 167.006C93.1124 166.788 93.2019 166.531 93.2715 166.236C93.3444 165.937 93.4041 165.604 93.4505 165.237C93.4969 164.865 93.5383 164.466 93.5748 164.038L93.7935 161.364H99.312V167.518H100.495V171.217H98.7551V169H93.7587V171.217H91.9888ZM94.4448 167.518H97.5918V162.815H95.3546L95.2353 164.038C95.169 164.847 95.0811 165.54 94.9718 166.116C94.8624 166.693 94.6867 167.161 94.4448 167.518ZM101.839 171.864V161.364H103.609V162.626H103.713C103.806 162.441 103.937 162.244 104.106 162.035C104.275 161.823 104.504 161.642 104.792 161.493C105.08 161.34 105.448 161.264 105.896 161.264C106.486 161.264 107.018 161.415 107.491 161.717C107.969 162.015 108.347 162.457 108.625 163.044C108.907 163.627 109.048 164.343 109.048 165.192C109.048 166.03 108.91 166.743 108.635 167.33C108.36 167.916 107.985 168.364 107.511 168.672C107.037 168.98 106.5 169.134 105.901 169.134C105.463 169.134 105.1 169.061 104.812 168.915C104.523 168.77 104.291 168.594 104.116 168.388C103.943 168.18 103.809 167.982 103.713 167.797H103.638V171.864H101.839ZM103.604 165.182C103.604 165.676 103.673 166.108 103.812 166.479C103.955 166.851 104.159 167.141 104.424 167.349C104.692 167.555 105.017 167.658 105.398 167.658C105.796 167.658 106.129 167.552 106.398 167.339C106.666 167.124 106.868 166.831 107.004 166.46C107.143 166.085 107.213 165.659 107.213 165.182C107.213 164.708 107.145 164.287 107.009 163.919C106.873 163.551 106.671 163.263 106.403 163.054C106.134 162.845 105.799 162.741 105.398 162.741C105.014 162.741 104.688 162.842 104.419 163.044C104.151 163.246 103.947 163.53 103.808 163.894C103.672 164.259 103.604 164.688 103.604 165.182ZM113.92 169.149C113.174 169.149 112.528 168.985 111.981 168.657C111.434 168.329 111.01 167.87 110.708 167.28C110.41 166.69 110.261 166 110.261 165.212C110.261 164.423 110.41 163.732 110.708 163.138C111.01 162.545 111.434 162.085 111.981 161.756C112.528 161.428 113.174 161.264 113.92 161.264C114.665 161.264 115.312 161.428 115.859 161.756C116.406 162.085 116.828 162.545 117.126 163.138C117.428 163.732 117.579 164.423 117.579 165.212C117.579 166 117.428 166.69 117.126 167.28C116.828 167.87 116.406 168.329 115.859 168.657C115.312 168.985 114.665 169.149 113.92 169.149ZM113.93 167.707C114.334 167.707 114.672 167.596 114.944 167.374C115.216 167.149 115.418 166.847 115.55 166.469C115.686 166.092 115.754 165.671 115.754 165.207C115.754 164.739 115.686 164.317 115.55 163.939C115.418 163.558 115.216 163.254 114.944 163.029C114.672 162.804 114.334 162.691 113.93 162.691C113.515 162.691 113.171 162.804 112.896 163.029C112.624 163.254 112.42 163.558 112.284 163.939C112.152 164.317 112.085 164.739 112.085 165.207C112.085 165.671 112.152 166.092 112.284 166.469C112.42 166.847 112.624 167.149 112.896 167.374C113.171 167.596 113.515 167.707 113.93 167.707ZM125.226 158.54L125.853 159.703C125.631 159.895 125.382 160.035 125.107 160.121C124.832 160.207 124.509 160.263 124.138 160.29C123.77 160.313 123.332 160.33 122.825 160.339C122.255 160.353 121.789 160.46 121.428 160.663C121.067 160.865 120.79 161.171 120.598 161.582C120.406 161.99 120.28 162.51 120.22 163.143H120.305C120.543 162.676 120.878 162.32 121.309 162.075C121.74 161.829 122.245 161.707 122.825 161.707C123.458 161.707 124.017 161.849 124.501 162.134C124.988 162.416 125.367 162.825 125.639 163.362C125.914 163.899 126.052 164.549 126.052 165.311C126.052 166.097 125.904 166.778 125.609 167.354C125.314 167.928 124.895 168.37 124.351 168.682C123.811 168.993 123.17 169.149 122.427 169.149C121.688 169.149 121.045 168.988 120.498 168.667C119.955 168.342 119.534 167.863 119.236 167.23C118.941 166.594 118.793 165.81 118.793 164.879V164.192C118.793 162.396 119.128 161.055 119.797 160.17C120.467 159.286 121.46 158.835 122.775 158.818C123.166 158.812 123.516 158.81 123.824 158.813C124.136 158.817 124.408 158.802 124.64 158.768C124.872 158.735 125.067 158.659 125.226 158.54ZM122.437 167.707C122.805 167.707 123.123 167.613 123.392 167.424C123.66 167.232 123.866 166.96 124.008 166.609C124.154 166.257 124.227 165.841 124.227 165.361C124.227 164.887 124.154 164.484 124.008 164.153C123.863 163.818 123.655 163.563 123.387 163.387C123.118 163.211 122.799 163.124 122.427 163.124C122.149 163.124 121.899 163.173 121.677 163.273C121.455 163.372 121.266 163.518 121.11 163.71C120.954 163.902 120.835 164.136 120.752 164.411C120.669 164.686 120.624 165.003 120.618 165.361C120.618 166.08 120.78 166.652 121.105 167.076C121.43 167.497 121.874 167.707 122.437 167.707ZM132.828 164.436V165.913H128.761V164.436H132.828ZM129.318 161.364V169H127.583V161.364H129.318ZM134.006 161.364V169H132.276V161.364H134.006ZM139.208 169.149C138.442 169.149 137.781 168.99 137.224 168.672C136.671 168.35 136.245 167.896 135.946 167.31C135.648 166.72 135.499 166.025 135.499 165.227C135.499 164.441 135.648 163.752 135.946 163.158C136.248 162.562 136.669 162.098 137.209 161.766C137.749 161.432 138.384 161.264 139.113 161.264C139.584 161.264 140.028 161.34 140.446 161.493C140.867 161.642 141.238 161.874 141.559 162.189C141.884 162.504 142.139 162.905 142.325 163.392C142.511 163.876 142.603 164.453 142.603 165.122V165.674H136.344V164.461H140.878C140.875 164.116 140.8 163.81 140.654 163.541C140.509 163.269 140.305 163.056 140.043 162.9C139.784 162.744 139.483 162.666 139.138 162.666C138.77 162.666 138.447 162.756 138.169 162.935C137.89 163.11 137.673 163.342 137.517 163.631C137.365 163.916 137.287 164.229 137.284 164.57V165.629C137.284 166.073 137.365 166.455 137.527 166.773C137.69 167.088 137.917 167.33 138.208 167.499C138.5 167.664 138.842 167.747 139.233 167.747C139.494 167.747 139.731 167.711 139.944 167.638C140.156 167.562 140.34 167.451 140.495 167.305C140.651 167.159 140.769 166.978 140.848 166.763L142.529 166.952C142.423 167.396 142.221 167.784 141.922 168.115C141.627 168.443 141.249 168.698 140.789 168.881C140.328 169.06 139.801 169.149 139.208 169.149ZM147.507 169.149C146.741 169.149 146.08 168.99 145.523 168.672C144.969 168.35 144.544 167.896 144.245 167.31C143.947 166.72 143.798 166.025 143.798 165.227C143.798 164.441 143.947 163.752 144.245 163.158C144.547 162.562 144.968 162.098 145.508 161.766C146.048 161.432 146.683 161.264 147.412 161.264C147.883 161.264 148.327 161.34 148.744 161.493C149.165 161.642 149.537 161.874 149.858 162.189C150.183 162.504 150.438 162.905 150.624 163.392C150.809 163.876 150.902 164.453 150.902 165.122V165.674H144.643V164.461H149.177C149.174 164.116 149.099 163.81 148.953 163.541C148.807 163.269 148.604 163.056 148.342 162.9C148.083 162.744 147.782 162.666 147.437 162.666C147.069 162.666 146.746 162.756 146.468 162.935C146.189 163.11 145.972 163.342 145.816 163.631C145.664 163.916 145.586 164.229 145.583 164.57V165.629C145.583 166.073 145.664 166.455 145.826 166.773C145.989 167.088 146.216 167.33 146.507 167.499C146.799 167.664 147.14 167.747 147.531 167.747C147.793 167.747 148.03 167.711 148.242 167.638C148.454 167.562 148.638 167.451 148.794 167.305C148.95 167.159 149.068 166.978 149.147 166.763L150.828 166.952C150.722 167.396 150.519 167.784 150.221 168.115C149.926 168.443 149.548 168.698 149.088 168.881C148.627 169.06 148.1 169.149 147.507 169.149Z" fill="#A6C81E"/>
</svg>
