<svg width="224" height="216" viewBox="0 0 224 216" fill="none" xmlns="http://www.w3.org/2000/svg">
<rect width="224" height="216" rx="20" fill="black" fill-opacity="0.03"/>
<path d="M30.358 47.4659V43.9062H31.0142C31.2396 43.7008 31.4517 43.4107 31.6506 43.0362C31.8527 42.6584 32.0234 42.1546 32.1626 41.5249C32.3052 40.8918 32.3996 40.0881 32.446 39.1136L32.6648 34.8182H38.7102V43.9062H39.8835V47.446H38.7102V45H31.5312V47.4659H30.358ZM32.4858 43.9062H37.5369V35.9119H33.7784L33.6193 39.1136C33.5795 39.8561 33.5099 40.5289 33.4105 41.1321C33.3111 41.732 33.1835 42.264 33.0277 42.728C32.8719 43.1887 32.6913 43.5814 32.4858 43.9062ZM44.6898 45.1591C44.0004 45.1591 43.3955 44.995 42.8752 44.6669C42.3581 44.3388 41.9538 43.8797 41.6621 43.2898C41.3738 42.6998 41.2296 42.0104 41.2296 41.2216C41.2296 40.4261 41.3738 39.7318 41.6621 39.1385C41.9538 38.5452 42.3581 38.0845 42.8752 37.7564C43.3955 37.4283 44.0004 37.2642 44.6898 37.2642C45.3792 37.2642 45.9824 37.4283 46.4995 37.7564C47.0198 38.0845 47.4242 38.5452 47.7125 39.1385C48.0042 39.7318 48.15 40.4261 48.15 41.2216C48.15 42.0104 48.0042 42.6998 47.7125 43.2898C47.4242 43.8797 47.0198 44.3388 46.4995 44.6669C45.9824 44.995 45.3792 45.1591 44.6898 45.1591ZM44.6898 44.1051C45.2135 44.1051 45.6444 43.9709 45.9824 43.7024C46.3205 43.4339 46.5707 43.081 46.7331 42.6435C46.8955 42.206 46.9767 41.732 46.9767 41.2216C46.9767 40.7112 46.8955 40.2356 46.7331 39.7947C46.5707 39.3539 46.3205 38.9976 45.9824 38.7259C45.6444 38.4541 45.2135 38.3182 44.6898 38.3182C44.1661 38.3182 43.7353 38.4541 43.3972 38.7259C43.0591 38.9976 42.8089 39.3539 42.6465 39.7947C42.4841 40.2356 42.4029 40.7112 42.4029 41.2216C42.4029 41.732 42.4841 42.206 42.6465 42.6435C42.8089 43.081 43.0591 43.4339 43.3972 43.7024C43.7353 43.9709 44.1661 44.1051 44.6898 44.1051ZM55.6087 34.5L56.2053 35.2159C55.9732 35.4413 55.7048 35.5987 55.3999 35.6882C55.0949 35.7777 54.7502 35.8324 54.3658 35.8523C53.9813 35.8722 53.5537 35.892 53.0831 35.9119C52.5528 35.9318 52.1136 36.0611 51.7656 36.2997C51.4176 36.5384 51.1491 36.883 50.9602 37.3338C50.7713 37.7846 50.6503 38.3381 50.5973 38.9943H50.6967C50.9553 38.517 51.3132 38.1657 51.7706 37.9403C52.228 37.715 52.7185 37.6023 53.2422 37.6023C53.8388 37.6023 54.3757 37.7415 54.853 38.0199C55.3303 38.2983 55.7081 38.7109 55.9865 39.2578C56.2649 39.8047 56.4041 40.4792 56.4041 41.2812C56.4041 42.08 56.2616 42.7694 55.9766 43.3494C55.6948 43.9295 55.2988 44.3769 54.7884 44.6918C54.2813 45.0033 53.6863 45.1591 53.0036 45.1591C52.3208 45.1591 51.7225 44.9983 51.2088 44.6768C50.6951 44.352 50.2957 43.8714 50.0107 43.2351C49.7256 42.5954 49.5831 41.8049 49.5831 40.8636V40.0483C49.5831 38.348 49.8714 37.0587 50.4482 36.1804C51.0282 35.3021 51.8999 34.848 53.0632 34.8182C53.4742 34.8049 53.8404 34.8016 54.1619 34.8082C54.4834 34.8149 54.7635 34.8 55.0021 34.7635C55.2408 34.727 55.4429 34.6392 55.6087 34.5ZM53.0036 44.1051C53.4643 44.1051 53.8603 43.9891 54.1918 43.7571C54.5265 43.5251 54.7834 43.1986 54.9624 42.7777C55.1413 42.3535 55.2308 41.8546 55.2308 41.2812C55.2308 40.7244 55.1397 40.2505 54.9574 39.8594C54.7784 39.4683 54.5215 39.17 54.1868 38.9645C53.852 38.759 53.451 38.6562 52.9837 38.6562C52.6423 38.6562 52.3357 38.7143 52.0639 38.8303C51.7921 38.9463 51.5601 39.117 51.3679 39.3423C51.1757 39.5677 51.0265 39.8428 50.9205 40.1676C50.8177 40.4924 50.763 40.8636 50.7564 41.2812C50.7564 42.1364 50.9569 42.8208 51.358 43.3345C51.759 43.8482 52.3075 44.1051 53.0036 44.1051ZM60.446 45.179C59.9621 45.179 59.523 45.0878 59.1286 44.9055C58.7341 44.7199 58.4209 44.4531 58.1889 44.1051C57.9569 43.7538 57.8409 43.3295 57.8409 42.8324C57.8409 42.3949 57.9271 42.0402 58.0994 41.7685C58.2718 41.4934 58.5021 41.2779 58.7905 41.1222C59.0788 40.9664 59.397 40.8504 59.745 40.7741C60.0964 40.6946 60.4493 40.6316 60.804 40.5852C61.268 40.5256 61.6442 40.4808 61.9325 40.451C62.2242 40.4179 62.4363 40.3632 62.5689 40.2869C62.7048 40.2107 62.7727 40.0781 62.7727 39.8892V39.8494C62.7727 39.3589 62.6385 38.9777 62.37 38.706C62.1049 38.4342 61.7022 38.2983 61.1619 38.2983C60.6018 38.2983 60.1626 38.4209 59.8445 38.6662C59.5263 38.9115 59.3026 39.1733 59.1733 39.4517L58.0597 39.054C58.2585 38.59 58.5237 38.2287 58.8551 37.9702C59.1899 37.7083 59.5545 37.526 59.9489 37.4233C60.3466 37.3172 60.7377 37.2642 61.1222 37.2642C61.3674 37.2642 61.6491 37.294 61.9673 37.3537C62.2888 37.41 62.5987 37.5277 62.897 37.7067C63.1986 37.8857 63.4489 38.1558 63.6477 38.517C63.8466 38.8783 63.946 39.3622 63.946 39.9688V45H62.7727V43.9659H62.7131C62.6335 44.1316 62.5009 44.3089 62.3153 44.4979C62.1297 44.6868 61.8828 44.8475 61.5746 44.9801C61.2663 45.1127 60.8902 45.179 60.446 45.179ZM60.625 44.125C61.089 44.125 61.4801 44.0339 61.7983 43.8516C62.1198 43.6693 62.3617 43.4339 62.5241 43.1456C62.6899 42.8572 62.7727 42.554 62.7727 42.2358V41.1619C62.723 41.2216 62.6136 41.2763 62.4446 41.326C62.2789 41.3724 62.0866 41.4138 61.8679 41.4503C61.6525 41.4834 61.442 41.5133 61.2365 41.5398C61.0343 41.563 60.8703 41.5829 60.7443 41.5994C60.4394 41.6392 60.1544 41.7038 59.8892 41.7933C59.6274 41.8795 59.4152 42.0104 59.2528 42.1861C59.0938 42.3584 59.0142 42.5937 59.0142 42.892C59.0142 43.2997 59.165 43.608 59.4666 43.8168C59.7715 44.0223 60.1577 44.125 60.625 44.125ZM66.0875 45V37.3636H69.2097C70.0317 37.3636 70.6846 37.5492 71.1685 37.9205C71.6524 38.2917 71.8944 38.7822 71.8944 39.392C71.8944 39.8561 71.7568 40.2157 71.4817 40.4709C71.2066 40.7228 70.8536 40.8935 70.4228 40.983C70.7045 41.0227 70.9779 41.1222 71.2431 41.2812C71.5115 41.4403 71.7336 41.6591 71.9093 41.9375C72.0849 42.2126 72.1728 42.5507 72.1728 42.9517C72.1728 43.3428 72.0733 43.6925 71.8745 44.0007C71.6756 44.3089 71.3906 44.5526 71.0194 44.7315C70.6481 44.9105 70.204 45 69.687 45H66.0875ZM67.2012 43.9261H69.687C70.0913 43.9261 70.4078 43.83 70.6365 43.6378C70.8652 43.4455 70.9796 43.1837 70.9796 42.8523C70.9796 42.4579 70.8652 42.148 70.6365 41.9226C70.4078 41.6939 70.0913 41.5795 69.687 41.5795H67.2012V43.9261ZM67.2012 40.5653H69.2097C69.5246 40.5653 69.7947 40.5223 70.0201 40.4361C70.2454 40.3466 70.4178 40.2206 70.5371 40.0582C70.6597 39.8925 70.7211 39.697 70.7211 39.4716C70.7211 39.1501 70.5868 38.8982 70.3184 38.7159C70.0499 38.5303 69.6803 38.4375 69.2097 38.4375H67.2012V40.5653ZM73.2727 45V43.9062H73.5511C73.7798 43.9062 73.9704 43.8615 74.1229 43.772C74.2753 43.6792 74.398 43.5185 74.4908 43.2898C74.5869 43.0578 74.6598 42.7363 74.7095 42.3253C74.7625 41.911 74.8007 41.384 74.8239 40.7443L74.9631 37.3636H80.054V45H78.8807V38.4574H76.0767L75.9574 41.1818C75.9309 41.8082 75.8745 42.3601 75.7884 42.8374C75.7055 43.3113 75.5779 43.709 75.4055 44.0305C75.2365 44.352 75.0111 44.594 74.7294 44.7564C74.4477 44.9188 74.0947 45 73.6705 45H73.2727ZM85.4084 45.1591C84.6726 45.1591 84.0379 44.9967 83.5043 44.6719C82.974 44.3438 82.5646 43.8864 82.2763 43.2997C81.9912 42.7098 81.8487 42.0237 81.8487 41.2415C81.8487 40.4593 81.9912 39.7699 82.2763 39.1733C82.5646 38.5734 82.9657 38.1061 83.4794 37.7713C83.9964 37.4332 84.5997 37.2642 85.2891 37.2642C85.6868 37.2642 86.0795 37.3305 86.4673 37.4631C86.8551 37.5956 87.2081 37.8111 87.5263 38.1094C87.8445 38.4044 88.098 38.7955 88.2869 39.2827C88.4759 39.7699 88.5703 40.3698 88.5703 41.0824V41.5795H82.6839V40.5653H87.3771C87.3771 40.1345 87.291 39.75 87.1186 39.4119C86.9496 39.0739 86.7076 38.8071 86.3928 38.6115C86.0812 38.416 85.7133 38.3182 85.2891 38.3182C84.8217 38.3182 84.4174 38.4342 84.076 38.6662C83.7379 38.8949 83.4777 39.1932 83.2955 39.5611C83.1132 39.929 83.022 40.3234 83.022 40.7443V41.4205C83.022 41.9972 83.1214 42.486 83.3203 42.8871C83.5225 43.2848 83.8026 43.5881 84.1605 43.7969C84.5185 44.0024 84.9344 44.1051 85.4084 44.1051C85.7166 44.1051 85.995 44.062 86.2436 43.9759C86.4955 43.8864 86.7126 43.7538 86.8949 43.5781C87.0772 43.3991 87.218 43.1771 87.3175 42.9119L88.451 43.2301C88.3317 43.6146 88.1312 43.9527 87.8494 44.2443C87.5677 44.5327 87.2197 44.758 86.8054 44.9205C86.3911 45.0795 85.9254 45.1591 85.4084 45.1591ZM95.4659 40.6449V41.7386H91.25V40.6449H95.4659ZM91.5284 37.3636V45H90.3551V37.3636H91.5284ZM96.3608 37.3636V45H95.1875V37.3636H96.3608ZM101.606 45.1591C100.916 45.1591 100.312 44.995 99.7912 44.6669C99.2741 44.3388 98.8698 43.8797 98.5781 43.2898C98.2898 42.6998 98.1456 42.0104 98.1456 41.2216C98.1456 40.4261 98.2898 39.7318 98.5781 39.1385C98.8698 38.5452 99.2741 38.0845 99.7912 37.7564C100.312 37.4283 100.916 37.2642 101.606 37.2642C102.295 37.2642 102.898 37.4283 103.415 37.7564C103.936 38.0845 104.34 38.5452 104.629 39.1385C104.92 39.7318 105.066 40.4261 105.066 41.2216C105.066 42.0104 104.92 42.6998 104.629 43.2898C104.34 43.8797 103.936 44.3388 103.415 44.6669C102.898 44.995 102.295 45.1591 101.606 45.1591ZM101.606 44.1051C102.129 44.1051 102.56 43.9709 102.898 43.7024C103.237 43.4339 103.487 43.081 103.649 42.6435C103.812 42.206 103.893 41.732 103.893 41.2216C103.893 40.7112 103.812 40.2356 103.649 39.7947C103.487 39.3539 103.237 38.9976 102.898 38.7259C102.56 38.4541 102.129 38.3182 101.606 38.3182C101.082 38.3182 100.651 38.4541 100.313 38.7259C99.9751 38.9976 99.7249 39.3539 99.5625 39.7947C99.4001 40.2356 99.3189 40.7112 99.3189 41.2216C99.3189 41.732 99.4001 42.206 99.5625 42.6435C99.7249 43.081 99.9751 43.4339 100.313 43.7024C100.651 43.9709 101.082 44.1051 101.606 44.1051ZM114.155 45.1392C113.738 45.1326 113.32 45.053 112.903 44.9006C112.485 44.7481 112.104 44.4912 111.759 44.13C111.414 43.7654 111.138 43.2732 110.929 42.6534C110.72 42.0303 110.616 41.2481 110.616 40.3068C110.616 39.4053 110.7 38.6065 110.869 37.9105C111.038 37.2112 111.283 36.6229 111.605 36.1456C111.926 35.665 112.314 35.3004 112.768 35.0518C113.226 34.8033 113.741 34.679 114.314 34.679C114.885 34.679 115.392 34.7933 115.836 35.022C116.283 35.2474 116.648 35.5623 116.93 35.9666C117.211 36.371 117.394 36.8366 117.476 37.3636H116.263C116.151 36.9062 115.932 36.5268 115.607 36.2251C115.282 35.9235 114.851 35.7727 114.314 35.7727C113.526 35.7727 112.904 36.1158 112.45 36.8018C111.999 37.4879 111.772 38.4508 111.769 39.6903H111.849C112.034 39.4086 112.255 39.1683 112.51 38.9695C112.768 38.7673 113.053 38.6115 113.365 38.5021C113.676 38.3928 114.006 38.3381 114.354 38.3381C114.938 38.3381 115.471 38.4839 115.955 38.7756C116.439 39.0639 116.827 39.4633 117.118 39.9737C117.41 40.4808 117.556 41.0625 117.556 41.7188C117.556 42.3485 117.415 42.9252 117.133 43.4489C116.852 43.9692 116.456 44.3835 115.945 44.6918C115.438 44.9967 114.841 45.1458 114.155 45.1392ZM114.155 44.0455C114.573 44.0455 114.948 43.9411 115.279 43.7322C115.614 43.5234 115.877 43.2434 116.069 42.892C116.265 42.5407 116.363 42.1496 116.363 41.7188C116.363 41.2978 116.268 40.915 116.079 40.5703C115.894 40.2223 115.637 39.9455 115.309 39.7401C114.984 39.5346 114.613 39.4318 114.195 39.4318C113.88 39.4318 113.587 39.4948 113.315 39.6207C113.043 39.7434 112.805 39.9124 112.599 40.1278C112.397 40.3433 112.238 40.5902 112.122 40.8686C112.006 41.1437 111.948 41.4337 111.948 41.7386C111.948 42.143 112.042 42.5208 112.231 42.8722C112.424 43.2235 112.685 43.5069 113.017 43.7223C113.352 43.9377 113.731 44.0455 114.155 44.0455ZM124.642 43.2699L128.321 37.3636H129.673V45H128.5V39.0938L124.841 45H123.468V37.3636H124.642V43.2699ZM135.481 40.7045V41.7983H131.444V40.7045H135.481ZM132.438 37.3636V45H131.265V37.3636H132.438ZM137.828 45.1591C137.138 45.1591 136.533 44.995 136.013 44.6669C135.496 44.3388 135.092 43.8797 134.8 43.2898C134.512 42.6998 134.367 42.0104 134.367 41.2216C134.367 40.4261 134.512 39.7318 134.8 39.1385C135.092 38.5452 135.496 38.0845 136.013 37.7564C136.533 37.4283 137.138 37.2642 137.828 37.2642C138.517 37.2642 139.12 37.4283 139.637 37.7564C140.158 38.0845 140.562 38.5452 140.85 39.1385C141.142 39.7318 141.288 40.4261 141.288 41.2216C141.288 42.0104 141.142 42.6998 140.85 43.2898C140.562 43.8797 140.158 44.3388 139.637 44.6669C139.12 44.995 138.517 45.1591 137.828 45.1591ZM137.828 44.1051C138.351 44.1051 138.782 43.9709 139.12 43.7024C139.458 43.4339 139.709 43.081 139.871 42.6435C140.033 42.206 140.115 41.732 140.115 41.2216C140.115 40.7112 140.033 40.2356 139.871 39.7947C139.709 39.3539 139.458 38.9976 139.12 38.7259C138.782 38.4541 138.351 38.3182 137.828 38.3182C137.304 38.3182 136.873 38.4541 136.535 38.7259C136.197 38.9976 135.947 39.3539 135.784 39.7947C135.622 40.2356 135.541 40.7112 135.541 41.2216C135.541 41.732 135.622 42.206 135.784 42.6435C135.947 43.081 136.197 43.4339 136.535 43.7024C136.873 43.9709 137.304 44.1051 137.828 44.1051ZM142.521 45V43.9062H142.799C143.028 43.9062 143.218 43.8615 143.371 43.772C143.523 43.6792 143.646 43.5185 143.739 43.2898C143.835 43.0578 143.908 42.7363 143.958 42.3253C144.011 41.911 144.049 41.384 144.072 40.7443L144.211 37.3636H149.302V45H148.129V38.4574H145.325L145.205 41.1818C145.179 41.8082 145.123 42.3601 145.036 42.8374C144.954 43.3113 144.826 43.709 144.654 44.0305C144.485 44.352 144.259 44.594 143.977 44.7564C143.696 44.9188 143.343 45 142.919 45H142.521ZM156.048 45V38.4375H154.02C153.563 38.4375 153.203 38.5436 152.941 38.7557C152.679 38.9678 152.548 39.2595 152.548 39.6307C152.548 39.9953 152.666 40.282 152.901 40.4908C153.14 40.6996 153.467 40.804 153.881 40.804H156.347V41.8977H153.881C153.364 41.8977 152.918 41.8066 152.544 41.6243C152.169 41.442 151.881 41.1818 151.678 40.8438C151.476 40.5024 151.375 40.098 151.375 39.6307C151.375 39.16 151.481 38.7557 151.693 38.4176C151.905 38.0795 152.209 37.8194 152.603 37.6371C153.001 37.4548 153.473 37.3636 154.02 37.3636H157.162V45H156.048ZM150.958 45L153.125 41.2017H154.398L152.23 45H150.958Z" fill="#838383"/>
<path d="M43.679 72.1847H41.4631C41.3778 71.7112 41.2192 71.2945 40.9872 70.9347C40.7552 70.5748 40.4711 70.2694 40.1349 70.0185C39.7988 69.7675 39.4223 69.5781 39.0057 69.4503C38.5938 69.3224 38.1558 69.2585 37.6918 69.2585C36.8537 69.2585 36.1032 69.4692 35.4403 69.8906C34.7822 70.312 34.2614 70.9299 33.8778 71.7443C33.4991 72.5587 33.3097 73.553 33.3097 74.7273C33.3097 75.911 33.4991 76.91 33.8778 77.7244C34.2614 78.5388 34.7846 79.1544 35.4474 79.571C36.1103 79.9877 36.8561 80.196 37.6847 80.196C38.1439 80.196 38.5795 80.1345 38.9915 80.0114C39.4081 79.8835 39.7846 79.6965 40.1207 79.4503C40.4569 79.2041 40.741 78.9034 40.973 78.5483C41.2098 78.1884 41.3731 77.7765 41.4631 77.3125L43.679 77.3196C43.5606 78.0346 43.331 78.6927 42.9901 79.294C42.6539 79.8906 42.2206 80.4067 41.6903 80.8423C41.1648 81.2732 40.5634 81.607 39.8864 81.8438C39.2093 82.0805 38.4706 82.1989 37.6705 82.1989C36.411 82.1989 35.2888 81.9006 34.304 81.304C33.3191 80.7027 32.5426 79.8433 31.9744 78.7259C31.411 77.6084 31.1293 76.2756 31.1293 74.7273C31.1293 73.1742 31.4134 71.8414 31.9815 70.7287C32.5497 69.6113 33.3262 68.7543 34.3111 68.1577C35.2959 67.5563 36.4157 67.2557 37.6705 67.2557C38.4422 67.2557 39.1619 67.367 39.8295 67.5895C40.5019 67.8073 41.1056 68.1293 41.6406 68.5554C42.1757 68.9768 42.6184 69.4929 42.9688 70.1037C43.3191 70.7098 43.5559 71.4034 43.679 72.1847ZM46.1346 82V71.0909H55.0337V82H52.9528V72.9233H48.2013V82H46.1346ZM59.9538 79.0241L64.7621 71.0909H67.049V82H64.968V74.0597L60.1811 82H57.8729V71.0909H59.9538V79.0241ZM74.4993 82.2202C73.4434 82.2202 72.5343 81.9811 71.772 81.5028C71.0144 81.0199 70.4321 80.3546 70.0249 79.5071C69.6177 78.6596 69.4141 77.6889 69.4141 76.5952C69.4141 75.4872 69.6224 74.5095 70.0391 73.6619C70.4557 72.8097 71.0429 72.1444 71.8004 71.6662C72.558 71.188 73.4505 70.9489 74.478 70.9489C75.3066 70.9489 76.0452 71.1027 76.6939 71.4105C77.3426 71.7135 77.8658 72.1397 78.2635 72.6889C78.666 73.2382 78.9051 73.8797 78.9808 74.6136H76.9141C76.8004 74.1023 76.54 73.6619 76.1328 73.2926C75.7304 72.9233 75.1906 72.7386 74.5135 72.7386C73.9216 72.7386 73.4032 72.8949 72.9581 73.2074C72.5178 73.5152 72.1745 73.9555 71.9283 74.5284C71.6821 75.0966 71.5589 75.7689 71.5589 76.5455C71.5589 77.3409 71.6797 78.0275 71.9212 78.6051C72.1626 79.1828 72.5036 79.6302 72.9439 79.9474C73.389 80.2647 73.9122 80.4233 74.5135 80.4233C74.916 80.4233 75.2805 80.3499 75.6072 80.2031C75.9387 80.0516 76.2157 79.8362 76.4382 79.5568C76.6655 79.2775 76.8241 78.9413 76.9141 78.5483H78.9808C78.9051 79.2538 78.6754 79.8835 78.2919 80.4375C77.9084 80.9915 77.3946 81.4271 76.7507 81.7443C76.1115 82.0616 75.361 82.2202 74.4993 82.2202ZM85.8469 82.2202C84.8242 82.2202 83.9317 81.9858 83.1694 81.517C82.4071 81.0483 81.8152 80.3925 81.3938 79.5497C80.9724 78.7069 80.7617 77.7221 80.7617 76.5952C80.7617 75.4635 80.9724 74.474 81.3938 73.6264C81.8152 72.7789 82.4071 72.1207 83.1694 71.652C83.9317 71.1832 84.8242 70.9489 85.8469 70.9489C86.8697 70.9489 87.7622 71.1832 88.5245 71.652C89.2868 72.1207 89.8787 72.7789 90.3001 73.6264C90.7215 74.474 90.9322 75.4635 90.9322 76.5952C90.9322 77.7221 90.7215 78.7069 90.3001 79.5497C89.8787 80.3925 89.2868 81.0483 88.5245 81.517C87.7622 81.9858 86.8697 82.2202 85.8469 82.2202ZM85.854 80.4375C86.5169 80.4375 87.0662 80.2623 87.5018 79.9119C87.9374 79.5616 88.2594 79.0952 88.4677 78.5128C88.6808 77.9304 88.7873 77.2888 88.7873 76.5881C88.7873 75.892 88.6808 75.2528 88.4677 74.6705C88.2594 74.0833 87.9374 73.6122 87.5018 73.2571C87.0662 72.902 86.5169 72.7244 85.854 72.7244C85.1864 72.7244 84.6325 72.902 84.1921 73.2571C83.7565 73.6122 83.4322 74.0833 83.2191 74.6705C83.0108 75.2528 82.9066 75.892 82.9066 76.5881C82.9066 77.2888 83.0108 77.9304 83.2191 78.5128C83.4322 79.0952 83.7565 79.5616 84.1921 79.9119C84.6325 80.2623 85.1864 80.4375 85.854 80.4375ZM93.3026 82V71.0909H95.4261V75.6648H96.4489L100.05 71.0909H102.678L98.4517 76.3963L102.727 82H100.092L96.804 77.6392H95.4261V82H93.3026ZM117.063 75.6293V77.4688H111.154V75.6293H117.063ZM111.751 71.0909V82H109.67V71.0909H111.751ZM118.548 71.0909V82H116.474V71.0909H118.548ZM124.563 82.2415C123.872 82.2415 123.247 82.1136 122.688 81.858C122.129 81.5975 121.687 81.2211 121.36 80.7287C121.038 80.2363 120.877 79.6326 120.877 78.9176C120.877 78.3021 120.996 77.7955 121.232 77.3977C121.469 77 121.789 76.6851 122.191 76.4531C122.594 76.2211 123.043 76.0459 123.54 75.9276C124.038 75.8092 124.544 75.7192 125.06 75.6577C125.714 75.5819 126.244 75.5204 126.651 75.473C127.058 75.4209 127.354 75.3381 127.539 75.2244C127.724 75.1108 127.816 74.9261 127.816 74.6705V74.6207C127.816 74.0005 127.641 73.5199 127.29 73.179C126.945 72.8381 126.429 72.6676 125.742 72.6676C125.027 72.6676 124.464 72.8262 124.052 73.1435C123.645 73.456 123.363 73.804 123.207 74.1875L121.211 73.733C121.448 73.0701 121.793 72.535 122.248 72.1278C122.707 71.7159 123.235 71.4176 123.832 71.233C124.428 71.0436 125.056 70.9489 125.714 70.9489C126.149 70.9489 126.611 71.0009 127.099 71.1051C127.591 71.2045 128.05 71.3892 128.477 71.6591C128.907 71.929 129.26 72.3149 129.535 72.8168C129.809 73.3139 129.947 73.9602 129.947 74.7557V82H127.873V80.5085H127.788C127.65 80.7831 127.444 81.053 127.17 81.3182C126.895 81.5833 126.542 81.8035 126.112 81.9787C125.681 82.1539 125.165 82.2415 124.563 82.2415ZM125.025 80.5369C125.612 80.5369 126.114 80.4209 126.531 80.1889C126.952 79.9569 127.272 79.6539 127.489 79.2798C127.712 78.901 127.823 78.4962 127.823 78.0653V76.6591C127.747 76.7348 127.601 76.8059 127.383 76.8722C127.17 76.9337 126.926 76.9882 126.651 77.0355C126.377 77.0781 126.109 77.1184 125.849 77.1562C125.588 77.1894 125.371 77.2178 125.195 77.2415C124.783 77.2936 124.407 77.3812 124.066 77.5043C123.73 77.6274 123.46 77.8049 123.256 78.0369C123.058 78.2642 122.958 78.5672 122.958 78.946C122.958 79.4716 123.152 79.8693 123.54 80.1392C123.929 80.4044 124.424 80.5369 125.025 80.5369ZM36.0227 108.22C35 108.22 34.1075 107.986 33.3452 107.517C32.5829 107.048 31.991 106.393 31.5696 105.55C31.1482 104.707 30.9375 103.722 30.9375 102.595C30.9375 101.464 31.1482 100.474 31.5696 99.6264C31.991 98.7789 32.5829 98.1207 33.3452 97.652C34.1075 97.1832 35 96.9489 36.0227 96.9489C37.0455 96.9489 37.938 97.1832 38.7003 97.652C39.4626 98.1207 40.0545 98.7789 40.4759 99.6264C40.8973 100.474 41.108 101.464 41.108 102.595C41.108 103.722 40.8973 104.707 40.4759 105.55C40.0545 106.393 39.4626 107.048 38.7003 107.517C37.938 107.986 37.0455 108.22 36.0227 108.22ZM36.0298 106.438C36.6927 106.438 37.242 106.262 37.6776 105.912C38.1132 105.562 38.4351 105.095 38.6435 104.513C38.8565 103.93 38.9631 103.289 38.9631 102.588C38.9631 101.892 38.8565 101.253 38.6435 100.67C38.4351 100.083 38.1132 99.6122 37.6776 99.2571C37.242 98.902 36.6927 98.7244 36.0298 98.7244C35.3622 98.7244 34.8082 98.902 34.3679 99.2571C33.9323 99.6122 33.608 100.083 33.3949 100.67C33.1866 101.253 33.0824 101.892 33.0824 102.588C33.0824 103.289 33.1866 103.93 33.3949 104.513C33.608 105.095 33.9323 105.562 34.3679 105.912C34.8082 106.262 35.3622 106.438 36.0298 106.438ZM42.1644 98.9233V97.0909H51.369V98.9233H47.8107V108H45.7369V98.9233H42.1644ZM61.8643 97.0909V108H59.7905V97.0909H61.8643ZM60.9624 102.155V103.987C60.6357 104.12 60.29 104.238 59.9254 104.342C59.5608 104.442 59.1773 104.52 58.7749 104.577C58.3724 104.634 57.9534 104.662 57.5178 104.662C56.1683 104.662 55.0959 104.333 54.3004 103.675C53.505 103.012 53.1072 101.999 53.1072 100.635V97.0696H55.174V100.635C55.174 101.151 55.2687 101.57 55.4581 101.892C55.6475 102.214 55.9174 102.451 56.2678 102.602C56.6181 102.754 57.0348 102.83 57.5178 102.83C58.157 102.83 58.7464 102.77 59.2862 102.652C59.8307 102.529 60.3894 102.363 60.9624 102.155ZM66.7702 105.024L71.5785 97.0909H73.8654V108H71.7844V100.06L66.9975 108H64.6893V97.0909H66.7702V105.024ZM81.3157 108.22C80.2598 108.22 79.3507 107.981 78.5884 107.503C77.8308 107.02 77.2485 106.355 76.8413 105.507C76.4341 104.66 76.2305 103.689 76.2305 102.595C76.2305 101.487 76.4388 100.509 76.8555 99.6619C77.2721 98.8097 77.8593 98.1444 78.6168 97.6662C79.3744 97.188 80.2669 96.9489 81.2944 96.9489C82.123 96.9489 82.8616 97.1027 83.5103 97.4105C84.159 97.7135 84.6822 98.1397 85.0799 98.6889C85.4824 99.2382 85.7215 99.8797 85.7972 100.614H83.7305C83.6168 100.102 83.3564 99.6619 82.9492 99.2926C82.5468 98.9233 82.007 98.7386 81.3299 98.7386C80.738 98.7386 80.2196 98.8949 79.7745 99.2074C79.3342 99.5152 78.9909 99.9555 78.7447 100.528C78.4985 101.097 78.3754 101.769 78.3754 102.545C78.3754 103.341 78.4961 104.027 78.7376 104.605C78.979 105.183 79.32 105.63 79.7603 105.947C80.2054 106.265 80.7286 106.423 81.3299 106.423C81.7324 106.423 82.0969 106.35 82.4237 106.203C82.7551 106.052 83.0321 105.836 83.2546 105.557C83.4819 105.277 83.6405 104.941 83.7305 104.548H85.7972C85.7215 105.254 85.4918 105.884 85.1083 106.438C84.7248 106.991 84.2111 107.427 83.5671 107.744C82.9279 108.062 82.1774 108.22 81.3157 108.22ZM87.2088 108L87.2017 106.161H87.5923C87.8954 106.161 88.1487 106.097 88.3523 105.969C88.5606 105.836 88.7311 105.614 88.8636 105.301C88.9962 104.989 89.098 104.558 89.169 104.009C89.2401 103.455 89.2921 102.759 89.3253 101.92L89.517 97.0909H97.1307V108H95.0497V98.9233H91.4844L91.3139 102.631C91.2713 103.53 91.179 104.316 91.0369 104.989C90.8996 105.661 90.6984 106.222 90.4332 106.672C90.1681 107.117 89.8272 107.451 89.4105 107.673C88.9938 107.891 88.4872 108 87.8906 108H87.2088ZM104.664 108.22C103.59 108.22 102.664 107.991 101.887 107.531C101.116 107.067 100.519 106.416 100.098 105.578C99.681 104.735 99.4727 103.748 99.4727 102.616C99.4727 101.499 99.681 100.514 100.098 99.6619C100.519 98.8097 101.106 98.1444 101.859 97.6662C102.617 97.188 103.502 96.9489 104.515 96.9489C105.131 96.9489 105.727 97.0507 106.305 97.2543C106.883 97.4579 107.401 97.7775 107.86 98.2131C108.32 98.6487 108.682 99.2145 108.947 99.9105C109.212 100.602 109.345 101.442 109.345 102.432V103.185H100.673V101.594H107.264C107.264 101.035 107.15 100.54 106.923 100.109C106.696 99.6738 106.376 99.3305 105.964 99.0795C105.557 98.8286 105.079 98.7031 104.529 98.7031C103.933 98.7031 103.412 98.8499 102.967 99.1435C102.527 99.4323 102.186 99.8111 101.944 100.28C101.708 100.744 101.589 101.248 101.589 101.793V103.036C101.589 103.765 101.717 104.385 101.973 104.896C102.233 105.408 102.595 105.798 103.059 106.068C103.523 106.333 104.065 106.466 104.686 106.466C105.088 106.466 105.455 106.409 105.787 106.295C106.118 106.177 106.404 106.002 106.646 105.77C106.887 105.538 107.072 105.251 107.2 104.911L109.21 105.273C109.049 105.865 108.76 106.383 108.343 106.828C107.931 107.268 107.413 107.612 106.788 107.858C106.168 108.099 105.46 108.22 104.664 108.22ZM119.094 101.629V103.469H113.185V101.629H119.094ZM113.782 97.0909V108H111.701V97.0909H113.782ZM120.579 97.0909V108H118.505V97.0909H120.579ZM125.501 105.024L130.309 97.0909H132.596V108H130.515V100.06L125.728 108H123.42V97.0909H125.501V105.024ZM140.153 108.22C139.078 108.22 138.152 107.991 137.376 107.531C136.604 107.067 136.007 106.416 135.586 105.578C135.169 104.735 134.961 103.748 134.961 102.616C134.961 101.499 135.169 100.514 135.586 99.6619C136.007 98.8097 136.594 98.1444 137.347 97.6662C138.105 97.188 138.99 96.9489 140.004 96.9489C140.619 96.9489 141.216 97.0507 141.793 97.2543C142.371 97.4579 142.889 97.7775 143.349 98.2131C143.808 98.6487 144.17 99.2145 144.435 99.9105C144.701 100.602 144.833 101.442 144.833 102.432V103.185H136.161V101.594H142.752C142.752 101.035 142.638 100.54 142.411 100.109C142.184 99.6738 141.864 99.3305 141.452 99.0795C141.045 98.8286 140.567 98.7031 140.018 98.7031C139.421 98.7031 138.9 98.8499 138.455 99.1435C138.015 99.4323 137.674 99.8111 137.433 100.28C137.196 100.744 137.077 101.248 137.077 101.793V103.036C137.077 103.765 137.205 104.385 137.461 104.896C137.721 105.408 138.084 105.798 138.548 106.068C139.012 106.333 139.554 106.466 140.174 106.466C140.576 106.466 140.943 106.409 141.275 106.295C141.606 106.177 141.893 106.002 142.134 105.77C142.376 105.538 142.56 105.251 142.688 104.911L144.698 105.273C144.537 105.865 144.248 106.383 143.832 106.828C143.42 107.268 142.901 107.612 142.276 107.858C141.656 108.099 140.948 108.22 140.153 108.22Z" fill="#181818"/>
<rect x="31" y="143" width="162" height="42" rx="9" stroke="#A6C81E" stroke-width="2"/>
<path d="M82.0208 158.818V169H80.1912V160.349H75.7367V169H73.9071V158.818H82.0208ZM87.4783 169.149C86.7326 169.149 86.0863 168.985 85.5394 168.657C84.9925 168.329 84.5683 167.87 84.2667 167.28C83.9684 166.69 83.8192 166 83.8192 165.212C83.8192 164.423 83.9684 163.732 84.2667 163.138C84.5683 162.545 84.9925 162.085 85.5394 161.756C86.0863 161.428 86.7326 161.264 87.4783 161.264C88.2241 161.264 88.8704 161.428 89.4173 161.756C89.9641 162.085 90.3867 162.545 90.685 163.138C90.9866 163.732 91.1374 164.423 91.1374 165.212C91.1374 166 90.9866 166.69 90.685 167.28C90.3867 167.87 89.9641 168.329 89.4173 168.657C88.8704 168.985 88.2241 169.149 87.4783 169.149ZM87.4883 167.707C87.8926 167.707 88.2307 167.596 88.5025 167.374C88.7743 167.149 88.9764 166.847 89.109 166.469C89.2449 166.092 89.3129 165.671 89.3129 165.207C89.3129 164.739 89.2449 164.317 89.109 163.939C88.9764 163.558 88.7743 163.254 88.5025 163.029C88.2307 162.804 87.8926 162.691 87.4883 162.691C87.074 162.691 86.7293 162.804 86.4542 163.029C86.1824 163.254 85.9786 163.558 85.8427 163.939C85.7101 164.317 85.6438 164.739 85.6438 165.207C85.6438 165.671 85.7101 166.092 85.8427 166.469C85.9786 166.847 86.1824 167.149 86.4542 167.374C86.7293 167.596 87.074 167.707 87.4883 167.707ZM91.9888 171.217V167.518H92.5953C92.7578 167.393 92.8936 167.222 93.003 167.006C93.1124 166.788 93.2019 166.531 93.2715 166.236C93.3444 165.937 93.4041 165.604 93.4505 165.237C93.4969 164.865 93.5383 164.466 93.5748 164.038L93.7935 161.364H99.312V167.518H100.495V171.217H98.7551V169H93.7587V171.217H91.9888ZM94.4448 167.518H97.5918V162.815H95.3546L95.2353 164.038C95.169 164.847 95.0811 165.54 94.9718 166.116C94.8624 166.693 94.6867 167.161 94.4448 167.518ZM101.839 171.864V161.364H103.609V162.626H103.713C103.806 162.441 103.937 162.244 104.106 162.035C104.275 161.823 104.504 161.642 104.792 161.493C105.08 161.34 105.448 161.264 105.896 161.264C106.486 161.264 107.018 161.415 107.491 161.717C107.969 162.015 108.347 162.457 108.625 163.044C108.907 163.627 109.048 164.343 109.048 165.192C109.048 166.03 108.91 166.743 108.635 167.33C108.36 167.916 107.985 168.364 107.511 168.672C107.037 168.98 106.5 169.134 105.901 169.134C105.463 169.134 105.1 169.061 104.812 168.915C104.523 168.77 104.291 168.594 104.116 168.388C103.943 168.18 103.809 167.982 103.713 167.797H103.638V171.864H101.839ZM103.604 165.182C103.604 165.676 103.673 166.108 103.812 166.479C103.955 166.851 104.159 167.141 104.424 167.349C104.692 167.555 105.017 167.658 105.398 167.658C105.796 167.658 106.129 167.552 106.398 167.339C106.666 167.124 106.868 166.831 107.004 166.46C107.143 166.085 107.213 165.659 107.213 165.182C107.213 164.708 107.145 164.287 107.009 163.919C106.873 163.551 106.671 163.263 106.403 163.054C106.134 162.845 105.799 162.741 105.398 162.741C105.014 162.741 104.688 162.842 104.419 163.044C104.151 163.246 103.947 163.53 103.808 163.894C103.672 164.259 103.604 164.688 103.604 165.182ZM113.92 169.149C113.174 169.149 112.528 168.985 111.981 168.657C111.434 168.329 111.01 167.87 110.708 167.28C110.41 166.69 110.261 166 110.261 165.212C110.261 164.423 110.41 163.732 110.708 163.138C111.01 162.545 111.434 162.085 111.981 161.756C112.528 161.428 113.174 161.264 113.92 161.264C114.665 161.264 115.312 161.428 115.859 161.756C116.406 162.085 116.828 162.545 117.126 163.138C117.428 163.732 117.579 164.423 117.579 165.212C117.579 166 117.428 166.69 117.126 167.28C116.828 167.87 116.406 168.329 115.859 168.657C115.312 168.985 114.665 169.149 113.92 169.149ZM113.93 167.707C114.334 167.707 114.672 167.596 114.944 167.374C115.216 167.149 115.418 166.847 115.55 166.469C115.686 166.092 115.754 165.671 115.754 165.207C115.754 164.739 115.686 164.317 115.55 163.939C115.418 163.558 115.216 163.254 114.944 163.029C114.672 162.804 114.334 162.691 113.93 162.691C113.515 162.691 113.171 162.804 112.896 163.029C112.624 163.254 112.42 163.558 112.284 163.939C112.152 164.317 112.085 164.739 112.085 165.207C112.085 165.671 112.152 166.092 112.284 166.469C112.42 166.847 112.624 167.149 112.896 167.374C113.171 167.596 113.515 167.707 113.93 167.707ZM125.226 158.54L125.853 159.703C125.631 159.895 125.382 160.035 125.107 160.121C124.832 160.207 124.509 160.263 124.138 160.29C123.77 160.313 123.332 160.33 122.825 160.339C122.255 160.353 121.789 160.46 121.428 160.663C121.067 160.865 120.79 161.171 120.598 161.582C120.406 161.99 120.28 162.51 120.22 163.143H120.305C120.543 162.676 120.878 162.32 121.309 162.075C121.74 161.829 122.245 161.707 122.825 161.707C123.458 161.707 124.017 161.849 124.501 162.134C124.988 162.416 125.367 162.825 125.639 163.362C125.914 163.899 126.052 164.549 126.052 165.311C126.052 166.097 125.904 166.778 125.609 167.354C125.314 167.928 124.895 168.37 124.351 168.682C123.811 168.993 123.17 169.149 122.427 169.149C121.688 169.149 121.045 168.988 120.498 168.667C119.955 168.342 119.534 167.863 119.236 167.23C118.941 166.594 118.793 165.81 118.793 164.879V164.192C118.793 162.396 119.128 161.055 119.797 160.17C120.467 159.286 121.46 158.835 122.775 158.818C123.166 158.812 123.516 158.81 123.824 158.813C124.136 158.817 124.408 158.802 124.64 158.768C124.872 158.735 125.067 158.659 125.226 158.54ZM122.437 167.707C122.805 167.707 123.123 167.613 123.392 167.424C123.66 167.232 123.866 166.96 124.008 166.609C124.154 166.257 124.227 165.841 124.227 165.361C124.227 164.887 124.154 164.484 124.008 164.153C123.863 163.818 123.655 163.563 123.387 163.387C123.118 163.211 122.799 163.124 122.427 163.124C122.149 163.124 121.899 163.173 121.677 163.273C121.455 163.372 121.266 163.518 121.11 163.71C120.954 163.902 120.835 164.136 120.752 164.411C120.669 164.686 120.624 165.003 120.618 165.361C120.618 166.08 120.78 166.652 121.105 167.076C121.43 167.497 121.874 167.707 122.437 167.707ZM132.828 164.436V165.913H128.761V164.436H132.828ZM129.318 161.364V169H127.583V161.364H129.318ZM134.006 161.364V169H132.276V161.364H134.006ZM139.208 169.149C138.442 169.149 137.781 168.99 137.224 168.672C136.671 168.35 136.245 167.896 135.946 167.31C135.648 166.72 135.499 166.025 135.499 165.227C135.499 164.441 135.648 163.752 135.946 163.158C136.248 162.562 136.669 162.098 137.209 161.766C137.749 161.432 138.384 161.264 139.113 161.264C139.584 161.264 140.028 161.34 140.446 161.493C140.867 161.642 141.238 161.874 141.559 162.189C141.884 162.504 142.139 162.905 142.325 163.392C142.511 163.876 142.603 164.453 142.603 165.122V165.674H136.344V164.461H140.878C140.875 164.116 140.8 163.81 140.654 163.541C140.509 163.269 140.305 163.056 140.043 162.9C139.784 162.744 139.483 162.666 139.138 162.666C138.77 162.666 138.447 162.756 138.169 162.935C137.89 163.11 137.673 163.342 137.517 163.631C137.365 163.916 137.287 164.229 137.284 164.57V165.629C137.284 166.073 137.365 166.455 137.527 166.773C137.69 167.088 137.917 167.33 138.208 167.499C138.5 167.664 138.842 167.747 139.233 167.747C139.494 167.747 139.731 167.711 139.944 167.638C140.156 167.562 140.34 167.451 140.495 167.305C140.651 167.159 140.769 166.978 140.848 166.763L142.529 166.952C142.423 167.396 142.221 167.784 141.922 168.115C141.627 168.443 141.249 168.698 140.789 168.881C140.328 169.06 139.801 169.149 139.208 169.149ZM147.507 169.149C146.741 169.149 146.08 168.99 145.523 168.672C144.969 168.35 144.544 167.896 144.245 167.31C143.947 166.72 143.798 166.025 143.798 165.227C143.798 164.441 143.947 163.752 144.245 163.158C144.547 162.562 144.968 162.098 145.508 161.766C146.048 161.432 146.683 161.264 147.412 161.264C147.883 161.264 148.327 161.34 148.744 161.493C149.165 161.642 149.537 161.874 149.858 162.189C150.183 162.504 150.438 162.905 150.624 163.392C150.809 163.876 150.902 164.453 150.902 165.122V165.674H144.643V164.461H149.177C149.174 164.116 149.099 163.81 148.953 163.541C148.807 163.269 148.604 163.056 148.342 162.9C148.083 162.744 147.782 162.666 147.437 162.666C147.069 162.666 146.746 162.756 146.468 162.935C146.189 163.11 145.972 163.342 145.816 163.631C145.664 163.916 145.586 164.229 145.583 164.57V165.629C145.583 166.073 145.664 166.455 145.826 166.773C145.989 167.088 146.216 167.33 146.507 167.499C146.799 167.664 147.14 167.747 147.531 167.747C147.793 167.747 148.03 167.711 148.242 167.638C148.454 167.562 148.638 167.451 148.794 167.305C148.95 167.159 149.068 166.978 149.147 166.763L150.828 166.952C150.722 167.396 150.519 167.784 150.221 168.115C149.926 168.443 149.548 168.698 149.088 168.881C148.627 169.06 148.1 169.149 147.507 169.149Z" fill="#A6C81E"/>
</svg>
