<svg width="224" height="216" viewBox="0 0 224 216" fill="none" xmlns="http://www.w3.org/2000/svg">
<rect width="224" height="216" rx="20" fill="black" fill-opacity="0.03"/>
<path d="M30.358 47.4659V43.9062H31.0142C31.2396 43.7008 31.4517 43.4107 31.6506 43.0362C31.8527 42.6584 32.0234 42.1546 32.1626 41.5249C32.3052 40.8918 32.3996 40.0881 32.446 39.1136L32.6648 34.8182H38.7102V43.9062H39.8835V47.446H38.7102V45H31.5312V47.4659H30.358ZM32.4858 43.9062H37.5369V35.9119H33.7784L33.6193 39.1136C33.5795 39.8561 33.5099 40.5289 33.4105 41.1321C33.3111 41.732 33.1835 42.264 33.0277 42.728C32.8719 43.1887 32.6913 43.5814 32.4858 43.9062ZM44.6898 45.1591C44.0004 45.1591 43.3955 44.995 42.8752 44.6669C42.3581 44.3388 41.9538 43.8797 41.6621 43.2898C41.3738 42.6998 41.2296 42.0104 41.2296 41.2216C41.2296 40.4261 41.3738 39.7318 41.6621 39.1385C41.9538 38.5452 42.3581 38.0845 42.8752 37.7564C43.3955 37.4283 44.0004 37.2642 44.6898 37.2642C45.3792 37.2642 45.9824 37.4283 46.4995 37.7564C47.0198 38.0845 47.4242 38.5452 47.7125 39.1385C48.0042 39.7318 48.15 40.4261 48.15 41.2216C48.15 42.0104 48.0042 42.6998 47.7125 43.2898C47.4242 43.8797 47.0198 44.3388 46.4995 44.6669C45.9824 44.995 45.3792 45.1591 44.6898 45.1591ZM44.6898 44.1051C45.2135 44.1051 45.6444 43.9709 45.9824 43.7024C46.3205 43.4339 46.5707 43.081 46.7331 42.6435C46.8955 42.206 46.9767 41.732 46.9767 41.2216C46.9767 40.7112 46.8955 40.2356 46.7331 39.7947C46.5707 39.3539 46.3205 38.9976 45.9824 38.7259C45.6444 38.4541 45.2135 38.3182 44.6898 38.3182C44.1661 38.3182 43.7353 38.4541 43.3972 38.7259C43.0591 38.9976 42.8089 39.3539 42.6465 39.7947C42.4841 40.2356 42.4029 40.7112 42.4029 41.2216C42.4029 41.732 42.4841 42.206 42.6465 42.6435C42.8089 43.081 43.0591 43.4339 43.3972 43.7024C43.7353 43.9709 44.1661 44.1051 44.6898 44.1051ZM55.6087 34.5L56.2053 35.2159C55.9732 35.4413 55.7048 35.5987 55.3999 35.6882C55.0949 35.7777 54.7502 35.8324 54.3658 35.8523C53.9813 35.8722 53.5537 35.892 53.0831 35.9119C52.5528 35.9318 52.1136 36.0611 51.7656 36.2997C51.4176 36.5384 51.1491 36.883 50.9602 37.3338C50.7713 37.7846 50.6503 38.3381 50.5973 38.9943H50.6967C50.9553 38.517 51.3132 38.1657 51.7706 37.9403C52.228 37.715 52.7185 37.6023 53.2422 37.6023C53.8388 37.6023 54.3757 37.7415 54.853 38.0199C55.3303 38.2983 55.7081 38.7109 55.9865 39.2578C56.2649 39.8047 56.4041 40.4792 56.4041 41.2812C56.4041 42.08 56.2616 42.7694 55.9766 43.3494C55.6948 43.9295 55.2988 44.3769 54.7884 44.6918C54.2813 45.0033 53.6863 45.1591 53.0036 45.1591C52.3208 45.1591 51.7225 44.9983 51.2088 44.6768C50.6951 44.352 50.2957 43.8714 50.0107 43.2351C49.7256 42.5954 49.5831 41.8049 49.5831 40.8636V40.0483C49.5831 38.348 49.8714 37.0587 50.4482 36.1804C51.0282 35.3021 51.8999 34.848 53.0632 34.8182C53.4742 34.8049 53.8404 34.8016 54.1619 34.8082C54.4834 34.8149 54.7635 34.8 55.0021 34.7635C55.2408 34.727 55.4429 34.6392 55.6087 34.5ZM53.0036 44.1051C53.4643 44.1051 53.8603 43.9891 54.1918 43.7571C54.5265 43.5251 54.7834 43.1986 54.9624 42.7777C55.1413 42.3535 55.2308 41.8546 55.2308 41.2812C55.2308 40.7244 55.1397 40.2505 54.9574 39.8594C54.7784 39.4683 54.5215 39.17 54.1868 38.9645C53.852 38.759 53.451 38.6562 52.9837 38.6562C52.6423 38.6562 52.3357 38.7143 52.0639 38.8303C51.7921 38.9463 51.5601 39.117 51.3679 39.3423C51.1757 39.5677 51.0265 39.8428 50.9205 40.1676C50.8177 40.4924 50.763 40.8636 50.7564 41.2812C50.7564 42.1364 50.9569 42.8208 51.358 43.3345C51.759 43.8482 52.3075 44.1051 53.0036 44.1051ZM60.446 45.179C59.9621 45.179 59.523 45.0878 59.1286 44.9055C58.7341 44.7199 58.4209 44.4531 58.1889 44.1051C57.9569 43.7538 57.8409 43.3295 57.8409 42.8324C57.8409 42.3949 57.9271 42.0402 58.0994 41.7685C58.2718 41.4934 58.5021 41.2779 58.7905 41.1222C59.0788 40.9664 59.397 40.8504 59.745 40.7741C60.0964 40.6946 60.4493 40.6316 60.804 40.5852C61.268 40.5256 61.6442 40.4808 61.9325 40.451C62.2242 40.4179 62.4363 40.3632 62.5689 40.2869C62.7048 40.2107 62.7727 40.0781 62.7727 39.8892V39.8494C62.7727 39.3589 62.6385 38.9777 62.37 38.706C62.1049 38.4342 61.7022 38.2983 61.1619 38.2983C60.6018 38.2983 60.1626 38.4209 59.8445 38.6662C59.5263 38.9115 59.3026 39.1733 59.1733 39.4517L58.0597 39.054C58.2585 38.59 58.5237 38.2287 58.8551 37.9702C59.1899 37.7083 59.5545 37.526 59.9489 37.4233C60.3466 37.3172 60.7377 37.2642 61.1222 37.2642C61.3674 37.2642 61.6491 37.294 61.9673 37.3537C62.2888 37.41 62.5987 37.5277 62.897 37.7067C63.1986 37.8857 63.4489 38.1558 63.6477 38.517C63.8466 38.8783 63.946 39.3622 63.946 39.9688V45H62.7727V43.9659H62.7131C62.6335 44.1316 62.5009 44.3089 62.3153 44.4979C62.1297 44.6868 61.8828 44.8475 61.5746 44.9801C61.2663 45.1127 60.8902 45.179 60.446 45.179ZM60.625 44.125C61.089 44.125 61.4801 44.0339 61.7983 43.8516C62.1198 43.6693 62.3617 43.4339 62.5241 43.1456C62.6899 42.8572 62.7727 42.554 62.7727 42.2358V41.1619C62.723 41.2216 62.6136 41.2763 62.4446 41.326C62.2789 41.3724 62.0866 41.4138 61.8679 41.4503C61.6525 41.4834 61.442 41.5133 61.2365 41.5398C61.0343 41.563 60.8703 41.5829 60.7443 41.5994C60.4394 41.6392 60.1544 41.7038 59.8892 41.7933C59.6274 41.8795 59.4152 42.0104 59.2528 42.1861C59.0938 42.3584 59.0142 42.5937 59.0142 42.892C59.0142 43.2997 59.165 43.608 59.4666 43.8168C59.7715 44.0223 60.1577 44.125 60.625 44.125ZM66.0875 45V37.3636H69.2097C70.0317 37.3636 70.6846 37.5492 71.1685 37.9205C71.6524 38.2917 71.8944 38.7822 71.8944 39.392C71.8944 39.8561 71.7568 40.2157 71.4817 40.4709C71.2066 40.7228 70.8536 40.8935 70.4228 40.983C70.7045 41.0227 70.9779 41.1222 71.2431 41.2812C71.5115 41.4403 71.7336 41.6591 71.9093 41.9375C72.0849 42.2126 72.1728 42.5507 72.1728 42.9517C72.1728 43.3428 72.0733 43.6925 71.8745 44.0007C71.6756 44.3089 71.3906 44.5526 71.0194 44.7315C70.6481 44.9105 70.204 45 69.687 45H66.0875ZM67.2012 43.9261H69.687C70.0913 43.9261 70.4078 43.83 70.6365 43.6378C70.8652 43.4455 70.9796 43.1837 70.9796 42.8523C70.9796 42.4579 70.8652 42.148 70.6365 41.9226C70.4078 41.6939 70.0913 41.5795 69.687 41.5795H67.2012V43.9261ZM67.2012 40.5653H69.2097C69.5246 40.5653 69.7947 40.5223 70.0201 40.4361C70.2454 40.3466 70.4178 40.2206 70.5371 40.0582C70.6597 39.8925 70.7211 39.697 70.7211 39.4716C70.7211 39.1501 70.5868 38.8982 70.3184 38.7159C70.0499 38.5303 69.6803 38.4375 69.2097 38.4375H67.2012V40.5653ZM73.2727 45V43.9062H73.5511C73.7798 43.9062 73.9704 43.8615 74.1229 43.772C74.2753 43.6792 74.398 43.5185 74.4908 43.2898C74.5869 43.0578 74.6598 42.7363 74.7095 42.3253C74.7625 41.911 74.8007 41.384 74.8239 40.7443L74.9631 37.3636H80.054V45H78.8807V38.4574H76.0767L75.9574 41.1818C75.9309 41.8082 75.8745 42.3601 75.7884 42.8374C75.7055 43.3113 75.5779 43.709 75.4055 44.0305C75.2365 44.352 75.0111 44.594 74.7294 44.7564C74.4477 44.9188 74.0947 45 73.6705 45H73.2727ZM85.4084 45.1591C84.6726 45.1591 84.0379 44.9967 83.5043 44.6719C82.974 44.3438 82.5646 43.8864 82.2763 43.2997C81.9912 42.7098 81.8487 42.0237 81.8487 41.2415C81.8487 40.4593 81.9912 39.7699 82.2763 39.1733C82.5646 38.5734 82.9657 38.1061 83.4794 37.7713C83.9964 37.4332 84.5997 37.2642 85.2891 37.2642C85.6868 37.2642 86.0795 37.3305 86.4673 37.4631C86.8551 37.5956 87.2081 37.8111 87.5263 38.1094C87.8445 38.4044 88.098 38.7955 88.2869 39.2827C88.4759 39.7699 88.5703 40.3698 88.5703 41.0824V41.5795H82.6839V40.5653H87.3771C87.3771 40.1345 87.291 39.75 87.1186 39.4119C86.9496 39.0739 86.7076 38.8071 86.3928 38.6115C86.0812 38.416 85.7133 38.3182 85.2891 38.3182C84.8217 38.3182 84.4174 38.4342 84.076 38.6662C83.7379 38.8949 83.4777 39.1932 83.2955 39.5611C83.1132 39.929 83.022 40.3234 83.022 40.7443V41.4205C83.022 41.9972 83.1214 42.486 83.3203 42.8871C83.5225 43.2848 83.8026 43.5881 84.1605 43.7969C84.5185 44.0024 84.9344 44.1051 85.4084 44.1051C85.7166 44.1051 85.995 44.062 86.2436 43.9759C86.4955 43.8864 86.7126 43.7538 86.8949 43.5781C87.0772 43.3991 87.218 43.1771 87.3175 42.9119L88.451 43.2301C88.3317 43.6146 88.1312 43.9527 87.8494 44.2443C87.5677 44.5327 87.2197 44.758 86.8054 44.9205C86.3911 45.0795 85.9254 45.1591 85.4084 45.1591ZM95.4659 40.6449V41.7386H91.25V40.6449H95.4659ZM91.5284 37.3636V45H90.3551V37.3636H91.5284ZM96.3608 37.3636V45H95.1875V37.3636H96.3608ZM101.606 45.1591C100.916 45.1591 100.312 44.995 99.7912 44.6669C99.2741 44.3388 98.8698 43.8797 98.5781 43.2898C98.2898 42.6998 98.1456 42.0104 98.1456 41.2216C98.1456 40.4261 98.2898 39.7318 98.5781 39.1385C98.8698 38.5452 99.2741 38.0845 99.7912 37.7564C100.312 37.4283 100.916 37.2642 101.606 37.2642C102.295 37.2642 102.898 37.4283 103.415 37.7564C103.936 38.0845 104.34 38.5452 104.629 39.1385C104.92 39.7318 105.066 40.4261 105.066 41.2216C105.066 42.0104 104.92 42.6998 104.629 43.2898C104.34 43.8797 103.936 44.3388 103.415 44.6669C102.898 44.995 102.295 45.1591 101.606 45.1591ZM101.606 44.1051C102.129 44.1051 102.56 43.9709 102.898 43.7024C103.237 43.4339 103.487 43.081 103.649 42.6435C103.812 42.206 103.893 41.732 103.893 41.2216C103.893 40.7112 103.812 40.2356 103.649 39.7947C103.487 39.3539 103.237 38.9976 102.898 38.7259C102.56 38.4541 102.129 38.3182 101.606 38.3182C101.082 38.3182 100.651 38.4541 100.313 38.7259C99.9751 38.9976 99.7249 39.3539 99.5625 39.7947C99.4001 40.2356 99.3189 40.7112 99.3189 41.2216C99.3189 41.732 99.4001 42.206 99.5625 42.6435C99.7249 43.081 99.9751 43.4339 100.313 43.7024C100.651 43.9709 101.082 44.1051 101.606 44.1051ZM114.354 34.8182V45H113.121V36.1108H113.062L110.576 37.7614V36.5085L113.121 34.8182H114.354ZM117.282 45V44.1051L120.643 40.4261C121.038 39.9953 121.363 39.6207 121.618 39.3026C121.873 38.9811 122.062 38.6795 122.184 38.3977C122.31 38.1127 122.373 37.8144 122.373 37.5028C122.373 37.1449 122.287 36.835 122.115 36.5732C121.946 36.3113 121.714 36.1091 121.419 35.9666C121.124 35.8241 120.792 35.7528 120.425 35.7528C120.033 35.7528 119.692 35.834 119.4 35.9964C119.112 36.1555 118.888 36.3793 118.729 36.6676C118.573 36.956 118.496 37.294 118.496 37.6818H117.322C117.322 37.0852 117.46 36.5616 117.735 36.1108C118.01 35.66 118.385 35.3087 118.858 35.0568C119.336 34.8049 119.871 34.679 120.464 34.679C121.061 34.679 121.59 34.8049 122.05 35.0568C122.511 35.3087 122.872 35.6484 123.134 36.076C123.396 36.5036 123.527 36.9792 123.527 37.5028C123.527 37.8774 123.459 38.2436 123.323 38.6016C123.19 38.9562 122.958 39.3523 122.627 39.7898C122.299 40.224 121.843 40.7543 121.26 41.3807L118.973 43.8267V43.9062H123.706V45H117.282ZM130.89 43.2699L134.569 37.3636H135.921V45H134.748V39.0938L131.089 45H129.716V37.3636H130.89V43.2699ZM141.729 40.7045V41.7983H137.692V40.7045H141.729ZM138.686 37.3636V45H137.513V37.3636H138.686ZM144.076 45.1591C143.386 45.1591 142.781 44.995 142.261 44.6669C141.744 44.3388 141.34 43.8797 141.048 43.2898C140.76 42.6998 140.615 42.0104 140.615 41.2216C140.615 40.4261 140.76 39.7318 141.048 39.1385C141.34 38.5452 141.744 38.0845 142.261 37.7564C142.781 37.4283 143.386 37.2642 144.076 37.2642C144.765 37.2642 145.368 37.4283 145.885 37.7564C146.406 38.0845 146.81 38.5452 147.098 39.1385C147.39 39.7318 147.536 40.4261 147.536 41.2216C147.536 42.0104 147.39 42.6998 147.098 43.2898C146.81 43.8797 146.406 44.3388 145.885 44.6669C145.368 44.995 144.765 45.1591 144.076 45.1591ZM144.076 44.1051C144.599 44.1051 145.03 43.9709 145.368 43.7024C145.706 43.4339 145.957 43.081 146.119 42.6435C146.281 42.206 146.363 41.732 146.363 41.2216C146.363 40.7112 146.281 40.2356 146.119 39.7947C145.957 39.3539 145.706 38.9976 145.368 38.7259C145.03 38.4541 144.599 38.3182 144.076 38.3182C143.552 38.3182 143.121 38.4541 142.783 38.7259C142.445 38.9976 142.195 39.3539 142.032 39.7947C141.87 40.2356 141.789 40.7112 141.789 41.2216C141.789 41.732 141.87 42.206 142.032 42.6435C142.195 43.081 142.445 43.4339 142.783 43.7024C143.121 43.9709 143.552 44.1051 144.076 44.1051ZM148.769 45V43.9062H149.047C149.276 43.9062 149.467 43.8615 149.619 43.772C149.771 43.6792 149.894 43.5185 149.987 43.2898C150.083 43.0578 150.156 42.7363 150.206 42.3253C150.259 41.911 150.297 41.384 150.32 40.7443L150.459 37.3636H155.55V45H154.377V38.4574H151.573L151.453 41.1818C151.427 41.8082 151.371 42.3601 151.284 42.8374C151.202 43.3113 151.074 43.709 150.902 44.0305C150.733 44.352 150.507 44.594 150.225 44.7564C149.944 44.9188 149.591 45 149.167 45H148.769ZM162.297 45V38.4375H160.268C159.811 38.4375 159.451 38.5436 159.189 38.7557C158.927 38.9678 158.797 39.2595 158.797 39.6307C158.797 39.9953 158.914 40.282 159.15 40.4908C159.388 40.6996 159.715 40.804 160.129 40.804H162.595V41.8977H160.129C159.612 41.8977 159.166 41.8066 158.792 41.6243C158.417 41.442 158.129 41.1818 157.926 40.8438C157.724 40.5024 157.623 40.098 157.623 39.6307C157.623 39.16 157.729 38.7557 157.941 38.4176C158.154 38.0795 158.457 37.8194 158.851 37.6371C159.249 37.4548 159.721 37.3636 160.268 37.3636H163.41V45H162.297ZM157.206 45L159.373 41.2017H160.646L158.478 45H157.206Z" fill="#838383"/>
<path d="M43.679 72.1847H41.4631C41.3778 71.7112 41.2192 71.2945 40.9872 70.9347C40.7552 70.5748 40.4711 70.2694 40.1349 70.0185C39.7988 69.7675 39.4223 69.5781 39.0057 69.4503C38.5938 69.3224 38.1558 69.2585 37.6918 69.2585C36.8537 69.2585 36.1032 69.4692 35.4403 69.8906C34.7822 70.312 34.2614 70.9299 33.8778 71.7443C33.4991 72.5587 33.3097 73.553 33.3097 74.7273C33.3097 75.911 33.4991 76.91 33.8778 77.7244C34.2614 78.5388 34.7846 79.1544 35.4474 79.571C36.1103 79.9877 36.8561 80.196 37.6847 80.196C38.1439 80.196 38.5795 80.1345 38.9915 80.0114C39.4081 79.8835 39.7846 79.6965 40.1207 79.4503C40.4569 79.2041 40.741 78.9034 40.973 78.5483C41.2098 78.1884 41.3731 77.7765 41.4631 77.3125L43.679 77.3196C43.5606 78.0346 43.331 78.6927 42.9901 79.294C42.6539 79.8906 42.2206 80.4067 41.6903 80.8423C41.1648 81.2732 40.5634 81.607 39.8864 81.8438C39.2093 82.0805 38.4706 82.1989 37.6705 82.1989C36.411 82.1989 35.2888 81.9006 34.304 81.304C33.3191 80.7027 32.5426 79.8433 31.9744 78.7259C31.411 77.6084 31.1293 76.2756 31.1293 74.7273C31.1293 73.1742 31.4134 71.8414 31.9815 70.7287C32.5497 69.6113 33.3262 68.7543 34.3111 68.1577C35.2959 67.5563 36.4157 67.2557 37.6705 67.2557C38.4422 67.2557 39.1619 67.367 39.8295 67.5895C40.5019 67.8073 41.1056 68.1293 41.6406 68.5554C42.1757 68.9768 42.6184 69.4929 42.9688 70.1037C43.3191 70.7098 43.5559 71.4034 43.679 72.1847ZM45.5238 72.9233V71.0909H54.7283V72.9233H51.1701V82H49.0962V72.9233H45.5238ZM58.3168 86.0909C57.9995 86.0909 57.7107 86.0649 57.4503 86.0128C57.1899 85.9654 56.9957 85.9134 56.8679 85.8565L57.3793 84.1165C57.7675 84.2206 58.1132 84.2656 58.4162 84.2514C58.7192 84.2372 58.9867 84.1236 59.2188 83.9105C59.4555 83.6974 59.6638 83.3494 59.8438 82.8665L60.1065 82.142L56.1151 71.0909H58.3878L61.1506 79.5568H61.2642L64.027 71.0909H66.3068L61.8111 83.456C61.6027 84.0241 61.3376 84.5047 61.0156 84.8977C60.6937 85.2955 60.3101 85.5938 59.8651 85.7926C59.42 85.9915 58.9039 86.0909 58.3168 86.0909ZM66.3388 85.1463V80.1605H67.2266C67.4538 79.9522 67.6456 79.7036 67.8018 79.4148C67.9628 79.1259 68.0978 78.7827 68.2067 78.3849C68.3203 77.9872 68.415 77.5232 68.4908 76.9929C68.5665 76.4579 68.6328 75.8471 68.6896 75.1605L69.0305 71.0909H76.4453V80.1605H78.1214V85.1463H76.0476V82H68.4411V85.1463H66.3388ZM69.4993 80.1605H74.3714V72.9091H70.9339L70.7067 75.1605C70.5978 76.3063 70.4605 77.3007 70.2947 78.1435C70.129 78.9815 69.8639 79.6539 69.4993 80.1605ZM84.8988 82.2202C83.824 82.2202 82.8983 81.9905 82.1218 81.5312C81.35 81.0672 80.7534 80.4162 80.332 79.5781C79.9154 78.7353 79.707 77.7481 79.707 76.6165C79.707 75.4991 79.9154 74.5142 80.332 73.6619C80.7534 72.8097 81.3406 72.1444 82.0934 71.6662C82.851 71.188 83.7364 70.9489 84.7496 70.9489C85.3652 70.9489 85.9618 71.0507 86.5394 71.2543C87.1171 71.4579 87.6355 71.7775 88.0948 72.2131C88.5541 72.6487 88.9163 73.2145 89.1815 73.9105C89.4466 74.6018 89.5792 75.4422 89.5792 76.4318V77.1847H80.9073V75.5938H87.4982C87.4982 75.035 87.3846 74.5402 87.1573 74.1094C86.93 73.6738 86.6104 73.3305 86.1985 73.0795C85.7913 72.8286 85.3131 72.7031 84.7638 72.7031C84.1673 72.7031 83.6464 72.8499 83.2013 73.1435C82.761 73.4323 82.4201 73.8111 82.1786 74.2798C81.9419 74.7438 81.8235 75.2481 81.8235 75.7926V77.0355C81.8235 77.7647 81.9513 78.3849 82.207 78.8963C82.4674 79.4077 82.8297 79.7983 83.2937 80.0682C83.7577 80.3333 84.2998 80.4659 84.9201 80.4659C85.3226 80.4659 85.6895 80.4091 86.021 80.2955C86.3524 80.1771 86.6388 80.0019 86.8803 79.7699C87.1218 79.5379 87.3065 79.2514 87.4343 78.9105L89.4442 79.2727C89.2833 79.8646 88.9944 80.383 88.5778 80.8281C88.1658 81.2685 87.6474 81.6117 87.0224 81.858C86.4021 82.0994 85.6942 82.2202 84.8988 82.2202ZM99.3288 75.6293V77.4688H93.4197V75.6293H99.3288ZM94.0163 71.0909V82H91.9354V71.0909H94.0163ZM100.813 71.0909V82H98.7393V71.0909H100.813ZM112.411 71.0909V82H110.337V71.0909H112.411ZM111.509 76.1548V77.9872C111.183 78.1198 110.837 78.2382 110.472 78.3423C110.108 78.4418 109.724 78.5199 109.322 78.5767C108.919 78.6335 108.5 78.6619 108.065 78.6619C106.715 78.6619 105.643 78.3329 104.847 77.6747C104.052 77.0118 103.654 75.9986 103.654 74.6349V71.0696H105.721V74.6349C105.721 75.151 105.816 75.5701 106.005 75.892C106.194 76.214 106.464 76.4508 106.815 76.6023C107.165 76.7538 107.582 76.8295 108.065 76.8295C108.704 76.8295 109.293 76.7704 109.833 76.652C110.378 76.5289 110.936 76.3632 111.509 76.1548ZM119.938 82.2202C118.863 82.2202 117.937 81.9905 117.161 81.5312C116.389 81.0672 115.792 80.4162 115.371 79.5781C114.954 78.7353 114.746 77.7481 114.746 76.6165C114.746 75.4991 114.954 74.5142 115.371 73.6619C115.792 72.8097 116.38 72.1444 117.132 71.6662C117.89 71.188 118.775 70.9489 119.789 70.9489C120.404 70.9489 121.001 71.0507 121.578 71.2543C122.156 71.4579 122.675 71.7775 123.134 72.2131C123.593 72.6487 123.955 73.2145 124.221 73.9105C124.486 74.6018 124.618 75.4422 124.618 76.4318V77.1847H115.946V75.5938H122.537C122.537 75.035 122.424 74.5402 122.196 74.1094C121.969 73.6738 121.65 73.3305 121.238 73.0795C120.83 72.8286 120.352 72.7031 119.803 72.7031C119.206 72.7031 118.685 72.8499 118.24 73.1435C117.8 73.4323 117.459 73.8111 117.218 74.2798C116.981 74.7438 116.863 75.2481 116.863 75.7926V77.0355C116.863 77.7647 116.99 78.3849 117.246 78.8963C117.507 79.4077 117.869 79.7983 118.333 80.0682C118.797 80.3333 119.339 80.4659 119.959 80.4659C120.362 80.4659 120.729 80.4091 121.06 80.2955C121.391 80.1771 121.678 80.0019 121.919 79.7699C122.161 79.5379 122.346 79.2514 122.473 78.9105L124.483 79.2727C124.322 79.8646 124.033 80.383 123.617 80.8281C123.205 81.2685 122.686 81.6117 122.061 81.858C121.441 82.0994 120.733 82.2202 119.938 82.2202ZM131.57 82.2202C130.514 82.2202 129.605 81.9811 128.842 81.5028C128.085 81.0199 127.502 80.3546 127.095 79.5071C126.688 78.6596 126.484 77.6889 126.484 76.5952C126.484 75.4872 126.693 74.5095 127.109 73.6619C127.526 72.8097 128.113 72.1444 128.871 71.6662C129.628 71.188 130.521 70.9489 131.548 70.9489C132.377 70.9489 133.116 71.1027 133.764 71.4105C134.413 71.7135 134.936 72.1397 135.334 72.6889C135.736 73.2382 135.975 73.8797 136.051 74.6136H133.984C133.871 74.1023 133.61 73.6619 133.203 73.2926C132.801 72.9233 132.261 72.7386 131.584 72.7386C130.992 72.7386 130.473 72.8949 130.028 73.2074C129.588 73.5152 129.245 73.9555 128.999 74.5284C128.752 75.0966 128.629 75.7689 128.629 76.5455C128.629 77.3409 128.75 78.0275 128.991 78.6051C129.233 79.1828 129.574 79.6302 130.014 79.9474C130.459 80.2647 130.982 80.4233 131.584 80.4233C131.986 80.4233 132.351 80.3499 132.678 80.2031C133.009 80.0516 133.286 79.8362 133.509 79.5568C133.736 79.2775 133.894 78.9413 133.984 78.5483H136.051C135.975 79.2538 135.746 79.8835 135.362 80.4375C134.979 80.9915 134.465 81.4271 133.821 81.7443C133.182 82.0616 132.431 82.2202 131.57 82.2202ZM138.322 82V71.0909H140.446V75.6648H141.468L145.069 71.0909H147.697L143.471 76.3963L147.747 82H145.112L141.824 77.6392H140.446V82H138.322ZM152.571 82.2415C151.88 82.2415 151.255 82.1136 150.696 81.858C150.137 81.5975 149.695 81.2211 149.368 80.7287C149.046 80.2363 148.885 79.6326 148.885 78.9176C148.885 78.3021 149.003 77.7955 149.24 77.3977C149.477 77 149.796 76.6851 150.199 76.4531C150.601 76.2211 151.051 76.0459 151.548 75.9276C152.045 75.8092 152.552 75.7192 153.068 75.6577C153.722 75.5819 154.252 75.5204 154.659 75.473C155.066 75.4209 155.362 75.3381 155.547 75.2244C155.732 75.1108 155.824 74.9261 155.824 74.6705V74.6207C155.824 74.0005 155.649 73.5199 155.298 73.179C154.953 72.8381 154.437 72.6676 153.75 72.6676C153.035 72.6676 152.472 72.8262 152.06 73.1435C151.652 73.456 151.371 73.804 151.214 74.1875L149.219 73.733C149.455 73.0701 149.801 72.535 150.256 72.1278C150.715 71.7159 151.243 71.4176 151.839 71.233C152.436 71.0436 153.063 70.9489 153.722 70.9489C154.157 70.9489 154.619 71.0009 155.107 71.1051C155.599 71.2045 156.058 71.3892 156.484 71.6591C156.915 71.929 157.268 72.3149 157.543 72.8168C157.817 73.3139 157.955 73.9602 157.955 74.7557V82H155.881V80.5085H155.795C155.658 80.7831 155.452 81.053 155.178 81.3182C154.903 81.5833 154.55 81.8035 154.119 81.9787C153.688 82.1539 153.172 82.2415 152.571 82.2415ZM153.033 80.5369C153.62 80.5369 154.122 80.4209 154.538 80.1889C154.96 79.9569 155.279 79.6539 155.497 79.2798C155.72 78.901 155.831 78.4962 155.831 78.0653V76.6591C155.755 76.7348 155.608 76.8059 155.391 76.8722C155.178 76.9337 154.934 76.9882 154.659 77.0355C154.384 77.0781 154.117 77.1184 153.857 77.1562C153.596 77.1894 153.378 77.2178 153.203 77.2415C152.791 77.2936 152.415 77.3812 152.074 77.5043C151.738 77.6274 151.468 77.8049 151.264 78.0369C151.065 78.2642 150.966 78.5672 150.966 78.946C150.966 79.4716 151.16 79.8693 151.548 80.1392C151.937 80.4044 152.431 80.5369 153.033 80.5369ZM167.289 82V72.902H164.675C164.055 72.902 163.572 73.0464 163.226 73.3352C162.881 73.6241 162.708 74.0028 162.708 74.4716C162.708 74.9356 162.866 75.3097 163.184 75.5938C163.506 75.8731 163.955 76.0128 164.533 76.0128H167.907V77.7315H164.533C163.728 77.7315 163.032 77.599 162.445 77.3338C161.863 77.0639 161.413 76.6828 161.096 76.1903C160.783 75.6979 160.627 75.1155 160.627 74.4432C160.627 73.7566 160.788 73.1648 161.11 72.6676C161.436 72.1657 161.903 71.7775 162.509 71.5028C163.12 71.2282 163.842 71.0909 164.675 71.0909H169.284V82H167.289ZM160.13 82L163.205 76.4886H165.378L162.303 82H160.13ZM31.4276 108V97.0909H35.9517C37.1828 97.0909 38.1581 97.3537 38.8778 97.8793C39.5975 98.4001 39.9574 99.108 39.9574 100.003C39.9574 100.642 39.7538 101.149 39.3466 101.523C38.9394 101.897 38.3996 102.148 37.7273 102.276C38.215 102.332 38.6624 102.479 39.0696 102.716C39.4768 102.948 39.8035 103.26 40.0497 103.653C40.3007 104.046 40.4261 104.515 40.4261 105.06C40.4261 105.637 40.277 106.149 39.9787 106.594C39.6804 107.034 39.2472 107.38 38.679 107.631C38.1155 107.877 37.4361 108 36.6406 108H31.4276ZM33.4233 106.224H36.6406C37.1662 106.224 37.5781 106.099 37.8764 105.848C38.1747 105.597 38.3239 105.256 38.3239 104.825C38.3239 104.319 38.1747 103.921 37.8764 103.632C37.5781 103.339 37.1662 103.192 36.6406 103.192H33.4233V106.224ZM33.4233 101.636H35.973C36.3707 101.636 36.7116 101.58 36.9957 101.466C37.2846 101.352 37.5047 101.191 37.6562 100.983C37.8125 100.77 37.8906 100.519 37.8906 100.23C37.8906 99.8087 37.7178 99.4796 37.3722 99.2429C37.0265 99.0062 36.553 98.8878 35.9517 98.8878H33.4233V101.636ZM47.4574 108.22C46.3826 108.22 45.4569 107.991 44.6804 107.531C43.9086 107.067 43.312 106.416 42.8906 105.578C42.474 104.735 42.2656 103.748 42.2656 102.616C42.2656 101.499 42.474 100.514 42.8906 99.6619C43.312 98.8097 43.8991 98.1444 44.652 97.6662C45.4096 97.188 46.295 96.9489 47.3082 96.9489C47.9238 96.9489 48.5204 97.0507 49.098 97.2543C49.6757 97.4579 50.1941 97.7775 50.6534 98.2131C51.1127 98.6487 51.4749 99.2145 51.7401 99.9105C52.0052 100.602 52.1378 101.442 52.1378 102.432V103.185H43.4659V101.594H50.0568C50.0568 101.035 49.9432 100.54 49.7159 100.109C49.4886 99.6738 49.169 99.3305 48.7571 99.0795C48.3499 98.8286 47.8717 98.7031 47.3224 98.7031C46.7259 98.7031 46.205 98.8499 45.7599 99.1435C45.3196 99.4323 44.9787 99.8111 44.7372 100.28C44.5005 100.744 44.3821 101.248 44.3821 101.793V103.036C44.3821 103.765 44.5099 104.385 44.7656 104.896C45.026 105.408 45.3883 105.798 45.8523 106.068C46.3163 106.333 46.8584 106.466 47.4787 106.466C47.8812 106.466 48.2481 106.409 48.5795 106.295C48.911 106.177 49.1974 106.002 49.4389 105.77C49.6804 105.538 49.8651 105.251 49.9929 104.911L52.0028 105.273C51.8419 105.865 51.553 106.383 51.1364 106.828C50.7244 107.268 50.206 107.612 49.581 107.858C48.9607 108.099 48.2528 108.22 47.4574 108.22ZM59.0891 108.22C58.0333 108.22 57.1242 107.981 56.3619 107.503C55.6043 107.02 55.0219 106.355 54.6147 105.507C54.2075 104.66 54.0039 103.689 54.0039 102.595C54.0039 101.487 54.2122 100.509 54.6289 99.6619C55.0456 98.8097 55.6327 98.1444 56.3903 97.6662C57.1478 97.188 58.0404 96.9489 59.0678 96.9489C59.8964 96.9489 60.6351 97.1027 61.2837 97.4105C61.9324 97.7135 62.4556 98.1397 62.8533 98.6889C63.2558 99.2382 63.4949 99.8797 63.5707 100.614H61.5039C61.3903 100.102 61.1299 99.6619 60.7227 99.2926C60.3202 98.9233 59.7804 98.7386 59.1033 98.7386C58.5115 98.7386 57.993 98.8949 57.5479 99.2074C57.1076 99.5152 56.7643 99.9555 56.5181 100.528C56.2719 101.097 56.1488 101.769 56.1488 102.545C56.1488 103.341 56.2695 104.027 56.511 104.605C56.7525 105.183 57.0934 105.63 57.5337 105.947C57.9788 106.265 58.502 106.423 59.1033 106.423C59.5058 106.423 59.8704 106.35 60.1971 106.203C60.5285 106.052 60.8055 105.836 61.0281 105.557C61.2553 105.277 61.4139 104.941 61.5039 104.548H63.5707C63.4949 105.254 63.2653 105.884 62.8817 106.438C62.4982 106.991 61.9845 107.427 61.3406 107.744C60.7013 108.062 59.9509 108.22 59.0891 108.22ZM73.2351 101.629V103.469H67.326V101.629H73.2351ZM67.9226 97.0909V108H65.8416V97.0909H67.9226ZM74.7195 97.0909V108H72.6456V97.0909H74.7195ZM80.7351 108.241C80.0438 108.241 79.4188 108.114 78.8601 107.858C78.3014 107.598 77.8587 107.221 77.532 106.729C77.21 106.236 77.049 105.633 77.049 104.918C77.049 104.302 77.1674 103.795 77.4041 103.398C77.6409 103 77.9605 102.685 78.3629 102.453C78.7654 102.221 79.2152 102.046 79.7124 101.928C80.2095 101.809 80.7161 101.719 81.2322 101.658C81.8857 101.582 82.416 101.52 82.8232 101.473C83.2304 101.421 83.5263 101.338 83.7109 101.224C83.8956 101.111 83.9879 100.926 83.9879 100.67V100.621C83.9879 100 83.8127 99.5199 83.4624 99.179C83.1167 98.8381 82.6006 98.6676 81.9141 98.6676C81.1991 98.6676 80.6357 98.8262 80.2237 99.1435C79.8165 99.456 79.5348 99.804 79.3786 100.188L77.3828 99.733C77.6196 99.0701 77.9652 98.535 78.4197 98.1278C78.879 97.7159 79.407 97.4176 80.0036 97.233C80.6001 97.0436 81.2275 96.9489 81.8857 96.9489C82.3213 96.9489 82.7829 97.0009 83.2706 97.1051C83.763 97.2045 84.2223 97.3892 84.6484 97.6591C85.0793 97.929 85.4321 98.3149 85.7067 98.8168C85.9813 99.3139 86.1186 99.9602 86.1186 100.756V108H84.0447V106.509H83.9595C83.8222 106.783 83.6162 107.053 83.3416 107.318C83.067 107.583 82.7143 107.804 82.2834 107.979C81.8525 108.154 81.3364 108.241 80.7351 108.241ZM81.1967 106.537C81.7839 106.537 82.2857 106.421 82.7024 106.189C83.1238 105.957 83.4434 105.654 83.6612 105.28C83.8838 104.901 83.995 104.496 83.995 104.065V102.659C83.9193 102.735 83.7725 102.806 83.5547 102.872C83.3416 102.934 83.0978 102.988 82.8232 103.036C82.5485 103.078 82.281 103.118 82.0206 103.156C81.7602 103.189 81.5424 103.218 81.3672 103.241C80.9553 103.294 80.5788 103.381 80.2379 103.504C79.9018 103.627 79.6319 103.805 79.4283 104.037C79.2294 104.264 79.13 104.567 79.13 104.946C79.13 105.472 79.3241 105.869 79.7124 106.139C80.1006 106.404 80.5954 106.537 81.1967 106.537ZM90.3462 108.135C89.958 108.135 89.6242 107.998 89.3448 107.723C89.0655 107.444 88.9258 107.107 88.9258 106.714C88.9258 106.326 89.0655 105.995 89.3448 105.72C89.6242 105.441 89.958 105.301 90.3462 105.301C90.7345 105.301 91.0683 105.441 91.3477 105.72C91.627 105.995 91.7667 106.326 91.7667 106.714C91.7667 106.975 91.7004 107.214 91.5678 107.432C91.44 107.645 91.2695 107.815 91.0565 107.943C90.8434 108.071 90.6067 108.135 90.3462 108.135ZM105.089 95.1307H107.71C108.817 95.1307 109.8 95.3745 110.657 95.8622C111.519 96.3452 112.193 97.0246 112.681 97.9006C113.174 98.7718 113.42 99.785 113.42 100.94C113.42 102.086 113.174 103.092 112.681 103.959C112.193 104.825 111.519 105.502 110.657 105.99C109.8 106.473 108.817 106.714 107.71 106.714H105.089C103.981 106.714 102.996 106.475 102.134 105.997C101.272 105.514 100.595 104.842 100.103 103.98C99.6153 103.118 99.3714 102.112 99.3714 100.962C99.3714 99.8016 99.6177 98.7836 100.11 97.9077C100.603 97.0317 101.277 96.3499 102.134 95.8622C102.996 95.3745 103.981 95.1307 105.089 95.1307ZM105.089 97.027C104.331 97.027 103.685 97.1856 103.15 97.5028C102.615 97.8153 102.205 98.2652 101.921 98.8523C101.637 99.4394 101.495 100.143 101.495 100.962C101.495 101.762 101.637 102.451 101.921 103.028C102.21 103.601 102.622 104.044 103.157 104.357C103.692 104.664 104.336 104.818 105.089 104.818H107.717C108.469 104.818 109.111 104.664 109.641 104.357C110.176 104.044 110.584 103.599 110.863 103.021C111.147 102.439 111.289 101.745 111.289 100.94C111.289 100.131 111.147 99.4347 110.863 98.8523C110.584 98.2652 110.176 97.8153 109.641 97.5028C109.111 97.1856 108.469 97.027 107.717 97.027H105.089ZM107.482 93.1989V108.597H105.33V93.1989H107.482ZM120.574 108.22C119.551 108.22 118.658 107.986 117.896 107.517C117.134 107.048 116.542 106.393 116.12 105.55C115.699 104.707 115.488 103.722 115.488 102.595C115.488 101.464 115.699 100.474 116.12 99.6264C116.542 98.7789 117.134 98.1207 117.896 97.652C118.658 97.1832 119.551 96.9489 120.574 96.9489C121.596 96.9489 122.489 97.1832 123.251 97.652C124.013 98.1207 124.605 98.7789 125.027 99.6264C125.448 100.474 125.659 101.464 125.659 102.595C125.659 103.722 125.448 104.707 125.027 105.55C124.605 106.393 124.013 107.048 123.251 107.517C122.489 107.986 121.596 108.22 120.574 108.22ZM120.581 106.438C121.243 106.438 121.793 106.262 122.228 105.912C122.664 105.562 122.986 105.095 123.194 104.513C123.407 103.93 123.514 103.289 123.514 102.588C123.514 101.892 123.407 101.253 123.194 100.67C122.986 100.083 122.664 99.6122 122.228 99.2571C121.793 98.902 121.243 98.7244 120.581 98.7244C119.913 98.7244 119.359 98.902 118.919 99.2571C118.483 99.6122 118.159 100.083 117.946 100.67C117.737 101.253 117.633 101.892 117.633 102.588C117.633 103.289 117.737 103.93 117.946 104.513C118.159 105.095 118.483 105.562 118.919 105.912C119.359 106.262 119.913 106.438 120.581 106.438ZM126.715 98.9233V97.0909H135.92V98.9233H132.362V108H130.288V98.9233H126.715ZM142.253 108.22C141.23 108.22 140.338 107.986 139.576 107.517C138.813 107.048 138.221 106.393 137.8 105.55C137.379 104.707 137.168 103.722 137.168 102.595C137.168 101.464 137.379 100.474 137.8 99.6264C138.221 98.7789 138.813 98.1207 139.576 97.652C140.338 97.1832 141.23 96.9489 142.253 96.9489C143.276 96.9489 144.168 97.1832 144.931 97.652C145.693 98.1207 146.285 98.7789 146.706 99.6264C147.128 100.474 147.338 101.464 147.338 102.595C147.338 103.722 147.128 104.707 146.706 105.55C146.285 106.393 145.693 107.048 144.931 107.517C144.168 107.986 143.276 108.22 142.253 108.22ZM142.26 106.438C142.923 106.438 143.472 106.262 143.908 105.912C144.344 105.562 144.666 105.095 144.874 104.513C145.087 103.93 145.194 103.289 145.194 102.588C145.194 101.892 145.087 101.253 144.874 100.67C144.666 100.083 144.344 99.6122 143.908 99.2571C143.472 98.902 142.923 98.7244 142.26 98.7244C141.593 98.7244 141.039 98.902 140.598 99.2571C140.163 99.6122 139.838 100.083 139.625 100.67C139.417 101.253 139.313 101.892 139.313 102.588C139.313 103.289 139.417 103.93 139.625 104.513C139.838 105.095 140.163 105.562 140.598 105.912C141.039 106.262 141.593 106.438 142.26 106.438ZM157.083 105.024L161.891 97.0909H164.178V108H162.097V100.06L157.31 108H155.002V97.0909H157.083V105.024ZM168.453 108.135C168.065 108.135 167.731 107.998 167.452 107.723C167.173 107.444 167.033 107.107 167.033 106.714C167.033 106.326 167.173 105.995 167.452 105.72C167.731 105.441 168.065 105.301 168.453 105.301C168.842 105.301 169.176 105.441 169.455 105.72C169.734 105.995 169.874 106.326 169.874 106.714C169.874 106.975 169.808 107.214 169.675 107.432C169.547 107.645 169.377 107.815 169.164 107.943C168.951 108.071 168.714 108.135 168.453 108.135ZM173.759 108.135C173.371 108.135 173.037 107.998 172.757 107.723C172.478 107.444 172.338 107.107 172.338 106.714C172.338 106.326 172.478 105.995 172.757 105.72C173.037 105.441 173.371 105.301 173.759 105.301C174.147 105.301 174.481 105.441 174.76 105.72C175.04 105.995 175.179 106.326 175.179 106.714C175.179 106.975 175.113 107.214 174.98 107.432C174.853 107.645 174.682 107.815 174.469 107.943C174.256 108.071 174.019 108.135 173.759 108.135ZM179.071 108.135C178.683 108.135 178.349 107.998 178.07 107.723C177.791 107.444 177.651 107.107 177.651 106.714C177.651 106.326 177.791 105.995 178.07 105.72C178.349 105.441 178.683 105.301 179.071 105.301C179.46 105.301 179.793 105.441 180.073 105.72C180.352 105.995 180.492 106.326 180.492 106.714C180.492 106.975 180.426 107.214 180.293 107.432C180.165 107.645 179.995 107.815 179.782 107.943C179.569 108.071 179.332 108.135 179.071 108.135Z" fill="#181818"/>
<rect x="31" y="143" width="162" height="42" rx="9" stroke="#A6C81E" stroke-width="2"/>
<path d="M82.0208 158.818V169H80.1912V160.349H75.7367V169H73.9071V158.818H82.0208ZM87.4783 169.149C86.7326 169.149 86.0863 168.985 85.5394 168.657C84.9925 168.329 84.5683 167.87 84.2667 167.28C83.9684 166.69 83.8192 166 83.8192 165.212C83.8192 164.423 83.9684 163.732 84.2667 163.138C84.5683 162.545 84.9925 162.085 85.5394 161.756C86.0863 161.428 86.7326 161.264 87.4783 161.264C88.2241 161.264 88.8704 161.428 89.4173 161.756C89.9641 162.085 90.3867 162.545 90.685 163.138C90.9866 163.732 91.1374 164.423 91.1374 165.212C91.1374 166 90.9866 166.69 90.685 167.28C90.3867 167.87 89.9641 168.329 89.4173 168.657C88.8704 168.985 88.2241 169.149 87.4783 169.149ZM87.4883 167.707C87.8926 167.707 88.2307 167.596 88.5025 167.374C88.7743 167.149 88.9764 166.847 89.109 166.469C89.2449 166.092 89.3129 165.671 89.3129 165.207C89.3129 164.739 89.2449 164.317 89.109 163.939C88.9764 163.558 88.7743 163.254 88.5025 163.029C88.2307 162.804 87.8926 162.691 87.4883 162.691C87.074 162.691 86.7293 162.804 86.4542 163.029C86.1824 163.254 85.9786 163.558 85.8427 163.939C85.7101 164.317 85.6438 164.739 85.6438 165.207C85.6438 165.671 85.7101 166.092 85.8427 166.469C85.9786 166.847 86.1824 167.149 86.4542 167.374C86.7293 167.596 87.074 167.707 87.4883 167.707ZM91.9888 171.217V167.518H92.5953C92.7578 167.393 92.8936 167.222 93.003 167.006C93.1124 166.788 93.2019 166.531 93.2715 166.236C93.3444 165.937 93.4041 165.604 93.4505 165.237C93.4969 164.865 93.5383 164.466 93.5748 164.038L93.7935 161.364H99.312V167.518H100.495V171.217H98.7551V169H93.7587V171.217H91.9888ZM94.4448 167.518H97.5918V162.815H95.3546L95.2353 164.038C95.169 164.847 95.0811 165.54 94.9718 166.116C94.8624 166.693 94.6867 167.161 94.4448 167.518ZM101.839 171.864V161.364H103.609V162.626H103.713C103.806 162.441 103.937 162.244 104.106 162.035C104.275 161.823 104.504 161.642 104.792 161.493C105.08 161.34 105.448 161.264 105.896 161.264C106.486 161.264 107.018 161.415 107.491 161.717C107.969 162.015 108.347 162.457 108.625 163.044C108.907 163.627 109.048 164.343 109.048 165.192C109.048 166.03 108.91 166.743 108.635 167.33C108.36 167.916 107.985 168.364 107.511 168.672C107.037 168.98 106.5 169.134 105.901 169.134C105.463 169.134 105.1 169.061 104.812 168.915C104.523 168.77 104.291 168.594 104.116 168.388C103.943 168.18 103.809 167.982 103.713 167.797H103.638V171.864H101.839ZM103.604 165.182C103.604 165.676 103.673 166.108 103.812 166.479C103.955 166.851 104.159 167.141 104.424 167.349C104.692 167.555 105.017 167.658 105.398 167.658C105.796 167.658 106.129 167.552 106.398 167.339C106.666 167.124 106.868 166.831 107.004 166.46C107.143 166.085 107.213 165.659 107.213 165.182C107.213 164.708 107.145 164.287 107.009 163.919C106.873 163.551 106.671 163.263 106.403 163.054C106.134 162.845 105.799 162.741 105.398 162.741C105.014 162.741 104.688 162.842 104.419 163.044C104.151 163.246 103.947 163.53 103.808 163.894C103.672 164.259 103.604 164.688 103.604 165.182ZM113.92 169.149C113.174 169.149 112.528 168.985 111.981 168.657C111.434 168.329 111.01 167.87 110.708 167.28C110.41 166.69 110.261 166 110.261 165.212C110.261 164.423 110.41 163.732 110.708 163.138C111.01 162.545 111.434 162.085 111.981 161.756C112.528 161.428 113.174 161.264 113.92 161.264C114.665 161.264 115.312 161.428 115.859 161.756C116.406 162.085 116.828 162.545 117.126 163.138C117.428 163.732 117.579 164.423 117.579 165.212C117.579 166 117.428 166.69 117.126 167.28C116.828 167.87 116.406 168.329 115.859 168.657C115.312 168.985 114.665 169.149 113.92 169.149ZM113.93 167.707C114.334 167.707 114.672 167.596 114.944 167.374C115.216 167.149 115.418 166.847 115.55 166.469C115.686 166.092 115.754 165.671 115.754 165.207C115.754 164.739 115.686 164.317 115.55 163.939C115.418 163.558 115.216 163.254 114.944 163.029C114.672 162.804 114.334 162.691 113.93 162.691C113.515 162.691 113.171 162.804 112.896 163.029C112.624 163.254 112.42 163.558 112.284 163.939C112.152 164.317 112.085 164.739 112.085 165.207C112.085 165.671 112.152 166.092 112.284 166.469C112.42 166.847 112.624 167.149 112.896 167.374C113.171 167.596 113.515 167.707 113.93 167.707ZM125.226 158.54L125.853 159.703C125.631 159.895 125.382 160.035 125.107 160.121C124.832 160.207 124.509 160.263 124.138 160.29C123.77 160.313 123.332 160.33 122.825 160.339C122.255 160.353 121.789 160.46 121.428 160.663C121.067 160.865 120.79 161.171 120.598 161.582C120.406 161.99 120.28 162.51 120.22 163.143H120.305C120.543 162.676 120.878 162.32 121.309 162.075C121.74 161.829 122.245 161.707 122.825 161.707C123.458 161.707 124.017 161.849 124.501 162.134C124.988 162.416 125.367 162.825 125.639 163.362C125.914 163.899 126.052 164.549 126.052 165.311C126.052 166.097 125.904 166.778 125.609 167.354C125.314 167.928 124.895 168.37 124.351 168.682C123.811 168.993 123.17 169.149 122.427 169.149C121.688 169.149 121.045 168.988 120.498 168.667C119.955 168.342 119.534 167.863 119.236 167.23C118.941 166.594 118.793 165.81 118.793 164.879V164.192C118.793 162.396 119.128 161.055 119.797 160.17C120.467 159.286 121.46 158.835 122.775 158.818C123.166 158.812 123.516 158.81 123.824 158.813C124.136 158.817 124.408 158.802 124.64 158.768C124.872 158.735 125.067 158.659 125.226 158.54ZM122.437 167.707C122.805 167.707 123.123 167.613 123.392 167.424C123.66 167.232 123.866 166.96 124.008 166.609C124.154 166.257 124.227 165.841 124.227 165.361C124.227 164.887 124.154 164.484 124.008 164.153C123.863 163.818 123.655 163.563 123.387 163.387C123.118 163.211 122.799 163.124 122.427 163.124C122.149 163.124 121.899 163.173 121.677 163.273C121.455 163.372 121.266 163.518 121.11 163.71C120.954 163.902 120.835 164.136 120.752 164.411C120.669 164.686 120.624 165.003 120.618 165.361C120.618 166.08 120.78 166.652 121.105 167.076C121.43 167.497 121.874 167.707 122.437 167.707ZM132.828 164.436V165.913H128.761V164.436H132.828ZM129.318 161.364V169H127.583V161.364H129.318ZM134.006 161.364V169H132.276V161.364H134.006ZM139.208 169.149C138.442 169.149 137.781 168.99 137.224 168.672C136.671 168.35 136.245 167.896 135.946 167.31C135.648 166.72 135.499 166.025 135.499 165.227C135.499 164.441 135.648 163.752 135.946 163.158C136.248 162.562 136.669 162.098 137.209 161.766C137.749 161.432 138.384 161.264 139.113 161.264C139.584 161.264 140.028 161.34 140.446 161.493C140.867 161.642 141.238 161.874 141.559 162.189C141.884 162.504 142.139 162.905 142.325 163.392C142.511 163.876 142.603 164.453 142.603 165.122V165.674H136.344V164.461H140.878C140.875 164.116 140.8 163.81 140.654 163.541C140.509 163.269 140.305 163.056 140.043 162.9C139.784 162.744 139.483 162.666 139.138 162.666C138.77 162.666 138.447 162.756 138.169 162.935C137.89 163.11 137.673 163.342 137.517 163.631C137.365 163.916 137.287 164.229 137.284 164.57V165.629C137.284 166.073 137.365 166.455 137.527 166.773C137.69 167.088 137.917 167.33 138.208 167.499C138.5 167.664 138.842 167.747 139.233 167.747C139.494 167.747 139.731 167.711 139.944 167.638C140.156 167.562 140.34 167.451 140.495 167.305C140.651 167.159 140.769 166.978 140.848 166.763L142.529 166.952C142.423 167.396 142.221 167.784 141.922 168.115C141.627 168.443 141.249 168.698 140.789 168.881C140.328 169.06 139.801 169.149 139.208 169.149ZM147.507 169.149C146.741 169.149 146.08 168.99 145.523 168.672C144.969 168.35 144.544 167.896 144.245 167.31C143.947 166.72 143.798 166.025 143.798 165.227C143.798 164.441 143.947 163.752 144.245 163.158C144.547 162.562 144.968 162.098 145.508 161.766C146.048 161.432 146.683 161.264 147.412 161.264C147.883 161.264 148.327 161.34 148.744 161.493C149.165 161.642 149.537 161.874 149.858 162.189C150.183 162.504 150.438 162.905 150.624 163.392C150.809 163.876 150.902 164.453 150.902 165.122V165.674H144.643V164.461H149.177C149.174 164.116 149.099 163.81 148.953 163.541C148.807 163.269 148.604 163.056 148.342 162.9C148.083 162.744 147.782 162.666 147.437 162.666C147.069 162.666 146.746 162.756 146.468 162.935C146.189 163.11 145.972 163.342 145.816 163.631C145.664 163.916 145.586 164.229 145.583 164.57V165.629C145.583 166.073 145.664 166.455 145.826 166.773C145.989 167.088 146.216 167.33 146.507 167.499C146.799 167.664 147.14 167.747 147.531 167.747C147.793 167.747 148.03 167.711 148.242 167.638C148.454 167.562 148.638 167.451 148.794 167.305C148.95 167.159 149.068 166.978 149.147 166.763L150.828 166.952C150.722 167.396 150.519 167.784 150.221 168.115C149.926 168.443 149.548 168.698 149.088 168.881C148.627 169.06 148.1 169.149 147.507 169.149Z" fill="#A6C81E"/>
</svg>
