<svg width="224" height="216" viewBox="0 0 224 216" fill="none" xmlns="http://www.w3.org/2000/svg">
<rect width="224" height="216" rx="20" fill="black" fill-opacity="0.03"/>
<path d="M30.358 47.4659V43.9062H31.0142C31.2396 43.7008 31.4517 43.4107 31.6506 43.0362C31.8527 42.6584 32.0234 42.1546 32.1626 41.5249C32.3052 40.8918 32.3996 40.0881 32.446 39.1136L32.6648 34.8182H38.7102V43.9062H39.8835V47.446H38.7102V45H31.5312V47.4659H30.358ZM32.4858 43.9062H37.5369V35.9119H33.7784L33.6193 39.1136C33.5795 39.8561 33.5099 40.5289 33.4105 41.1321C33.3111 41.732 33.1835 42.264 33.0277 42.728C32.8719 43.1887 32.6913 43.5814 32.4858 43.9062ZM44.6898 45.1591C44.0004 45.1591 43.3955 44.995 42.8752 44.6669C42.3581 44.3388 41.9538 43.8797 41.6621 43.2898C41.3738 42.6998 41.2296 42.0104 41.2296 41.2216C41.2296 40.4261 41.3738 39.7318 41.6621 39.1385C41.9538 38.5452 42.3581 38.0845 42.8752 37.7564C43.3955 37.4283 44.0004 37.2642 44.6898 37.2642C45.3792 37.2642 45.9824 37.4283 46.4995 37.7564C47.0198 38.0845 47.4242 38.5452 47.7125 39.1385C48.0042 39.7318 48.15 40.4261 48.15 41.2216C48.15 42.0104 48.0042 42.6998 47.7125 43.2898C47.4242 43.8797 47.0198 44.3388 46.4995 44.6669C45.9824 44.995 45.3792 45.1591 44.6898 45.1591ZM44.6898 44.1051C45.2135 44.1051 45.6444 43.9709 45.9824 43.7024C46.3205 43.4339 46.5707 43.081 46.7331 42.6435C46.8955 42.206 46.9767 41.732 46.9767 41.2216C46.9767 40.7112 46.8955 40.2356 46.7331 39.7947C46.5707 39.3539 46.3205 38.9976 45.9824 38.7259C45.6444 38.4541 45.2135 38.3182 44.6898 38.3182C44.1661 38.3182 43.7353 38.4541 43.3972 38.7259C43.0591 38.9976 42.8089 39.3539 42.6465 39.7947C42.4841 40.2356 42.4029 40.7112 42.4029 41.2216C42.4029 41.732 42.4841 42.206 42.6465 42.6435C42.8089 43.081 43.0591 43.4339 43.3972 43.7024C43.7353 43.9709 44.1661 44.1051 44.6898 44.1051ZM55.6087 34.5L56.2053 35.2159C55.9732 35.4413 55.7048 35.5987 55.3999 35.6882C55.0949 35.7777 54.7502 35.8324 54.3658 35.8523C53.9813 35.8722 53.5537 35.892 53.0831 35.9119C52.5528 35.9318 52.1136 36.0611 51.7656 36.2997C51.4176 36.5384 51.1491 36.883 50.9602 37.3338C50.7713 37.7846 50.6503 38.3381 50.5973 38.9943H50.6967C50.9553 38.517 51.3132 38.1657 51.7706 37.9403C52.228 37.715 52.7185 37.6023 53.2422 37.6023C53.8388 37.6023 54.3757 37.7415 54.853 38.0199C55.3303 38.2983 55.7081 38.7109 55.9865 39.2578C56.2649 39.8047 56.4041 40.4792 56.4041 41.2812C56.4041 42.08 56.2616 42.7694 55.9766 43.3494C55.6948 43.9295 55.2988 44.3769 54.7884 44.6918C54.2813 45.0033 53.6863 45.1591 53.0036 45.1591C52.3208 45.1591 51.7225 44.9983 51.2088 44.6768C50.6951 44.352 50.2957 43.8714 50.0107 43.2351C49.7256 42.5954 49.5831 41.8049 49.5831 40.8636V40.0483C49.5831 38.348 49.8714 37.0587 50.4482 36.1804C51.0282 35.3021 51.8999 34.848 53.0632 34.8182C53.4742 34.8049 53.8404 34.8016 54.1619 34.8082C54.4834 34.8149 54.7635 34.8 55.0021 34.7635C55.2408 34.727 55.4429 34.6392 55.6087 34.5ZM53.0036 44.1051C53.4643 44.1051 53.8603 43.9891 54.1918 43.7571C54.5265 43.5251 54.7834 43.1986 54.9624 42.7777C55.1413 42.3535 55.2308 41.8546 55.2308 41.2812C55.2308 40.7244 55.1397 40.2505 54.9574 39.8594C54.7784 39.4683 54.5215 39.17 54.1868 38.9645C53.852 38.759 53.451 38.6562 52.9837 38.6562C52.6423 38.6562 52.3357 38.7143 52.0639 38.8303C51.7921 38.9463 51.5601 39.117 51.3679 39.3423C51.1757 39.5677 51.0265 39.8428 50.9205 40.1676C50.8177 40.4924 50.763 40.8636 50.7564 41.2812C50.7564 42.1364 50.9569 42.8208 51.358 43.3345C51.759 43.8482 52.3075 44.1051 53.0036 44.1051ZM60.446 45.179C59.9621 45.179 59.523 45.0878 59.1286 44.9055C58.7341 44.7199 58.4209 44.4531 58.1889 44.1051C57.9569 43.7538 57.8409 43.3295 57.8409 42.8324C57.8409 42.3949 57.9271 42.0402 58.0994 41.7685C58.2718 41.4934 58.5021 41.2779 58.7905 41.1222C59.0788 40.9664 59.397 40.8504 59.745 40.7741C60.0964 40.6946 60.4493 40.6316 60.804 40.5852C61.268 40.5256 61.6442 40.4808 61.9325 40.451C62.2242 40.4179 62.4363 40.3632 62.5689 40.2869C62.7048 40.2107 62.7727 40.0781 62.7727 39.8892V39.8494C62.7727 39.3589 62.6385 38.9777 62.37 38.706C62.1049 38.4342 61.7022 38.2983 61.1619 38.2983C60.6018 38.2983 60.1626 38.4209 59.8445 38.6662C59.5263 38.9115 59.3026 39.1733 59.1733 39.4517L58.0597 39.054C58.2585 38.59 58.5237 38.2287 58.8551 37.9702C59.1899 37.7083 59.5545 37.526 59.9489 37.4233C60.3466 37.3172 60.7377 37.2642 61.1222 37.2642C61.3674 37.2642 61.6491 37.294 61.9673 37.3537C62.2888 37.41 62.5987 37.5277 62.897 37.7067C63.1986 37.8857 63.4489 38.1558 63.6477 38.517C63.8466 38.8783 63.946 39.3622 63.946 39.9688V45H62.7727V43.9659H62.7131C62.6335 44.1316 62.5009 44.3089 62.3153 44.4979C62.1297 44.6868 61.8828 44.8475 61.5746 44.9801C61.2663 45.1127 60.8902 45.179 60.446 45.179ZM60.625 44.125C61.089 44.125 61.4801 44.0339 61.7983 43.8516C62.1198 43.6693 62.3617 43.4339 62.5241 43.1456C62.6899 42.8572 62.7727 42.554 62.7727 42.2358V41.1619C62.723 41.2216 62.6136 41.2763 62.4446 41.326C62.2789 41.3724 62.0866 41.4138 61.8679 41.4503C61.6525 41.4834 61.442 41.5133 61.2365 41.5398C61.0343 41.563 60.8703 41.5829 60.7443 41.5994C60.4394 41.6392 60.1544 41.7038 59.8892 41.7933C59.6274 41.8795 59.4152 42.0104 59.2528 42.1861C59.0938 42.3584 59.0142 42.5937 59.0142 42.892C59.0142 43.2997 59.165 43.608 59.4666 43.8168C59.7715 44.0223 60.1577 44.125 60.625 44.125ZM66.0875 45V37.3636H69.2097C70.0317 37.3636 70.6846 37.5492 71.1685 37.9205C71.6524 38.2917 71.8944 38.7822 71.8944 39.392C71.8944 39.8561 71.7568 40.2157 71.4817 40.4709C71.2066 40.7228 70.8536 40.8935 70.4228 40.983C70.7045 41.0227 70.9779 41.1222 71.2431 41.2812C71.5115 41.4403 71.7336 41.6591 71.9093 41.9375C72.0849 42.2126 72.1728 42.5507 72.1728 42.9517C72.1728 43.3428 72.0733 43.6925 71.8745 44.0007C71.6756 44.3089 71.3906 44.5526 71.0194 44.7315C70.6481 44.9105 70.204 45 69.687 45H66.0875ZM67.2012 43.9261H69.687C70.0913 43.9261 70.4078 43.83 70.6365 43.6378C70.8652 43.4455 70.9796 43.1837 70.9796 42.8523C70.9796 42.4579 70.8652 42.148 70.6365 41.9226C70.4078 41.6939 70.0913 41.5795 69.687 41.5795H67.2012V43.9261ZM67.2012 40.5653H69.2097C69.5246 40.5653 69.7947 40.5223 70.0201 40.4361C70.2454 40.3466 70.4178 40.2206 70.5371 40.0582C70.6597 39.8925 70.7211 39.697 70.7211 39.4716C70.7211 39.1501 70.5868 38.8982 70.3184 38.7159C70.0499 38.5303 69.6803 38.4375 69.2097 38.4375H67.2012V40.5653ZM73.2727 45V43.9062H73.5511C73.7798 43.9062 73.9704 43.8615 74.1229 43.772C74.2753 43.6792 74.398 43.5185 74.4908 43.2898C74.5869 43.0578 74.6598 42.7363 74.7095 42.3253C74.7625 41.911 74.8007 41.384 74.8239 40.7443L74.9631 37.3636H80.054V45H78.8807V38.4574H76.0767L75.9574 41.1818C75.9309 41.8082 75.8745 42.3601 75.7884 42.8374C75.7055 43.3113 75.5779 43.709 75.4055 44.0305C75.2365 44.352 75.0111 44.594 74.7294 44.7564C74.4477 44.9188 74.0947 45 73.6705 45H73.2727ZM85.4084 45.1591C84.6726 45.1591 84.0379 44.9967 83.5043 44.6719C82.974 44.3438 82.5646 43.8864 82.2763 43.2997C81.9912 42.7098 81.8487 42.0237 81.8487 41.2415C81.8487 40.4593 81.9912 39.7699 82.2763 39.1733C82.5646 38.5734 82.9657 38.1061 83.4794 37.7713C83.9964 37.4332 84.5997 37.2642 85.2891 37.2642C85.6868 37.2642 86.0795 37.3305 86.4673 37.4631C86.8551 37.5956 87.2081 37.8111 87.5263 38.1094C87.8445 38.4044 88.098 38.7955 88.2869 39.2827C88.4759 39.7699 88.5703 40.3698 88.5703 41.0824V41.5795H82.6839V40.5653H87.3771C87.3771 40.1345 87.291 39.75 87.1186 39.4119C86.9496 39.0739 86.7076 38.8071 86.3928 38.6115C86.0812 38.416 85.7133 38.3182 85.2891 38.3182C84.8217 38.3182 84.4174 38.4342 84.076 38.6662C83.7379 38.8949 83.4777 39.1932 83.2955 39.5611C83.1132 39.929 83.022 40.3234 83.022 40.7443V41.4205C83.022 41.9972 83.1214 42.486 83.3203 42.8871C83.5225 43.2848 83.8026 43.5881 84.1605 43.7969C84.5185 44.0024 84.9344 44.1051 85.4084 44.1051C85.7166 44.1051 85.995 44.062 86.2436 43.9759C86.4955 43.8864 86.7126 43.7538 86.8949 43.5781C87.0772 43.3991 87.218 43.1771 87.3175 42.9119L88.451 43.2301C88.3317 43.6146 88.1312 43.9527 87.8494 44.2443C87.5677 44.5327 87.2197 44.758 86.8054 44.9205C86.3911 45.0795 85.9254 45.1591 85.4084 45.1591ZM95.4659 40.6449V41.7386H91.25V40.6449H95.4659ZM91.5284 37.3636V45H90.3551V37.3636H91.5284ZM96.3608 37.3636V45H95.1875V37.3636H96.3608ZM101.606 45.1591C100.916 45.1591 100.312 44.995 99.7912 44.6669C99.2741 44.3388 98.8698 43.8797 98.5781 43.2898C98.2898 42.6998 98.1456 42.0104 98.1456 41.2216C98.1456 40.4261 98.2898 39.7318 98.5781 39.1385C98.8698 38.5452 99.2741 38.0845 99.7912 37.7564C100.312 37.4283 100.916 37.2642 101.606 37.2642C102.295 37.2642 102.898 37.4283 103.415 37.7564C103.936 38.0845 104.34 38.5452 104.629 39.1385C104.92 39.7318 105.066 40.4261 105.066 41.2216C105.066 42.0104 104.92 42.6998 104.629 43.2898C104.34 43.8797 103.936 44.3388 103.415 44.6669C102.898 44.995 102.295 45.1591 101.606 45.1591ZM101.606 44.1051C102.129 44.1051 102.56 43.9709 102.898 43.7024C103.237 43.4339 103.487 43.081 103.649 42.6435C103.812 42.206 103.893 41.732 103.893 41.2216C103.893 40.7112 103.812 40.2356 103.649 39.7947C103.487 39.3539 103.237 38.9976 102.898 38.7259C102.56 38.4541 102.129 38.3182 101.606 38.3182C101.082 38.3182 100.651 38.4541 100.313 38.7259C99.9751 38.9976 99.7249 39.3539 99.5625 39.7947C99.4001 40.2356 99.3189 40.7112 99.3189 41.2216C99.3189 41.732 99.4001 42.206 99.5625 42.6435C99.7249 43.081 99.9751 43.4339 100.313 43.7024C100.651 43.9709 101.082 44.1051 101.606 44.1051ZM114.354 34.8182V45H113.121V36.1108H113.062L110.576 37.7614V36.5085L113.121 34.8182H114.354ZM117.282 45V44.1051L120.643 40.4261C121.038 39.9953 121.363 39.6207 121.618 39.3026C121.873 38.9811 122.062 38.6795 122.184 38.3977C122.31 38.1127 122.373 37.8144 122.373 37.5028C122.373 37.1449 122.287 36.835 122.115 36.5732C121.946 36.3113 121.714 36.1091 121.419 35.9666C121.124 35.8241 120.792 35.7528 120.425 35.7528C120.033 35.7528 119.692 35.834 119.4 35.9964C119.112 36.1555 118.888 36.3793 118.729 36.6676C118.573 36.956 118.496 37.294 118.496 37.6818H117.322C117.322 37.0852 117.46 36.5616 117.735 36.1108C118.01 35.66 118.385 35.3087 118.858 35.0568C119.336 34.8049 119.871 34.679 120.464 34.679C121.061 34.679 121.59 34.8049 122.05 35.0568C122.511 35.3087 122.872 35.6484 123.134 36.076C123.396 36.5036 123.527 36.9792 123.527 37.5028C123.527 37.8774 123.459 38.2436 123.323 38.6016C123.19 38.9562 122.958 39.3523 122.627 39.7898C122.299 40.224 121.843 40.7543 121.26 41.3807L118.973 43.8267V43.9062H123.706V45H117.282ZM131.964 45.179C131.48 45.179 131.041 45.0878 130.646 44.9055C130.252 44.7199 129.939 44.4531 129.706 44.1051C129.474 43.7538 129.358 43.3295 129.358 42.8324C129.358 42.3949 129.445 42.0402 129.617 41.7685C129.789 41.4934 130.02 41.2779 130.308 41.1222C130.596 40.9664 130.915 40.8504 131.263 40.7741C131.614 40.6946 131.967 40.6316 132.322 40.5852C132.786 40.5256 133.162 40.4808 133.45 40.451C133.742 40.4179 133.954 40.3632 134.086 40.2869C134.222 40.2107 134.29 40.0781 134.29 39.8892V39.8494C134.29 39.3589 134.156 38.9777 133.888 38.706C133.622 38.4342 133.22 38.2983 132.68 38.2983C132.119 38.2983 131.68 38.4209 131.362 38.6662C131.044 38.9115 130.82 39.1733 130.691 39.4517L129.577 39.054C129.776 38.59 130.041 38.2287 130.373 37.9702C130.707 37.7083 131.072 37.526 131.466 37.4233C131.864 37.3172 132.255 37.2642 132.64 37.2642C132.885 37.2642 133.167 37.294 133.485 37.3537C133.806 37.41 134.116 37.5277 134.415 37.7067C134.716 37.8857 134.966 38.1558 135.165 38.517C135.364 38.8783 135.464 39.3622 135.464 39.9688V45H134.29V43.9659H134.231C134.151 44.1316 134.019 44.3089 133.833 44.4979C133.647 44.6868 133.4 44.8475 133.092 44.9801C132.784 45.1127 132.408 45.179 131.964 45.179ZM132.143 44.125C132.607 44.125 132.998 44.0339 133.316 43.8516C133.637 43.6693 133.879 43.4339 134.042 43.1456C134.207 42.8572 134.29 42.554 134.29 42.2358V41.1619C134.241 41.2216 134.131 41.2763 133.962 41.326C133.796 41.3724 133.604 41.4138 133.385 41.4503C133.17 41.4834 132.96 41.5133 132.754 41.5398C132.552 41.563 132.388 41.5829 132.262 41.5994C131.957 41.6392 131.672 41.7038 131.407 41.7933C131.145 41.8795 130.933 42.0104 130.77 42.1861C130.611 42.3584 130.532 42.5937 130.532 42.892C130.532 43.2997 130.683 43.608 130.984 43.8168C131.289 44.0223 131.675 44.125 132.143 44.125ZM137.605 45V37.3636H140.727C141.549 37.3636 142.202 37.5492 142.686 37.9205C143.17 38.2917 143.412 38.7822 143.412 39.392C143.412 39.8561 143.274 40.2157 142.999 40.4709C142.724 40.7228 142.371 40.8935 141.94 40.983C142.222 41.0227 142.496 41.1222 142.761 41.2812C143.029 41.4403 143.251 41.6591 143.427 41.9375C143.603 42.2126 143.69 42.5507 143.69 42.9517C143.69 43.3428 143.591 43.6925 143.392 44.0007C143.193 44.3089 142.908 44.5526 142.537 44.7315C142.166 44.9105 141.722 45 141.205 45H137.605ZM138.719 43.9261H141.205C141.609 43.9261 141.925 43.83 142.154 43.6378C142.383 43.4455 142.497 43.1837 142.497 42.8523C142.497 42.4579 142.383 42.148 142.154 41.9226C141.925 41.6939 141.609 41.5795 141.205 41.5795H138.719V43.9261ZM138.719 40.5653H140.727C141.042 40.5653 141.312 40.5223 141.538 40.4361C141.763 40.3466 141.935 40.2206 142.055 40.0582C142.177 39.8925 142.239 39.697 142.239 39.4716C142.239 39.1501 142.104 38.8982 141.836 38.7159C141.567 38.5303 141.198 38.4375 140.727 38.4375H138.719V40.5653ZM150.18 37.3636V38.4574H146.64V45H145.466V37.3636H150.18ZM152.648 47.8636C152.449 47.8636 152.272 47.8471 152.116 47.8139C151.96 47.7841 151.852 47.7543 151.793 47.7244L152.091 46.6903C152.376 46.7633 152.628 46.7898 152.847 46.7699C153.066 46.75 153.259 46.6522 153.428 46.4766C153.601 46.3042 153.758 46.0241 153.901 45.6364L154.119 45.0398L151.296 37.3636H152.568L154.676 43.4489H154.756L156.864 37.3636H158.137L154.895 46.1136C154.749 46.508 154.569 46.8345 154.353 47.093C154.138 47.3549 153.887 47.5488 153.602 47.6747C153.321 47.8007 153.003 47.8636 152.648 47.8636ZM162.514 45.1591C161.798 45.1591 161.182 44.9901 160.665 44.652C160.148 44.3139 159.75 43.8482 159.471 43.255C159.193 42.6617 159.054 41.9839 159.054 41.2216C159.054 40.446 159.196 39.7616 159.481 39.1683C159.77 38.5717 160.171 38.1061 160.684 37.7713C161.202 37.4332 161.805 37.2642 162.494 37.2642C163.031 37.2642 163.515 37.3636 163.946 37.5625C164.377 37.7614 164.73 38.0398 165.005 38.3977C165.28 38.7557 165.451 39.1733 165.517 39.6506H164.344C164.254 39.3026 164.055 38.9943 163.747 38.7259C163.442 38.4541 163.031 38.3182 162.514 38.3182C162.057 38.3182 161.656 38.4375 161.311 38.6761C160.97 38.9115 160.703 39.2446 160.51 39.6754C160.322 40.103 160.227 40.6051 160.227 41.1818C160.227 41.7718 160.32 42.2855 160.506 42.723C160.694 43.1605 160.96 43.5002 161.301 43.7422C161.646 43.9841 162.05 44.1051 162.514 44.1051C162.819 44.1051 163.096 44.0521 163.344 43.946C163.593 43.84 163.803 43.6875 163.976 43.4886C164.148 43.2898 164.271 43.0511 164.344 42.7727H165.517C165.451 43.2235 165.287 43.6295 165.025 43.9908C164.766 44.3487 164.423 44.6338 163.996 44.8459C163.571 45.0547 163.077 45.1591 162.514 45.1591ZM166.631 38.4574V37.3636H172.835V38.4574H170.329V45H169.156V38.4574H166.631ZM176.397 45.179C175.913 45.179 175.474 45.0878 175.08 44.9055C174.685 44.7199 174.372 44.4531 174.14 44.1051C173.908 43.7538 173.792 43.3295 173.792 42.8324C173.792 42.3949 173.878 42.0402 174.051 41.7685C174.223 41.4934 174.453 41.2779 174.742 41.1222C175.03 40.9664 175.348 40.8504 175.696 40.7741C176.048 40.6946 176.401 40.6316 176.755 40.5852C177.219 40.5256 177.595 40.4808 177.884 40.451C178.175 40.4179 178.387 40.3632 178.52 40.2869C178.656 40.2107 178.724 40.0781 178.724 39.8892V39.8494C178.724 39.3589 178.59 38.9777 178.321 38.706C178.056 38.4342 177.653 38.2983 177.113 38.2983C176.553 38.2983 176.114 38.4209 175.796 38.6662C175.477 38.9115 175.254 39.1733 175.124 39.4517L174.011 39.054C174.21 38.59 174.475 38.2287 174.806 37.9702C175.141 37.7083 175.506 37.526 175.9 37.4233C176.298 37.3172 176.689 37.2642 177.073 37.2642C177.319 37.2642 177.6 37.294 177.919 37.3537C178.24 37.41 178.55 37.5277 178.848 37.7067C179.15 37.8857 179.4 38.1558 179.599 38.517C179.798 38.8783 179.897 39.3622 179.897 39.9688V45H178.724V43.9659H178.664C178.585 44.1316 178.452 44.3089 178.267 44.4979C178.081 44.6868 177.834 44.8475 177.526 44.9801C177.218 45.1127 176.841 45.179 176.397 45.179ZM176.576 44.125C177.04 44.125 177.431 44.0339 177.749 43.8516C178.071 43.6693 178.313 43.4339 178.475 43.1456C178.641 42.8572 178.724 42.554 178.724 42.2358V41.1619C178.674 41.2216 178.565 41.2763 178.396 41.326C178.23 41.3724 178.038 41.4138 177.819 41.4503C177.604 41.4834 177.393 41.5133 177.188 41.5398C176.985 41.563 176.821 41.5829 176.695 41.5994C176.391 41.6392 176.106 41.7038 175.84 41.7933C175.579 41.8795 175.366 42.0104 175.204 42.1861C175.045 42.3584 174.965 42.5937 174.965 42.892C174.965 43.2997 175.116 43.608 175.418 43.8168C175.723 44.0223 176.109 44.125 176.576 44.125Z" fill="#838383"/>
<path d="M42.9688 67.4545V82H40.7812V69.3295H33.9347V82H31.7472V67.4545H42.9688ZM46.1541 86.0909V71.0909H48.228V72.8594H48.4055C48.5286 72.6321 48.7062 72.3693 48.9382 72.071C49.1702 71.7727 49.4922 71.5123 49.9041 71.2898C50.3161 71.0625 50.8606 70.9489 51.5376 70.9489C52.4183 70.9489 53.2043 71.1714 53.8956 71.6165C54.5869 72.0616 55.129 72.7031 55.522 73.5412C55.9197 74.3793 56.1186 75.3878 56.1186 76.5668C56.1186 77.7457 55.9221 78.7566 55.5291 79.5994C55.1361 80.4375 54.5964 81.0838 53.9098 81.5384C53.2232 81.9882 52.4396 82.2131 51.5589 82.2131C50.8961 82.2131 50.3539 82.1018 49.9325 81.8793C49.5159 81.6567 49.1892 81.3963 48.9524 81.098C48.7157 80.7997 48.5334 80.5346 48.4055 80.3026H48.2777V86.0909H46.1541ZM48.2351 76.5455C48.2351 77.3125 48.3464 77.9848 48.5689 78.5625C48.7914 79.1402 49.1134 79.5923 49.5348 79.919C49.9562 80.241 50.4723 80.402 51.0831 80.402C51.7176 80.402 52.2479 80.2339 52.674 79.8977C53.1001 79.5568 53.4221 79.0952 53.6399 78.5128C53.8625 77.9304 53.9737 77.2746 53.9737 76.5455C53.9737 75.8258 53.8648 75.1795 53.647 74.6065C53.4339 74.0336 53.112 73.5814 52.6811 73.25C52.255 72.9186 51.7223 72.7528 51.0831 72.7528C50.4676 72.7528 49.9467 72.9115 49.5206 73.2287C49.0992 73.5459 48.7796 73.9886 48.5618 74.5568C48.344 75.125 48.2351 75.7879 48.2351 76.5455ZM60.5788 79.0241L65.3871 71.0909H67.674V82H65.593V74.0597L60.8061 82H58.4979V71.0909H60.5788V79.0241ZM70.5291 82V71.0909H72.6527V75.6648H73.6754L77.2763 71.0909H79.9041L75.6783 76.3963L79.9538 82H77.3189L74.0305 77.6392H72.6527V82H70.5291ZM81.6033 86.0909V71.0909H83.6772V72.8594H83.8548C83.9779 72.6321 84.1554 72.3693 84.3874 72.071C84.6194 71.7727 84.9414 71.5123 85.3533 71.2898C85.7653 71.0625 86.3098 70.9489 86.9869 70.9489C87.8675 70.9489 88.6535 71.1714 89.3448 71.6165C90.0361 72.0616 90.5782 72.7031 90.9712 73.5412C91.369 74.3793 91.5678 75.3878 91.5678 76.5668C91.5678 77.7457 91.3713 78.7566 90.9783 79.5994C90.5853 80.4375 90.0456 81.0838 89.359 81.5384C88.6725 81.9882 87.8888 82.2131 87.0082 82.2131C86.3453 82.2131 85.8031 82.1018 85.3817 81.8793C84.9651 81.6567 84.6384 81.3963 84.4016 81.098C84.1649 80.7997 83.9826 80.5346 83.8548 80.3026H83.7269V86.0909H81.6033ZM83.6843 76.5455C83.6843 77.3125 83.7956 77.9848 84.0181 78.5625C84.2406 79.1402 84.5626 79.5923 84.984 79.919C85.4054 80.241 85.9215 80.402 86.5323 80.402C87.1668 80.402 87.6971 80.2339 88.1232 79.8977C88.5494 79.5568 88.8713 79.0952 89.0891 78.5128C89.3117 77.9304 89.4229 77.2746 89.4229 76.5455C89.4229 75.8258 89.314 75.1795 89.0962 74.6065C88.8832 74.0336 88.5612 73.5814 88.1303 73.25C87.7042 72.9186 87.1715 72.7528 86.5323 72.7528C85.9168 72.7528 85.396 72.9115 84.9698 73.2287C84.5484 73.5459 84.2288 73.9886 84.011 74.5568C83.7932 75.125 83.6843 75.7879 83.6843 76.5455ZM98.6488 82.2202C97.574 82.2202 96.6483 81.9905 95.8718 81.5312C95.1 81.0672 94.5034 80.4162 94.082 79.5781C93.6654 78.7353 93.457 77.7481 93.457 76.6165C93.457 75.4991 93.6654 74.5142 94.082 73.6619C94.5034 72.8097 95.0906 72.1444 95.8434 71.6662C96.601 71.188 97.4864 70.9489 98.4996 70.9489C99.1152 70.9489 99.7118 71.0507 100.289 71.2543C100.867 71.4579 101.386 71.7775 101.845 72.2131C102.304 72.6487 102.666 73.2145 102.931 73.9105C103.197 74.6018 103.329 75.4422 103.329 76.4318V77.1847H94.6573V75.5938H101.248C101.248 75.035 101.135 74.5402 100.907 74.1094C100.68 73.6738 100.36 73.3305 99.9485 73.0795C99.5413 72.8286 99.0631 72.7031 98.5138 72.7031C97.9173 72.7031 97.3964 72.8499 96.9513 73.1435C96.511 73.4323 96.1701 73.8111 95.9286 74.2798C95.6919 74.7438 95.5735 75.2481 95.5735 75.7926V77.0355C95.5735 77.7647 95.7013 78.3849 95.957 78.8963C96.2174 79.4077 96.5797 79.7983 97.0437 80.0682C97.5077 80.3333 98.0498 80.4659 98.6701 80.4659C99.0726 80.4659 99.4395 80.4091 99.771 80.2955C100.102 80.1771 100.389 80.0019 100.63 79.7699C100.872 79.5379 101.056 79.2514 101.184 78.9105L103.194 79.2727C103.033 79.8646 102.744 80.383 102.328 80.8281C101.916 81.2685 101.397 81.6117 100.772 81.858C100.152 82.0994 99.4442 82.2202 98.6488 82.2202ZM105.685 82V71.0909H114.585V82H112.504V72.9233H107.752V82H105.685ZM116.564 82L116.557 80.1605H116.948C117.251 80.1605 117.504 80.0966 117.708 79.9688C117.916 79.8362 118.087 79.6136 118.219 79.3011C118.352 78.9886 118.453 78.5578 118.525 78.0085C118.596 77.4545 118.648 76.7585 118.681 75.9205L118.873 71.0909H126.486V82H124.405V72.9233H120.84L120.669 76.6307C120.627 77.5303 120.534 78.3163 120.392 78.9886C120.255 79.661 120.054 80.2221 119.789 80.6719C119.524 81.117 119.183 81.4508 118.766 81.6733C118.349 81.8911 117.843 82 117.246 82H116.564ZM134.02 82.2202C132.945 82.2202 132.019 81.9905 131.243 81.5312C130.471 81.0672 129.875 80.4162 129.453 79.5781C129.036 78.7353 128.828 77.7481 128.828 76.6165C128.828 75.4991 129.036 74.5142 129.453 73.6619C129.875 72.8097 130.462 72.1444 131.214 71.6662C131.972 71.188 132.857 70.9489 133.871 70.9489C134.486 70.9489 135.083 71.0507 135.661 71.2543C136.238 71.4579 136.757 71.7775 137.216 72.2131C137.675 72.6487 138.037 73.2145 138.303 73.9105C138.568 74.6018 138.7 75.4422 138.7 76.4318V77.1847H130.028V75.5938H136.619C136.619 75.035 136.506 74.5402 136.278 74.1094C136.051 73.6738 135.732 73.3305 135.32 73.0795C134.912 72.8286 134.434 72.7031 133.885 72.7031C133.288 72.7031 132.768 72.8499 132.322 73.1435C131.882 73.4323 131.541 73.8111 131.3 74.2798C131.063 74.7438 130.945 75.2481 130.945 75.7926V77.0355C130.945 77.7647 131.072 78.3849 131.328 78.8963C131.589 79.4077 131.951 79.7983 132.415 80.0682C132.879 80.3333 133.421 80.4659 134.041 80.4659C134.444 80.4659 134.811 80.4091 135.142 80.2955C135.473 80.1771 135.76 80.0019 136.001 79.7699C136.243 79.5379 136.428 79.2514 136.555 78.9105L138.565 79.2727C138.404 79.8646 138.116 80.383 137.699 80.8281C137.287 81.2685 136.768 81.6117 136.143 81.858C135.523 82.0994 134.815 82.2202 134.02 82.2202ZM148.45 75.6293V77.4688H142.541V75.6293H148.45ZM143.137 71.0909V82H141.056V71.0909H143.137ZM149.934 71.0909V82H147.86V71.0909H149.934ZM160.169 75.6293V77.4688H154.26V75.6293H160.169ZM154.856 71.0909V82H152.775V71.0909H154.856ZM161.653 71.0909V82H159.579V71.0909H161.653ZM166.092 74.8409H169.26C170.595 74.8409 171.622 75.1723 172.342 75.8352C173.062 76.4981 173.422 77.3527 173.422 78.3991C173.422 79.081 173.261 79.6941 172.939 80.2386C172.617 80.7831 172.145 81.214 171.525 81.5312C170.905 81.8438 170.15 82 169.26 82H164.494V71.0909H166.575V80.1676H169.26C169.87 80.1676 170.372 80.009 170.765 79.6918C171.158 79.3698 171.355 78.9602 171.355 78.4631C171.355 77.9375 171.158 77.509 170.765 77.1776C170.372 76.8414 169.87 76.6733 169.26 76.6733H166.092V74.8409ZM174.97 82V71.0909H177.093V82H174.97ZM184.645 82.2202C183.57 82.2202 182.644 81.9905 181.868 81.5312C181.096 81.0672 180.5 80.4162 180.078 79.5781C179.661 78.7353 179.453 77.7481 179.453 76.6165C179.453 75.4991 179.661 74.5142 180.078 73.6619C180.5 72.8097 181.087 72.1444 181.839 71.6662C182.597 71.188 183.482 70.9489 184.496 70.9489C185.111 70.9489 185.708 71.0507 186.286 71.2543C186.863 71.4579 187.382 71.7775 187.841 72.2131C188.3 72.6487 188.662 73.2145 188.928 73.9105C189.193 74.6018 189.325 75.4422 189.325 76.4318V77.1847H180.653V75.5938H187.244C187.244 75.035 187.131 74.5402 186.903 74.1094C186.676 73.6738 186.357 73.3305 185.945 73.0795C185.537 72.8286 185.059 72.7031 184.51 72.7031C183.913 72.7031 183.393 72.8499 182.947 73.1435C182.507 73.4323 182.166 73.8111 181.925 74.2798C181.688 74.7438 181.57 75.2481 181.57 75.7926V77.0355C181.57 77.7647 181.697 78.3849 181.953 78.8963C182.214 79.4077 182.576 79.7983 183.04 80.0682C183.504 80.3333 184.046 80.4659 184.666 80.4659C185.069 80.4659 185.436 80.4091 185.767 80.2955C186.098 80.1771 186.385 80.0019 186.626 79.7699C186.868 79.5379 187.053 79.2514 187.18 78.9105L189.19 79.2727C189.029 79.8646 188.741 80.383 188.324 80.8281C187.912 81.2685 187.393 81.6117 186.768 81.858C186.148 82.0994 185.44 82.2202 184.645 82.2202ZM36.1222 111.714V93.4545H38.2457V111.714H36.1222ZM36.1222 108.22C35.3504 108.22 34.6473 108.088 34.0128 107.822C33.3783 107.553 32.8314 107.169 32.3722 106.672C31.9129 106.175 31.5578 105.58 31.3068 104.889C31.0606 104.198 30.9375 103.433 30.9375 102.595C30.9375 101.748 31.0606 100.978 31.3068 100.287C31.5578 99.5956 31.9129 99.0014 32.3722 98.5043C32.8314 98.0071 33.3783 97.6236 34.0128 97.3537C34.6473 97.0838 35.3504 96.9489 36.1222 96.9489H36.6477V108.22H36.1222ZM36.1222 106.43H36.4205V98.7386H36.1222C35.6108 98.7386 35.1657 98.8428 34.7869 99.0511C34.4081 99.2547 34.0933 99.5365 33.8423 99.8963C33.5914 100.251 33.402 100.661 33.2741 101.125C33.151 101.589 33.0895 102.079 33.0895 102.595C33.0895 103.286 33.2008 103.923 33.4233 104.506C33.6458 105.083 33.982 105.55 34.4318 105.905C34.8816 106.255 35.4451 106.43 36.1222 106.43ZM38.2457 108.22H37.7131V96.9489H38.2457C39.0175 96.9489 39.7206 97.0838 40.3551 97.3537C40.9896 97.6236 41.5341 98.0071 41.9886 98.5043C42.4479 99.0014 42.8007 99.5956 43.0469 100.287C43.2978 100.978 43.4233 101.748 43.4233 102.595C43.4233 103.433 43.2978 104.198 43.0469 104.889C42.8007 105.58 42.4479 106.175 41.9886 106.672C41.5341 107.169 40.9896 107.553 40.3551 107.822C39.7206 108.088 39.0175 108.22 38.2457 108.22ZM38.2457 106.43C38.7571 106.43 39.2022 106.331 39.581 106.132C39.9598 105.929 40.2746 105.649 40.5256 105.294C40.7765 104.934 40.9635 104.525 41.0866 104.065C41.2098 103.601 41.2713 103.111 41.2713 102.595C41.2713 101.909 41.16 101.274 40.9375 100.692C40.7197 100.105 40.3859 99.6335 39.9361 99.2784C39.4863 98.9186 38.9228 98.7386 38.2457 98.7386H37.9403V106.43H38.2457ZM48.9577 108.241C48.2665 108.241 47.6415 108.114 47.0827 107.858C46.524 107.598 46.0813 107.221 45.7546 106.729C45.4326 106.236 45.2717 105.633 45.2717 104.918C45.2717 104.302 45.39 103.795 45.6268 103.398C45.8635 103 46.1831 102.685 46.5856 102.453C46.988 102.221 47.4379 102.046 47.935 101.928C48.4322 101.809 48.9388 101.719 49.4549 101.658C50.1083 101.582 50.6386 101.52 51.0458 101.473C51.453 101.421 51.7489 101.338 51.9336 101.224C52.1183 101.111 52.2106 100.926 52.2106 100.67V100.621C52.2106 100 52.0354 99.5199 51.685 99.179C51.3394 98.8381 50.8233 98.6676 50.1367 98.6676C49.4218 98.6676 48.8583 98.8262 48.4464 99.1435C48.0392 99.456 47.7575 99.804 47.6012 100.188L45.6055 99.733C45.8422 99.0701 46.1879 98.535 46.6424 98.1278C47.1017 97.7159 47.6296 97.4176 48.2262 97.233C48.8228 97.0436 49.4502 96.9489 50.1083 96.9489C50.5439 96.9489 51.0056 97.0009 51.4933 97.1051C51.9857 97.2045 52.445 97.3892 52.8711 97.6591C53.302 97.929 53.6547 98.3149 53.9293 98.8168C54.204 99.3139 54.3413 99.9602 54.3413 100.756V108H52.2674V106.509H52.1822C52.0449 106.783 51.8389 107.053 51.5643 107.318C51.2897 107.583 50.9369 107.804 50.506 107.979C50.0752 108.154 49.5591 108.241 48.9577 108.241ZM49.4194 106.537C50.0065 106.537 50.5084 106.421 50.9251 106.189C51.3465 105.957 51.6661 105.654 51.8839 105.28C52.1064 104.901 52.2177 104.496 52.2177 104.065V102.659C52.1419 102.735 51.9951 102.806 51.7773 102.872C51.5643 102.934 51.3204 102.988 51.0458 103.036C50.7712 103.078 50.5037 103.118 50.2433 103.156C49.9828 103.189 49.765 103.218 49.5898 103.241C49.1779 103.294 48.8015 103.381 48.4606 103.504C48.1244 103.627 47.8545 103.805 47.6509 104.037C47.4521 104.264 47.3526 104.567 47.3526 104.946C47.3526 105.472 47.5468 105.869 47.935 106.139C48.3233 106.404 48.8181 106.537 49.4194 106.537ZM59.2507 105.024L64.0589 97.0909H66.3459V108H64.2649V100.06L59.478 108H57.1697V97.0909H59.2507V105.024ZM63.1499 93.3977H64.897C64.897 94.1979 64.6129 94.849 64.0447 95.3509C63.4813 95.848 62.719 96.0966 61.7578 96.0966C60.8014 96.0966 60.0414 95.848 59.478 95.3509C58.9145 94.849 58.6328 94.1979 58.6328 93.3977H60.3729C60.3729 93.7528 60.477 94.0677 60.6854 94.3423C60.8937 94.6122 61.2512 94.7472 61.7578 94.7472C62.255 94.7472 62.6101 94.6122 62.8232 94.3423C63.041 94.0724 63.1499 93.7576 63.1499 93.3977ZM68.3416 108L68.3345 106.161H68.7251C69.0282 106.161 69.2815 106.097 69.4851 105.969C69.6934 105.836 69.8639 105.614 69.9964 105.301C70.129 104.989 70.2308 104.558 70.3018 104.009C70.3729 103.455 70.425 102.759 70.4581 101.92L70.6499 97.0909H78.2635V108H76.1825V98.9233H72.6172L72.4467 102.631C72.4041 103.53 72.3118 104.316 72.1697 104.989C72.0324 105.661 71.8312 106.222 71.5661 106.672C71.3009 107.117 70.96 107.451 70.5433 107.673C70.1267 107.891 69.62 108 69.0234 108H68.3416ZM82.6935 100.841H85.8612C87.1964 100.841 88.2238 101.172 88.9435 101.835C89.6632 102.498 90.0231 103.353 90.0231 104.399C90.0231 105.081 89.8621 105.694 89.5401 106.239C89.2182 106.783 88.747 107.214 88.1268 107.531C87.5065 107.844 86.7513 108 85.8612 108H81.0955V97.0909H83.1765V106.168H85.8612C86.4719 106.168 86.9738 106.009 87.3668 105.692C87.7598 105.37 87.9563 104.96 87.9563 104.463C87.9563 103.937 87.7598 103.509 87.3668 103.178C86.9738 102.841 86.4719 102.673 85.8612 102.673H82.6935V100.841ZM91.5714 108V97.0909H93.695V108H91.5714Z" fill="#181818"/>
<rect x="31" y="143" width="162" height="42" rx="9" stroke="#A6C81E" stroke-width="2"/>
<path d="M82.0208 158.818V169H80.1912V160.349H75.7367V169H73.9071V158.818H82.0208ZM87.4783 169.149C86.7326 169.149 86.0863 168.985 85.5394 168.657C84.9925 168.329 84.5683 167.87 84.2667 167.28C83.9684 166.69 83.8192 166 83.8192 165.212C83.8192 164.423 83.9684 163.732 84.2667 163.138C84.5683 162.545 84.9925 162.085 85.5394 161.756C86.0863 161.428 86.7326 161.264 87.4783 161.264C88.2241 161.264 88.8704 161.428 89.4173 161.756C89.9641 162.085 90.3867 162.545 90.685 163.138C90.9866 163.732 91.1374 164.423 91.1374 165.212C91.1374 166 90.9866 166.69 90.685 167.28C90.3867 167.87 89.9641 168.329 89.4173 168.657C88.8704 168.985 88.2241 169.149 87.4783 169.149ZM87.4883 167.707C87.8926 167.707 88.2307 167.596 88.5025 167.374C88.7743 167.149 88.9764 166.847 89.109 166.469C89.2449 166.092 89.3129 165.671 89.3129 165.207C89.3129 164.739 89.2449 164.317 89.109 163.939C88.9764 163.558 88.7743 163.254 88.5025 163.029C88.2307 162.804 87.8926 162.691 87.4883 162.691C87.074 162.691 86.7293 162.804 86.4542 163.029C86.1824 163.254 85.9786 163.558 85.8427 163.939C85.7101 164.317 85.6438 164.739 85.6438 165.207C85.6438 165.671 85.7101 166.092 85.8427 166.469C85.9786 166.847 86.1824 167.149 86.4542 167.374C86.7293 167.596 87.074 167.707 87.4883 167.707ZM91.9888 171.217V167.518H92.5953C92.7578 167.393 92.8936 167.222 93.003 167.006C93.1124 166.788 93.2019 166.531 93.2715 166.236C93.3444 165.937 93.4041 165.604 93.4505 165.237C93.4969 164.865 93.5383 164.466 93.5748 164.038L93.7935 161.364H99.312V167.518H100.495V171.217H98.7551V169H93.7587V171.217H91.9888ZM94.4448 167.518H97.5918V162.815H95.3546L95.2353 164.038C95.169 164.847 95.0811 165.54 94.9718 166.116C94.8624 166.693 94.6867 167.161 94.4448 167.518ZM101.839 171.864V161.364H103.609V162.626H103.713C103.806 162.441 103.937 162.244 104.106 162.035C104.275 161.823 104.504 161.642 104.792 161.493C105.08 161.34 105.448 161.264 105.896 161.264C106.486 161.264 107.018 161.415 107.491 161.717C107.969 162.015 108.347 162.457 108.625 163.044C108.907 163.627 109.048 164.343 109.048 165.192C109.048 166.03 108.91 166.743 108.635 167.33C108.36 167.916 107.985 168.364 107.511 168.672C107.037 168.98 106.5 169.134 105.901 169.134C105.463 169.134 105.1 169.061 104.812 168.915C104.523 168.77 104.291 168.594 104.116 168.388C103.943 168.18 103.809 167.982 103.713 167.797H103.638V171.864H101.839ZM103.604 165.182C103.604 165.676 103.673 166.108 103.812 166.479C103.955 166.851 104.159 167.141 104.424 167.349C104.692 167.555 105.017 167.658 105.398 167.658C105.796 167.658 106.129 167.552 106.398 167.339C106.666 167.124 106.868 166.831 107.004 166.46C107.143 166.085 107.213 165.659 107.213 165.182C107.213 164.708 107.145 164.287 107.009 163.919C106.873 163.551 106.671 163.263 106.403 163.054C106.134 162.845 105.799 162.741 105.398 162.741C105.014 162.741 104.688 162.842 104.419 163.044C104.151 163.246 103.947 163.53 103.808 163.894C103.672 164.259 103.604 164.688 103.604 165.182ZM113.92 169.149C113.174 169.149 112.528 168.985 111.981 168.657C111.434 168.329 111.01 167.87 110.708 167.28C110.41 166.69 110.261 166 110.261 165.212C110.261 164.423 110.41 163.732 110.708 163.138C111.01 162.545 111.434 162.085 111.981 161.756C112.528 161.428 113.174 161.264 113.92 161.264C114.665 161.264 115.312 161.428 115.859 161.756C116.406 162.085 116.828 162.545 117.126 163.138C117.428 163.732 117.579 164.423 117.579 165.212C117.579 166 117.428 166.69 117.126 167.28C116.828 167.87 116.406 168.329 115.859 168.657C115.312 168.985 114.665 169.149 113.92 169.149ZM113.93 167.707C114.334 167.707 114.672 167.596 114.944 167.374C115.216 167.149 115.418 166.847 115.55 166.469C115.686 166.092 115.754 165.671 115.754 165.207C115.754 164.739 115.686 164.317 115.55 163.939C115.418 163.558 115.216 163.254 114.944 163.029C114.672 162.804 114.334 162.691 113.93 162.691C113.515 162.691 113.171 162.804 112.896 163.029C112.624 163.254 112.42 163.558 112.284 163.939C112.152 164.317 112.085 164.739 112.085 165.207C112.085 165.671 112.152 166.092 112.284 166.469C112.42 166.847 112.624 167.149 112.896 167.374C113.171 167.596 113.515 167.707 113.93 167.707ZM125.226 158.54L125.853 159.703C125.631 159.895 125.382 160.035 125.107 160.121C124.832 160.207 124.509 160.263 124.138 160.29C123.77 160.313 123.332 160.33 122.825 160.339C122.255 160.353 121.789 160.46 121.428 160.663C121.067 160.865 120.79 161.171 120.598 161.582C120.406 161.99 120.28 162.51 120.22 163.143H120.305C120.543 162.676 120.878 162.32 121.309 162.075C121.74 161.829 122.245 161.707 122.825 161.707C123.458 161.707 124.017 161.849 124.501 162.134C124.988 162.416 125.367 162.825 125.639 163.362C125.914 163.899 126.052 164.549 126.052 165.311C126.052 166.097 125.904 166.778 125.609 167.354C125.314 167.928 124.895 168.37 124.351 168.682C123.811 168.993 123.17 169.149 122.427 169.149C121.688 169.149 121.045 168.988 120.498 168.667C119.955 168.342 119.534 167.863 119.236 167.23C118.941 166.594 118.793 165.81 118.793 164.879V164.192C118.793 162.396 119.128 161.055 119.797 160.17C120.467 159.286 121.46 158.835 122.775 158.818C123.166 158.812 123.516 158.81 123.824 158.813C124.136 158.817 124.408 158.802 124.64 158.768C124.872 158.735 125.067 158.659 125.226 158.54ZM122.437 167.707C122.805 167.707 123.123 167.613 123.392 167.424C123.66 167.232 123.866 166.96 124.008 166.609C124.154 166.257 124.227 165.841 124.227 165.361C124.227 164.887 124.154 164.484 124.008 164.153C123.863 163.818 123.655 163.563 123.387 163.387C123.118 163.211 122.799 163.124 122.427 163.124C122.149 163.124 121.899 163.173 121.677 163.273C121.455 163.372 121.266 163.518 121.11 163.71C120.954 163.902 120.835 164.136 120.752 164.411C120.669 164.686 120.624 165.003 120.618 165.361C120.618 166.08 120.78 166.652 121.105 167.076C121.43 167.497 121.874 167.707 122.437 167.707ZM132.828 164.436V165.913H128.761V164.436H132.828ZM129.318 161.364V169H127.583V161.364H129.318ZM134.006 161.364V169H132.276V161.364H134.006ZM139.208 169.149C138.442 169.149 137.781 168.99 137.224 168.672C136.671 168.35 136.245 167.896 135.946 167.31C135.648 166.72 135.499 166.025 135.499 165.227C135.499 164.441 135.648 163.752 135.946 163.158C136.248 162.562 136.669 162.098 137.209 161.766C137.749 161.432 138.384 161.264 139.113 161.264C139.584 161.264 140.028 161.34 140.446 161.493C140.867 161.642 141.238 161.874 141.559 162.189C141.884 162.504 142.139 162.905 142.325 163.392C142.511 163.876 142.603 164.453 142.603 165.122V165.674H136.344V164.461H140.878C140.875 164.116 140.8 163.81 140.654 163.541C140.509 163.269 140.305 163.056 140.043 162.9C139.784 162.744 139.483 162.666 139.138 162.666C138.77 162.666 138.447 162.756 138.169 162.935C137.89 163.11 137.673 163.342 137.517 163.631C137.365 163.916 137.287 164.229 137.284 164.57V165.629C137.284 166.073 137.365 166.455 137.527 166.773C137.69 167.088 137.917 167.33 138.208 167.499C138.5 167.664 138.842 167.747 139.233 167.747C139.494 167.747 139.731 167.711 139.944 167.638C140.156 167.562 140.34 167.451 140.495 167.305C140.651 167.159 140.769 166.978 140.848 166.763L142.529 166.952C142.423 167.396 142.221 167.784 141.922 168.115C141.627 168.443 141.249 168.698 140.789 168.881C140.328 169.06 139.801 169.149 139.208 169.149ZM147.507 169.149C146.741 169.149 146.08 168.99 145.523 168.672C144.969 168.35 144.544 167.896 144.245 167.31C143.947 166.72 143.798 166.025 143.798 165.227C143.798 164.441 143.947 163.752 144.245 163.158C144.547 162.562 144.968 162.098 145.508 161.766C146.048 161.432 146.683 161.264 147.412 161.264C147.883 161.264 148.327 161.34 148.744 161.493C149.165 161.642 149.537 161.874 149.858 162.189C150.183 162.504 150.438 162.905 150.624 163.392C150.809 163.876 150.902 164.453 150.902 165.122V165.674H144.643V164.461H149.177C149.174 164.116 149.099 163.81 148.953 163.541C148.807 163.269 148.604 163.056 148.342 162.9C148.083 162.744 147.782 162.666 147.437 162.666C147.069 162.666 146.746 162.756 146.468 162.935C146.189 163.11 145.972 163.342 145.816 163.631C145.664 163.916 145.586 164.229 145.583 164.57V165.629C145.583 166.073 145.664 166.455 145.826 166.773C145.989 167.088 146.216 167.33 146.507 167.499C146.799 167.664 147.14 167.747 147.531 167.747C147.793 167.747 148.03 167.711 148.242 167.638C148.454 167.562 148.638 167.451 148.794 167.305C148.95 167.159 149.068 166.978 149.147 166.763L150.828 166.952C150.722 167.396 150.519 167.784 150.221 168.115C149.926 168.443 149.548 168.698 149.088 168.881C148.627 169.06 148.1 169.149 147.507 169.149Z" fill="#A6C81E"/>
</svg>
