<svg width="224" height="216" viewBox="0 0 224 216" fill="none" xmlns="http://www.w3.org/2000/svg">
<rect width="224" height="216" rx="20" fill="black" fill-opacity="0.03"/>
<path d="M30.358 47.4659V43.9062H31.0142C31.2396 43.7008 31.4517 43.4107 31.6506 43.0362C31.8527 42.6584 32.0234 42.1546 32.1626 41.5249C32.3052 40.8918 32.3996 40.0881 32.446 39.1136L32.6648 34.8182H38.7102V43.9062H39.8835V47.446H38.7102V45H31.5312V47.4659H30.358ZM32.4858 43.9062H37.5369V35.9119H33.7784L33.6193 39.1136C33.5795 39.8561 33.5099 40.5289 33.4105 41.1321C33.3111 41.732 33.1835 42.264 33.0277 42.728C32.8719 43.1887 32.6913 43.5814 32.4858 43.9062ZM44.6898 45.1591C44.0004 45.1591 43.3955 44.995 42.8752 44.6669C42.3581 44.3388 41.9538 43.8797 41.6621 43.2898C41.3738 42.6998 41.2296 42.0104 41.2296 41.2216C41.2296 40.4261 41.3738 39.7318 41.6621 39.1385C41.9538 38.5452 42.3581 38.0845 42.8752 37.7564C43.3955 37.4283 44.0004 37.2642 44.6898 37.2642C45.3792 37.2642 45.9824 37.4283 46.4995 37.7564C47.0198 38.0845 47.4242 38.5452 47.7125 39.1385C48.0042 39.7318 48.15 40.4261 48.15 41.2216C48.15 42.0104 48.0042 42.6998 47.7125 43.2898C47.4242 43.8797 47.0198 44.3388 46.4995 44.6669C45.9824 44.995 45.3792 45.1591 44.6898 45.1591ZM44.6898 44.1051C45.2135 44.1051 45.6444 43.9709 45.9824 43.7024C46.3205 43.4339 46.5707 43.081 46.7331 42.6435C46.8955 42.206 46.9767 41.732 46.9767 41.2216C46.9767 40.7112 46.8955 40.2356 46.7331 39.7947C46.5707 39.3539 46.3205 38.9976 45.9824 38.7259C45.6444 38.4541 45.2135 38.3182 44.6898 38.3182C44.1661 38.3182 43.7353 38.4541 43.3972 38.7259C43.0591 38.9976 42.8089 39.3539 42.6465 39.7947C42.4841 40.2356 42.4029 40.7112 42.4029 41.2216C42.4029 41.732 42.4841 42.206 42.6465 42.6435C42.8089 43.081 43.0591 43.4339 43.3972 43.7024C43.7353 43.9709 44.1661 44.1051 44.6898 44.1051ZM55.6087 34.5L56.2053 35.2159C55.9732 35.4413 55.7048 35.5987 55.3999 35.6882C55.0949 35.7777 54.7502 35.8324 54.3658 35.8523C53.9813 35.8722 53.5537 35.892 53.0831 35.9119C52.5528 35.9318 52.1136 36.0611 51.7656 36.2997C51.4176 36.5384 51.1491 36.883 50.9602 37.3338C50.7713 37.7846 50.6503 38.3381 50.5973 38.9943H50.6967C50.9553 38.517 51.3132 38.1657 51.7706 37.9403C52.228 37.715 52.7185 37.6023 53.2422 37.6023C53.8388 37.6023 54.3757 37.7415 54.853 38.0199C55.3303 38.2983 55.7081 38.7109 55.9865 39.2578C56.2649 39.8047 56.4041 40.4792 56.4041 41.2812C56.4041 42.08 56.2616 42.7694 55.9766 43.3494C55.6948 43.9295 55.2988 44.3769 54.7884 44.6918C54.2813 45.0033 53.6863 45.1591 53.0036 45.1591C52.3208 45.1591 51.7225 44.9983 51.2088 44.6768C50.6951 44.352 50.2957 43.8714 50.0107 43.2351C49.7256 42.5954 49.5831 41.8049 49.5831 40.8636V40.0483C49.5831 38.348 49.8714 37.0587 50.4482 36.1804C51.0282 35.3021 51.8999 34.848 53.0632 34.8182C53.4742 34.8049 53.8404 34.8016 54.1619 34.8082C54.4834 34.8149 54.7635 34.8 55.0021 34.7635C55.2408 34.727 55.4429 34.6392 55.6087 34.5ZM53.0036 44.1051C53.4643 44.1051 53.8603 43.9891 54.1918 43.7571C54.5265 43.5251 54.7834 43.1986 54.9624 42.7777C55.1413 42.3535 55.2308 41.8546 55.2308 41.2812C55.2308 40.7244 55.1397 40.2505 54.9574 39.8594C54.7784 39.4683 54.5215 39.17 54.1868 38.9645C53.852 38.759 53.451 38.6562 52.9837 38.6562C52.6423 38.6562 52.3357 38.7143 52.0639 38.8303C51.7921 38.9463 51.5601 39.117 51.3679 39.3423C51.1757 39.5677 51.0265 39.8428 50.9205 40.1676C50.8177 40.4924 50.763 40.8636 50.7564 41.2812C50.7564 42.1364 50.9569 42.8208 51.358 43.3345C51.759 43.8482 52.3075 44.1051 53.0036 44.1051ZM60.446 45.179C59.9621 45.179 59.523 45.0878 59.1286 44.9055C58.7341 44.7199 58.4209 44.4531 58.1889 44.1051C57.9569 43.7538 57.8409 43.3295 57.8409 42.8324C57.8409 42.3949 57.9271 42.0402 58.0994 41.7685C58.2718 41.4934 58.5021 41.2779 58.7905 41.1222C59.0788 40.9664 59.397 40.8504 59.745 40.7741C60.0964 40.6946 60.4493 40.6316 60.804 40.5852C61.268 40.5256 61.6442 40.4808 61.9325 40.451C62.2242 40.4179 62.4363 40.3632 62.5689 40.2869C62.7048 40.2107 62.7727 40.0781 62.7727 39.8892V39.8494C62.7727 39.3589 62.6385 38.9777 62.37 38.706C62.1049 38.4342 61.7022 38.2983 61.1619 38.2983C60.6018 38.2983 60.1626 38.4209 59.8445 38.6662C59.5263 38.9115 59.3026 39.1733 59.1733 39.4517L58.0597 39.054C58.2585 38.59 58.5237 38.2287 58.8551 37.9702C59.1899 37.7083 59.5545 37.526 59.9489 37.4233C60.3466 37.3172 60.7377 37.2642 61.1222 37.2642C61.3674 37.2642 61.6491 37.294 61.9673 37.3537C62.2888 37.41 62.5987 37.5277 62.897 37.7067C63.1986 37.8857 63.4489 38.1558 63.6477 38.517C63.8466 38.8783 63.946 39.3622 63.946 39.9688V45H62.7727V43.9659H62.7131C62.6335 44.1316 62.5009 44.3089 62.3153 44.4979C62.1297 44.6868 61.8828 44.8475 61.5746 44.9801C61.2663 45.1127 60.8902 45.179 60.446 45.179ZM60.625 44.125C61.089 44.125 61.4801 44.0339 61.7983 43.8516C62.1198 43.6693 62.3617 43.4339 62.5241 43.1456C62.6899 42.8572 62.7727 42.554 62.7727 42.2358V41.1619C62.723 41.2216 62.6136 41.2763 62.4446 41.326C62.2789 41.3724 62.0866 41.4138 61.8679 41.4503C61.6525 41.4834 61.442 41.5133 61.2365 41.5398C61.0343 41.563 60.8703 41.5829 60.7443 41.5994C60.4394 41.6392 60.1544 41.7038 59.8892 41.7933C59.6274 41.8795 59.4152 42.0104 59.2528 42.1861C59.0938 42.3584 59.0142 42.5937 59.0142 42.892C59.0142 43.2997 59.165 43.608 59.4666 43.8168C59.7715 44.0223 60.1577 44.125 60.625 44.125ZM66.0875 45V37.3636H69.2097C70.0317 37.3636 70.6846 37.5492 71.1685 37.9205C71.6524 38.2917 71.8944 38.7822 71.8944 39.392C71.8944 39.8561 71.7568 40.2157 71.4817 40.4709C71.2066 40.7228 70.8536 40.8935 70.4228 40.983C70.7045 41.0227 70.9779 41.1222 71.2431 41.2812C71.5115 41.4403 71.7336 41.6591 71.9093 41.9375C72.0849 42.2126 72.1728 42.5507 72.1728 42.9517C72.1728 43.3428 72.0733 43.6925 71.8745 44.0007C71.6756 44.3089 71.3906 44.5526 71.0194 44.7315C70.6481 44.9105 70.204 45 69.687 45H66.0875ZM67.2012 43.9261H69.687C70.0913 43.9261 70.4078 43.83 70.6365 43.6378C70.8652 43.4455 70.9796 43.1837 70.9796 42.8523C70.9796 42.4579 70.8652 42.148 70.6365 41.9226C70.4078 41.6939 70.0913 41.5795 69.687 41.5795H67.2012V43.9261ZM67.2012 40.5653H69.2097C69.5246 40.5653 69.7947 40.5223 70.0201 40.4361C70.2454 40.3466 70.4178 40.2206 70.5371 40.0582C70.6597 39.8925 70.7211 39.697 70.7211 39.4716C70.7211 39.1501 70.5868 38.8982 70.3184 38.7159C70.0499 38.5303 69.6803 38.4375 69.2097 38.4375H67.2012V40.5653ZM73.2727 45V43.9062H73.5511C73.7798 43.9062 73.9704 43.8615 74.1229 43.772C74.2753 43.6792 74.398 43.5185 74.4908 43.2898C74.5869 43.0578 74.6598 42.7363 74.7095 42.3253C74.7625 41.911 74.8007 41.384 74.8239 40.7443L74.9631 37.3636H80.054V45H78.8807V38.4574H76.0767L75.9574 41.1818C75.9309 41.8082 75.8745 42.3601 75.7884 42.8374C75.7055 43.3113 75.5779 43.709 75.4055 44.0305C75.2365 44.352 75.0111 44.594 74.7294 44.7564C74.4477 44.9188 74.0947 45 73.6705 45H73.2727ZM85.4084 45.1591C84.6726 45.1591 84.0379 44.9967 83.5043 44.6719C82.974 44.3438 82.5646 43.8864 82.2763 43.2997C81.9912 42.7098 81.8487 42.0237 81.8487 41.2415C81.8487 40.4593 81.9912 39.7699 82.2763 39.1733C82.5646 38.5734 82.9657 38.1061 83.4794 37.7713C83.9964 37.4332 84.5997 37.2642 85.2891 37.2642C85.6868 37.2642 86.0795 37.3305 86.4673 37.4631C86.8551 37.5956 87.2081 37.8111 87.5263 38.1094C87.8445 38.4044 88.098 38.7955 88.2869 39.2827C88.4759 39.7699 88.5703 40.3698 88.5703 41.0824V41.5795H82.6839V40.5653H87.3771C87.3771 40.1345 87.291 39.75 87.1186 39.4119C86.9496 39.0739 86.7076 38.8071 86.3928 38.6115C86.0812 38.416 85.7133 38.3182 85.2891 38.3182C84.8217 38.3182 84.4174 38.4342 84.076 38.6662C83.7379 38.8949 83.4777 39.1932 83.2955 39.5611C83.1132 39.929 83.022 40.3234 83.022 40.7443V41.4205C83.022 41.9972 83.1214 42.486 83.3203 42.8871C83.5225 43.2848 83.8026 43.5881 84.1605 43.7969C84.5185 44.0024 84.9344 44.1051 85.4084 44.1051C85.7166 44.1051 85.995 44.062 86.2436 43.9759C86.4955 43.8864 86.7126 43.7538 86.8949 43.5781C87.0772 43.3991 87.218 43.1771 87.3175 42.9119L88.451 43.2301C88.3317 43.6146 88.1312 43.9527 87.8494 44.2443C87.5677 44.5327 87.2197 44.758 86.8054 44.9205C86.3911 45.0795 85.9254 45.1591 85.4084 45.1591ZM95.4659 40.6449V41.7386H91.25V40.6449H95.4659ZM91.5284 37.3636V45H90.3551V37.3636H91.5284ZM96.3608 37.3636V45H95.1875V37.3636H96.3608ZM101.606 45.1591C100.916 45.1591 100.312 44.995 99.7912 44.6669C99.2741 44.3388 98.8698 43.8797 98.5781 43.2898C98.2898 42.6998 98.1456 42.0104 98.1456 41.2216C98.1456 40.4261 98.2898 39.7318 98.5781 39.1385C98.8698 38.5452 99.2741 38.0845 99.7912 37.7564C100.312 37.4283 100.916 37.2642 101.606 37.2642C102.295 37.2642 102.898 37.4283 103.415 37.7564C103.936 38.0845 104.34 38.5452 104.629 39.1385C104.92 39.7318 105.066 40.4261 105.066 41.2216C105.066 42.0104 104.92 42.6998 104.629 43.2898C104.34 43.8797 103.936 44.3388 103.415 44.6669C102.898 44.995 102.295 45.1591 101.606 45.1591ZM101.606 44.1051C102.129 44.1051 102.56 43.9709 102.898 43.7024C103.237 43.4339 103.487 43.081 103.649 42.6435C103.812 42.206 103.893 41.732 103.893 41.2216C103.893 40.7112 103.812 40.2356 103.649 39.7947C103.487 39.3539 103.237 38.9976 102.898 38.7259C102.56 38.4541 102.129 38.3182 101.606 38.3182C101.082 38.3182 100.651 38.4541 100.313 38.7259C99.9751 38.9976 99.7249 39.3539 99.5625 39.7947C99.4001 40.2356 99.3189 40.7112 99.3189 41.2216C99.3189 41.732 99.4001 42.206 99.5625 42.6435C99.7249 43.081 99.9751 43.4339 100.313 43.7024C100.651 43.9709 101.082 44.1051 101.606 44.1051ZM110.775 45V44.1051L114.135 40.4261C114.53 39.9953 114.855 39.6207 115.11 39.3026C115.365 38.9811 115.554 38.6795 115.677 38.3977C115.803 38.1127 115.866 37.8144 115.866 37.5028C115.866 37.1449 115.779 36.835 115.607 36.5732C115.438 36.3113 115.206 36.1091 114.911 35.9666C114.616 35.8241 114.285 35.7528 113.917 35.7528C113.526 35.7528 113.184 35.834 112.893 35.9964C112.604 36.1555 112.381 36.3793 112.221 36.6676C112.066 36.956 111.988 37.294 111.988 37.6818H110.814C110.814 37.0852 110.952 36.5616 111.227 36.1108C111.502 35.66 111.877 35.3087 112.351 35.0568C112.828 34.8049 113.363 34.679 113.956 34.679C114.553 34.679 115.082 34.8049 115.542 35.0568C116.003 35.3087 116.364 35.6484 116.626 36.076C116.888 36.5036 117.019 36.9792 117.019 37.5028C117.019 37.8774 116.951 38.2436 116.815 38.6016C116.683 38.9562 116.451 39.3523 116.119 39.7898C115.791 40.224 115.335 40.7543 114.752 41.3807L112.465 43.8267V43.9062H117.198V45H110.775ZM125.456 45.179C124.972 45.179 124.533 45.0878 124.138 44.9055C123.744 44.7199 123.431 44.4531 123.199 44.1051C122.967 43.7538 122.851 43.3295 122.851 42.8324C122.851 42.3949 122.937 42.0402 123.109 41.7685C123.282 41.4934 123.512 41.2779 123.8 41.1222C124.089 40.9664 124.407 40.8504 124.755 40.7741C125.106 40.6946 125.459 40.6316 125.814 40.5852C126.278 40.5256 126.654 40.4808 126.942 40.451C127.234 40.4179 127.446 40.3632 127.579 40.2869C127.715 40.2107 127.782 40.0781 127.782 39.8892V39.8494C127.782 39.3589 127.648 38.9777 127.38 38.706C127.115 38.4342 126.712 38.2983 126.172 38.2983C125.612 38.2983 125.172 38.4209 124.854 38.6662C124.536 38.9115 124.312 39.1733 124.183 39.4517L123.069 39.054C123.268 38.59 123.533 38.2287 123.865 37.9702C124.2 37.7083 124.564 37.526 124.959 37.4233C125.356 37.3172 125.747 37.2642 126.132 37.2642C126.377 37.2642 126.659 37.294 126.977 37.3537C127.299 37.41 127.608 37.5277 127.907 37.7067C128.208 37.8857 128.459 38.1558 128.657 38.517C128.856 38.8783 128.956 39.3622 128.956 39.9688V45H127.782V43.9659H127.723C127.643 44.1316 127.511 44.3089 127.325 44.4979C127.14 44.6868 126.893 44.8475 126.584 44.9801C126.276 45.1127 125.9 45.179 125.456 45.179ZM125.635 44.125C126.099 44.125 126.49 44.0339 126.808 43.8516C127.13 43.6693 127.372 43.4339 127.534 43.1456C127.7 42.8572 127.782 42.554 127.782 42.2358V41.1619C127.733 41.2216 127.623 41.2763 127.454 41.326C127.289 41.3724 127.096 41.4138 126.878 41.4503C126.662 41.4834 126.452 41.5133 126.246 41.5398C126.044 41.563 125.88 41.5829 125.754 41.5994C125.449 41.6392 125.164 41.7038 124.899 41.7933C124.637 41.8795 124.425 42.0104 124.263 42.1861C124.104 42.3584 124.024 42.5937 124.024 42.892C124.024 43.2997 124.175 43.608 124.476 43.8168C124.781 44.0223 125.167 44.125 125.635 44.125ZM131.097 45V37.3636H134.219C135.041 37.3636 135.694 37.5492 136.178 37.9205C136.662 38.2917 136.904 38.7822 136.904 39.392C136.904 39.8561 136.767 40.2157 136.491 40.4709C136.216 40.7228 135.863 40.8935 135.433 40.983C135.714 41.0227 135.988 41.1222 136.253 41.2812C136.521 41.4403 136.743 41.6591 136.919 41.9375C137.095 42.2126 137.183 42.5507 137.183 42.9517C137.183 43.3428 137.083 43.6925 136.884 44.0007C136.685 44.3089 136.4 44.5526 136.029 44.7315C135.658 44.9105 135.214 45 134.697 45H131.097ZM132.211 43.9261H134.697C135.101 43.9261 135.418 43.83 135.646 43.6378C135.875 43.4455 135.989 43.1837 135.989 42.8523C135.989 42.4579 135.875 42.148 135.646 41.9226C135.418 41.6939 135.101 41.5795 134.697 41.5795H132.211V43.9261ZM132.211 40.5653H134.219C134.534 40.5653 134.804 40.5223 135.03 40.4361C135.255 40.3466 135.428 40.2206 135.547 40.0582C135.67 39.8925 135.731 39.697 135.731 39.4716C135.731 39.1501 135.597 38.8982 135.328 38.7159C135.06 38.5303 134.69 38.4375 134.219 38.4375H132.211V40.5653ZM143.672 37.3636V38.4574H140.132V45H138.959V37.3636H143.672ZM146.14 47.8636C145.941 47.8636 145.764 47.8471 145.608 47.8139C145.452 47.7841 145.345 47.7543 145.285 47.7244L145.583 46.6903C145.868 46.7633 146.12 46.7898 146.339 46.7699C146.558 46.75 146.752 46.6522 146.921 46.4766C147.093 46.3042 147.25 46.0241 147.393 45.6364L147.612 45.0398L144.788 37.3636H146.061L148.169 43.4489H148.248L150.356 37.3636H151.629L148.387 46.1136C148.241 46.508 148.061 46.8345 147.845 47.093C147.63 47.3549 147.38 47.5488 147.095 47.6747C146.813 47.8007 146.495 47.8636 146.14 47.8636ZM156.006 45.1591C155.29 45.1591 154.674 44.9901 154.157 44.652C153.64 44.3139 153.242 43.8482 152.964 43.255C152.685 42.6617 152.546 41.9839 152.546 41.2216C152.546 40.446 152.689 39.7616 152.974 39.1683C153.262 38.5717 153.663 38.1061 154.177 37.7713C154.694 37.4332 155.297 37.2642 155.986 37.2642C156.523 37.2642 157.007 37.3636 157.438 37.5625C157.869 37.7614 158.222 38.0398 158.497 38.3977C158.772 38.7557 158.943 39.1733 159.009 39.6506H157.836C157.746 39.3026 157.547 38.9943 157.239 38.7259C156.934 38.4541 156.523 38.3182 156.006 38.3182C155.549 38.3182 155.148 38.4375 154.803 38.6761C154.462 38.9115 154.195 39.2446 154.003 39.6754C153.814 40.103 153.719 40.6051 153.719 41.1818C153.719 41.7718 153.812 42.2855 153.998 42.723C154.187 43.1605 154.452 43.5002 154.793 43.7422C155.138 43.9841 155.542 44.1051 156.006 44.1051C156.311 44.1051 156.588 44.0521 156.836 43.946C157.085 43.84 157.296 43.6875 157.468 43.4886C157.64 43.2898 157.763 43.0511 157.836 42.7727H159.009C158.943 43.2235 158.779 43.6295 158.517 43.9908C158.258 44.3487 157.915 44.6338 157.488 44.8459C157.064 45.0547 156.57 45.1591 156.006 45.1591ZM160.123 38.4574V37.3636H166.327V38.4574H163.822V45H162.648V38.4574H160.123ZM169.889 45.179C169.405 45.179 168.966 45.0878 168.572 44.9055C168.177 44.7199 167.864 44.4531 167.632 44.1051C167.4 43.7538 167.284 43.3295 167.284 42.8324C167.284 42.3949 167.37 42.0402 167.543 41.7685C167.715 41.4934 167.945 41.2779 168.234 41.1222C168.522 40.9664 168.84 40.8504 169.188 40.7741C169.54 40.6946 169.893 40.6316 170.247 40.5852C170.711 40.5256 171.088 40.4808 171.376 40.451C171.668 40.4179 171.88 40.3632 172.012 40.2869C172.148 40.2107 172.216 40.0781 172.216 39.8892V39.8494C172.216 39.3589 172.082 38.9777 171.813 38.706C171.548 38.4342 171.146 38.2983 170.605 38.2983C170.045 38.2983 169.606 38.4209 169.288 38.6662C168.97 38.9115 168.746 39.1733 168.617 39.4517L167.503 39.054C167.702 38.59 167.967 38.2287 168.298 37.9702C168.633 37.7083 168.998 37.526 169.392 37.4233C169.79 37.3172 170.181 37.2642 170.566 37.2642C170.811 37.2642 171.093 37.294 171.411 37.3537C171.732 37.41 172.042 37.5277 172.34 37.7067C172.642 37.8857 172.892 38.1558 173.091 38.517C173.29 38.8783 173.389 39.3622 173.389 39.9688V45H172.216V43.9659H172.156C172.077 44.1316 171.944 44.3089 171.759 44.4979C171.573 44.6868 171.326 44.8475 171.018 44.9801C170.71 45.1127 170.334 45.179 169.889 45.179ZM170.068 44.125C170.532 44.125 170.923 44.0339 171.242 43.8516C171.563 43.6693 171.805 43.4339 171.968 43.1456C172.133 42.8572 172.216 42.554 172.216 42.2358V41.1619C172.166 41.2216 172.057 41.2763 171.888 41.326C171.722 41.3724 171.53 41.4138 171.311 41.4503C171.096 41.4834 170.885 41.5133 170.68 41.5398C170.478 41.563 170.314 41.5829 170.188 41.5994C169.883 41.6392 169.598 41.7038 169.333 41.7933C169.071 41.8795 168.859 42.0104 168.696 42.1861C168.537 42.3584 168.458 42.5937 168.458 42.892C168.458 43.2997 168.608 43.608 168.91 43.8168C169.215 44.0223 169.601 44.125 170.068 44.125Z" fill="#838383"/>
<path d="M31.598 82V67.4545H36.7827C37.9143 67.4545 38.8518 67.6605 39.5952 68.0724C40.3385 68.4844 40.8949 69.0478 41.2642 69.7628C41.6335 70.473 41.8182 71.2732 41.8182 72.1634C41.8182 73.0582 41.6312 73.8632 41.2571 74.5781C40.8878 75.2884 40.3291 75.8518 39.581 76.2685C38.8376 76.6804 37.9025 76.8864 36.7756 76.8864H33.2102V75.0256H36.5767C37.2917 75.0256 37.8717 74.9025 38.3168 74.6562C38.7618 74.4053 39.0885 74.0644 39.2969 73.6335C39.5052 73.2027 39.6094 72.7126 39.6094 72.1634C39.6094 71.6141 39.5052 71.1264 39.2969 70.7003C39.0885 70.2741 38.7595 69.9403 38.3097 69.6989C37.8646 69.4574 37.2775 69.3366 36.5483 69.3366H33.7926V82H31.598ZM47.2976 82.2415C46.6063 82.2415 45.9813 82.1136 45.4226 81.858C44.8639 81.5975 44.4212 81.2211 44.0945 80.7287C43.7725 80.2363 43.6115 79.6326 43.6115 78.9176C43.6115 78.3021 43.7299 77.7955 43.9666 77.3977C44.2034 77 44.523 76.6851 44.9254 76.4531C45.3279 76.2211 45.7777 76.0459 46.2749 75.9276C46.772 75.8092 47.2786 75.7192 47.7947 75.6577C48.4482 75.5819 48.9785 75.5204 49.3857 75.473C49.7929 75.4209 50.0888 75.3381 50.2734 75.2244C50.4581 75.1108 50.5504 74.9261 50.5504 74.6705V74.6207C50.5504 74.0005 50.3752 73.5199 50.0249 73.179C49.6792 72.8381 49.1631 72.6676 48.4766 72.6676C47.7616 72.6676 47.1982 72.8262 46.7862 73.1435C46.379 73.456 46.0973 73.804 45.9411 74.1875L43.9453 73.733C44.1821 73.0701 44.5277 72.535 44.9822 72.1278C45.4415 71.7159 45.9695 71.4176 46.5661 71.233C47.1626 71.0436 47.79 70.9489 48.4482 70.9489C48.8838 70.9489 49.3454 71.0009 49.8331 71.1051C50.3255 71.2045 50.7848 71.3892 51.2109 71.6591C51.6418 71.929 51.9946 72.3149 52.2692 72.8168C52.5438 73.3139 52.6811 73.9602 52.6811 74.7557V82H50.6072V80.5085H50.522C50.3847 80.7831 50.1787 81.053 49.9041 81.3182C49.6295 81.5833 49.2768 81.8035 48.8459 81.9787C48.415 82.1539 47.8989 82.2415 47.2976 82.2415ZM47.7592 80.5369C48.3464 80.5369 48.8482 80.4209 49.2649 80.1889C49.6863 79.9569 50.0059 79.6539 50.2237 79.2798C50.4463 78.901 50.5575 78.4962 50.5575 78.0653V76.6591C50.4818 76.7348 50.335 76.8059 50.1172 76.8722C49.9041 76.9337 49.6603 76.9882 49.3857 77.0355C49.111 77.0781 48.8435 77.1184 48.5831 77.1562C48.3227 77.1894 48.1049 77.2178 47.9297 77.2415C47.5178 77.2936 47.1413 77.3812 46.8004 77.5043C46.4643 77.6274 46.1944 77.8049 45.9908 78.0369C45.7919 78.2642 45.6925 78.5672 45.6925 78.946C45.6925 79.4716 45.8866 79.8693 46.2749 80.1392C46.6631 80.4044 47.1579 80.5369 47.7592 80.5369ZM60.1048 82.2202C59.0489 82.2202 58.1398 81.9811 57.3775 81.5028C56.6199 81.0199 56.0375 80.3546 55.6303 79.5071C55.2231 78.6596 55.0195 77.6889 55.0195 76.5952C55.0195 75.4872 55.2279 74.5095 55.6445 73.6619C56.0612 72.8097 56.6483 72.1444 57.4059 71.6662C58.1635 71.188 59.056 70.9489 60.0835 70.9489C60.9121 70.9489 61.6507 71.1027 62.2994 71.4105C62.948 71.7135 63.4712 72.1397 63.869 72.6889C64.2714 73.2382 64.5105 73.8797 64.5863 74.6136H62.5195C62.4059 74.1023 62.1455 73.6619 61.7383 73.2926C61.3358 72.9233 60.796 72.7386 60.119 72.7386C59.5271 72.7386 59.0086 72.8949 58.5636 73.2074C58.1232 73.5152 57.7799 73.9555 57.5337 74.5284C57.2875 75.0966 57.1644 75.7689 57.1644 76.5455C57.1644 77.3409 57.2852 78.0275 57.5266 78.6051C57.7681 79.1828 58.109 79.6302 58.5494 79.9474C58.9944 80.2647 59.5176 80.4233 60.119 80.4233C60.5214 80.4233 60.886 80.3499 61.2127 80.2031C61.5442 80.0516 61.8211 79.8362 62.0437 79.5568C62.271 79.2775 62.4296 78.9413 62.5195 78.5483H64.5863C64.5105 79.2538 64.2809 79.8835 63.8974 80.4375C63.5138 80.9915 63.0001 81.4271 62.3562 81.7443C61.717 82.0616 60.9665 82.2202 60.1048 82.2202ZM66.8572 82V71.0909H75.7564V82H73.6754V72.9233H68.924V82H66.8572ZM80.6765 79.0241L85.4847 71.0909H87.7717V82H85.6907V74.0597L80.9038 82H78.5955V71.0909H80.6765V79.0241ZM95.2219 82.2202C94.1661 82.2202 93.257 81.9811 92.4947 81.5028C91.7371 81.0199 91.1547 80.3546 90.7475 79.5071C90.3403 78.6596 90.1367 77.6889 90.1367 76.5952C90.1367 75.4872 90.3451 74.5095 90.7617 73.6619C91.1784 72.8097 91.7655 72.1444 92.5231 71.6662C93.2807 71.188 94.1732 70.9489 95.2006 70.9489C96.0292 70.9489 96.7679 71.1027 97.4165 71.4105C98.0652 71.7135 98.5884 72.1397 98.9862 72.6889C99.3886 73.2382 99.6277 73.8797 99.7035 74.6136H97.6367C97.5231 74.1023 97.2627 73.6619 96.8555 73.2926C96.453 72.9233 95.9132 72.7386 95.2362 72.7386C94.6443 72.7386 94.1258 72.8949 93.6808 73.2074C93.2404 73.5152 92.8971 73.9555 92.6509 74.5284C92.4047 75.0966 92.2816 75.7689 92.2816 76.5455C92.2816 77.3409 92.4023 78.0275 92.6438 78.6051C92.8853 79.1828 93.2262 79.6302 93.6665 79.9474C94.1116 80.2647 94.6348 80.4233 95.2362 80.4233C95.6386 80.4233 96.0032 80.3499 96.3299 80.2031C96.6613 80.0516 96.9383 79.8362 97.1609 79.5568C97.3881 79.2775 97.5468 78.9413 97.6367 78.5483H99.7035C99.6277 79.2538 99.3981 79.8835 99.0146 80.4375C98.631 80.9915 98.1173 81.4271 97.4734 81.7443C96.8342 82.0616 96.0837 82.2202 95.2219 82.2202ZM105.149 82.2415C104.458 82.2415 103.833 82.1136 103.274 81.858C102.715 81.5975 102.273 81.2211 101.946 80.7287C101.624 80.2363 101.463 79.6326 101.463 78.9176C101.463 78.3021 101.581 77.7955 101.818 77.3977C102.055 77 102.375 76.6851 102.777 76.4531C103.179 76.2211 103.629 76.0459 104.126 75.9276C104.624 75.8092 105.13 75.7192 105.646 75.6577C106.3 75.5819 106.83 75.5204 107.237 75.473C107.644 75.4209 107.94 75.3381 108.125 75.2244C108.31 75.1108 108.402 74.9261 108.402 74.6705V74.6207C108.402 74.0005 108.227 73.5199 107.876 73.179C107.531 72.8381 107.015 72.6676 106.328 72.6676C105.613 72.6676 105.05 72.8262 104.638 73.1435C104.231 73.456 103.949 73.804 103.793 74.1875L101.797 73.733C102.034 73.0701 102.379 72.535 102.834 72.1278C103.293 71.7159 103.821 71.4176 104.418 71.233C105.014 71.0436 105.642 70.9489 106.3 70.9489C106.735 70.9489 107.197 71.0009 107.685 71.1051C108.177 71.2045 108.636 71.3892 109.062 71.6591C109.493 71.929 109.846 72.3149 110.121 72.8168C110.395 73.3139 110.533 73.9602 110.533 74.7557V82H108.459V80.5085H108.374C108.236 80.7831 108.03 81.053 107.756 81.3182C107.481 81.5833 107.128 81.8035 106.697 81.9787C106.267 82.1539 105.75 82.2415 105.149 82.2415ZM105.611 80.5369C106.198 80.5369 106.7 80.4209 107.116 80.1889C107.538 79.9569 107.857 79.6539 108.075 79.2798C108.298 78.901 108.409 78.4962 108.409 78.0653V76.6591C108.333 76.7348 108.187 76.8059 107.969 76.8722C107.756 76.9337 107.512 76.9882 107.237 77.0355C106.963 77.0781 106.695 77.1184 106.435 77.1562C106.174 77.1894 105.956 77.2178 105.781 77.2415C105.369 77.2936 104.993 77.3812 104.652 77.5043C104.316 77.6274 104.046 77.8049 103.842 78.0369C103.643 78.2642 103.544 78.5672 103.544 78.946C103.544 79.4716 103.738 79.8693 104.126 80.1392C104.515 80.4044 105.009 80.5369 105.611 80.5369ZM120.755 75.6293V77.4688H114.846V75.6293H120.755ZM115.442 71.0909V82H113.361V71.0909H115.442ZM122.239 71.0909V82H120.165V71.0909H122.239ZM127.161 79.0241L131.969 71.0909H134.256V82H132.175V74.0597L127.388 82H125.08V71.0909H127.161V79.0241ZM141.813 82.2202C140.738 82.2202 139.812 81.9905 139.036 81.5312C138.264 81.0672 137.667 80.4162 137.246 79.5781C136.829 78.7353 136.621 77.7481 136.621 76.6165C136.621 75.4991 136.829 74.5142 137.246 73.6619C137.667 72.8097 138.255 72.1444 139.007 71.6662C139.765 71.188 140.65 70.9489 141.664 70.9489C142.279 70.9489 142.876 71.0507 143.453 71.2543C144.031 71.4579 144.55 71.7775 145.009 72.2131C145.468 72.6487 145.83 73.2145 146.096 73.9105C146.361 74.6018 146.493 75.4422 146.493 76.4318V77.1847H137.821V75.5938H144.412C144.412 75.035 144.299 74.5402 144.071 74.1094C143.844 73.6738 143.525 73.3305 143.113 73.0795C142.705 72.8286 142.227 72.7031 141.678 72.7031C141.081 72.7031 140.56 72.8499 140.115 73.1435C139.675 73.4323 139.334 73.8111 139.093 74.2798C138.856 74.7438 138.738 75.2481 138.738 75.7926V77.0355C138.738 77.7647 138.865 78.3849 139.121 78.8963C139.382 79.4077 139.744 79.7983 140.208 80.0682C140.672 80.3333 141.214 80.4659 141.834 80.4659C142.237 80.4659 142.604 80.4091 142.935 80.2955C143.266 80.1771 143.553 80.0019 143.794 79.7699C144.036 79.5379 144.221 79.2514 144.348 78.9105L146.358 79.2727C146.197 79.8646 145.908 80.383 145.492 80.8281C145.08 81.2685 144.561 81.6117 143.936 81.858C143.316 82.0994 142.608 82.2202 141.813 82.2202ZM30.7812 105.116H32.9545C32.983 105.562 33.1842 105.905 33.5582 106.146C33.937 106.388 34.4271 106.509 35.0284 106.509C35.6392 106.509 36.16 106.378 36.5909 106.118C37.0218 105.853 37.2372 105.443 37.2372 104.889C37.2372 104.558 37.1544 104.269 36.9886 104.023C36.8277 103.772 36.598 103.578 36.2997 103.44C36.0062 103.303 35.6581 103.234 35.2557 103.234H33.4801V101.565H35.2557C35.857 101.565 36.3068 101.428 36.6051 101.153C36.9034 100.879 37.0526 100.536 37.0526 100.124C37.0526 99.6785 36.8916 99.321 36.5696 99.0511C36.2524 98.7765 35.8097 98.6392 35.2415 98.6392C34.6638 98.6392 34.1832 98.7694 33.7997 99.0298C33.4162 99.2855 33.215 99.617 33.196 100.024H31.0511C31.0653 99.4134 31.25 98.8783 31.6051 98.419C31.965 97.955 32.4479 97.5952 33.054 97.3395C33.6648 97.0791 34.3584 96.9489 35.1349 96.9489C35.9446 96.9489 36.6454 97.0791 37.2372 97.3395C37.8291 97.5999 38.286 97.9598 38.608 98.419C38.9347 98.8783 39.098 99.4062 39.098 100.003C39.098 100.604 38.9181 101.097 38.5582 101.48C38.2031 101.859 37.7391 102.131 37.1662 102.297V102.411C37.5876 102.439 37.9616 102.567 38.2884 102.794C38.6151 103.021 38.8707 103.322 39.0554 103.696C39.2401 104.07 39.3324 104.494 39.3324 104.967C39.3324 105.635 39.1477 106.213 38.7784 106.7C38.4138 107.188 37.9072 107.564 37.2585 107.83C36.6146 108.09 35.8783 108.22 35.0497 108.22C34.2448 108.22 33.5227 108.095 32.8835 107.844C32.2491 107.588 31.7448 107.228 31.3707 106.764C31.0014 106.3 30.8049 105.751 30.7812 105.116ZM44.6999 108.241C44.0086 108.241 43.3836 108.114 42.8249 107.858C42.2662 107.598 41.8235 107.221 41.4968 106.729C41.1748 106.236 41.0138 105.633 41.0138 104.918C41.0138 104.302 41.1322 103.795 41.369 103.398C41.6057 103 41.9253 102.685 42.3278 102.453C42.7302 102.221 43.18 102.046 43.6772 101.928C44.1744 101.809 44.681 101.719 45.1971 101.658C45.8505 101.582 46.3808 101.52 46.788 101.473C47.1952 101.421 47.4911 101.338 47.6758 101.224C47.8604 101.111 47.9528 100.926 47.9528 100.67V100.621C47.9528 100 47.7776 99.5199 47.4272 99.179C47.0816 98.8381 46.5655 98.6676 45.8789 98.6676C45.1639 98.6676 44.6005 98.8262 44.1886 99.1435C43.7814 99.456 43.4996 99.804 43.3434 100.188L41.3477 99.733C41.5844 99.0701 41.93 98.535 42.3846 98.1278C42.8439 97.7159 43.3718 97.4176 43.9684 97.233C44.565 97.0436 45.1924 96.9489 45.8505 96.9489C46.2861 96.9489 46.7478 97.0009 47.2354 97.1051C47.7279 97.2045 48.1871 97.3892 48.6133 97.6591C49.0442 97.929 49.3969 98.3149 49.6715 98.8168C49.9461 99.3139 50.0835 99.9602 50.0835 100.756V108H48.0096V106.509H47.9244C47.7871 106.783 47.5811 107.053 47.3065 107.318C47.0318 107.583 46.6791 107.804 46.2482 107.979C45.8174 108.154 45.3013 108.241 44.6999 108.241ZM45.1616 106.537C45.7487 106.537 46.2506 106.421 46.6673 106.189C47.0887 105.957 47.4083 105.654 47.6261 105.28C47.8486 104.901 47.9599 104.496 47.9599 104.065V102.659C47.8841 102.735 47.7373 102.806 47.5195 102.872C47.3065 102.934 47.0626 102.988 46.788 103.036C46.5134 103.078 46.2459 103.118 45.9854 103.156C45.725 103.189 45.5072 103.218 45.332 103.241C44.9201 103.294 44.5437 103.381 44.2028 103.504C43.8666 103.627 43.5967 103.805 43.3931 104.037C43.1942 104.264 43.0948 104.567 43.0948 104.946C43.0948 105.472 43.2889 105.869 43.6772 106.139C44.0655 106.404 44.5603 106.537 45.1616 106.537ZM60.3054 101.629V103.469H54.3963V101.629H60.3054ZM54.9929 97.0909V108H52.9119V97.0909H54.9929ZM61.7898 97.0909V108H59.7159V97.0909H61.7898ZM71.1364 108V98.902H68.5227C67.9025 98.902 67.4195 99.0464 67.0739 99.3352C66.7282 99.6241 66.5554 100.003 66.5554 100.472C66.5554 100.936 66.714 101.31 67.0312 101.594C67.3532 101.873 67.803 102.013 68.3807 102.013H71.7543V103.732H68.3807C67.5758 103.732 66.8797 103.599 66.2926 103.334C65.7102 103.064 65.2604 102.683 64.9432 102.19C64.6307 101.698 64.4744 101.116 64.4744 100.443C64.4744 99.7566 64.6354 99.1648 64.9574 98.6676C65.2841 98.1657 65.7505 97.7775 66.3565 97.5028C66.9673 97.2282 67.6894 97.0909 68.5227 97.0909H73.1321V108H71.1364ZM63.9773 108L67.0526 102.489H69.2259L66.1506 108H63.9773ZM74.6058 98.9233V97.0909H83.8104V98.9233H80.2521V108H78.1783V98.9233H74.6058ZM88.1374 105.024L92.9457 97.0909H95.2326V108H93.1516V100.06L88.3647 108H86.0565V97.0909H88.1374V105.024ZM100.169 105.024L104.977 97.0909H107.264V108H105.183V100.06L100.396 108H98.0877V97.0909H100.169V105.024ZM104.068 93.3977H105.815C105.815 94.1979 105.531 94.849 104.963 95.3509C104.399 95.848 103.637 96.0966 102.676 96.0966C101.719 96.0966 100.959 95.848 100.396 95.3509C99.8325 94.849 99.5508 94.1979 99.5508 93.3977H101.291C101.291 93.7528 101.395 94.0677 101.603 94.3423C101.812 94.6122 102.169 94.7472 102.676 94.7472C103.173 94.7472 103.528 94.6122 103.741 94.3423C103.959 94.0724 104.068 93.7576 104.068 93.3977Z" fill="#181818"/>
<rect x="31" y="143" width="162" height="42" rx="9" stroke="#A6C81E" stroke-width="2"/>
<path d="M82.0208 158.818V169H80.1912V160.349H75.7367V169H73.9071V158.818H82.0208ZM87.4783 169.149C86.7326 169.149 86.0863 168.985 85.5394 168.657C84.9925 168.329 84.5683 167.87 84.2667 167.28C83.9684 166.69 83.8192 166 83.8192 165.212C83.8192 164.423 83.9684 163.732 84.2667 163.138C84.5683 162.545 84.9925 162.085 85.5394 161.756C86.0863 161.428 86.7326 161.264 87.4783 161.264C88.2241 161.264 88.8704 161.428 89.4173 161.756C89.9641 162.085 90.3867 162.545 90.685 163.138C90.9866 163.732 91.1374 164.423 91.1374 165.212C91.1374 166 90.9866 166.69 90.685 167.28C90.3867 167.87 89.9641 168.329 89.4173 168.657C88.8704 168.985 88.2241 169.149 87.4783 169.149ZM87.4883 167.707C87.8926 167.707 88.2307 167.596 88.5025 167.374C88.7743 167.149 88.9764 166.847 89.109 166.469C89.2449 166.092 89.3129 165.671 89.3129 165.207C89.3129 164.739 89.2449 164.317 89.109 163.939C88.9764 163.558 88.7743 163.254 88.5025 163.029C88.2307 162.804 87.8926 162.691 87.4883 162.691C87.074 162.691 86.7293 162.804 86.4542 163.029C86.1824 163.254 85.9786 163.558 85.8427 163.939C85.7101 164.317 85.6438 164.739 85.6438 165.207C85.6438 165.671 85.7101 166.092 85.8427 166.469C85.9786 166.847 86.1824 167.149 86.4542 167.374C86.7293 167.596 87.074 167.707 87.4883 167.707ZM91.9888 171.217V167.518H92.5953C92.7578 167.393 92.8936 167.222 93.003 167.006C93.1124 166.788 93.2019 166.531 93.2715 166.236C93.3444 165.937 93.4041 165.604 93.4505 165.237C93.4969 164.865 93.5383 164.466 93.5748 164.038L93.7935 161.364H99.312V167.518H100.495V171.217H98.7551V169H93.7587V171.217H91.9888ZM94.4448 167.518H97.5918V162.815H95.3546L95.2353 164.038C95.169 164.847 95.0811 165.54 94.9718 166.116C94.8624 166.693 94.6867 167.161 94.4448 167.518ZM101.839 171.864V161.364H103.609V162.626H103.713C103.806 162.441 103.937 162.244 104.106 162.035C104.275 161.823 104.504 161.642 104.792 161.493C105.08 161.34 105.448 161.264 105.896 161.264C106.486 161.264 107.018 161.415 107.491 161.717C107.969 162.015 108.347 162.457 108.625 163.044C108.907 163.627 109.048 164.343 109.048 165.192C109.048 166.03 108.91 166.743 108.635 167.33C108.36 167.916 107.985 168.364 107.511 168.672C107.037 168.98 106.5 169.134 105.901 169.134C105.463 169.134 105.1 169.061 104.812 168.915C104.523 168.77 104.291 168.594 104.116 168.388C103.943 168.18 103.809 167.982 103.713 167.797H103.638V171.864H101.839ZM103.604 165.182C103.604 165.676 103.673 166.108 103.812 166.479C103.955 166.851 104.159 167.141 104.424 167.349C104.692 167.555 105.017 167.658 105.398 167.658C105.796 167.658 106.129 167.552 106.398 167.339C106.666 167.124 106.868 166.831 107.004 166.46C107.143 166.085 107.213 165.659 107.213 165.182C107.213 164.708 107.145 164.287 107.009 163.919C106.873 163.551 106.671 163.263 106.403 163.054C106.134 162.845 105.799 162.741 105.398 162.741C105.014 162.741 104.688 162.842 104.419 163.044C104.151 163.246 103.947 163.53 103.808 163.894C103.672 164.259 103.604 164.688 103.604 165.182ZM113.92 169.149C113.174 169.149 112.528 168.985 111.981 168.657C111.434 168.329 111.01 167.87 110.708 167.28C110.41 166.69 110.261 166 110.261 165.212C110.261 164.423 110.41 163.732 110.708 163.138C111.01 162.545 111.434 162.085 111.981 161.756C112.528 161.428 113.174 161.264 113.92 161.264C114.665 161.264 115.312 161.428 115.859 161.756C116.406 162.085 116.828 162.545 117.126 163.138C117.428 163.732 117.579 164.423 117.579 165.212C117.579 166 117.428 166.69 117.126 167.28C116.828 167.87 116.406 168.329 115.859 168.657C115.312 168.985 114.665 169.149 113.92 169.149ZM113.93 167.707C114.334 167.707 114.672 167.596 114.944 167.374C115.216 167.149 115.418 166.847 115.55 166.469C115.686 166.092 115.754 165.671 115.754 165.207C115.754 164.739 115.686 164.317 115.55 163.939C115.418 163.558 115.216 163.254 114.944 163.029C114.672 162.804 114.334 162.691 113.93 162.691C113.515 162.691 113.171 162.804 112.896 163.029C112.624 163.254 112.42 163.558 112.284 163.939C112.152 164.317 112.085 164.739 112.085 165.207C112.085 165.671 112.152 166.092 112.284 166.469C112.42 166.847 112.624 167.149 112.896 167.374C113.171 167.596 113.515 167.707 113.93 167.707ZM125.226 158.54L125.853 159.703C125.631 159.895 125.382 160.035 125.107 160.121C124.832 160.207 124.509 160.263 124.138 160.29C123.77 160.313 123.332 160.33 122.825 160.339C122.255 160.353 121.789 160.46 121.428 160.663C121.067 160.865 120.79 161.171 120.598 161.582C120.406 161.99 120.28 162.51 120.22 163.143H120.305C120.543 162.676 120.878 162.32 121.309 162.075C121.74 161.829 122.245 161.707 122.825 161.707C123.458 161.707 124.017 161.849 124.501 162.134C124.988 162.416 125.367 162.825 125.639 163.362C125.914 163.899 126.052 164.549 126.052 165.311C126.052 166.097 125.904 166.778 125.609 167.354C125.314 167.928 124.895 168.37 124.351 168.682C123.811 168.993 123.17 169.149 122.427 169.149C121.688 169.149 121.045 168.988 120.498 168.667C119.955 168.342 119.534 167.863 119.236 167.23C118.941 166.594 118.793 165.81 118.793 164.879V164.192C118.793 162.396 119.128 161.055 119.797 160.17C120.467 159.286 121.46 158.835 122.775 158.818C123.166 158.812 123.516 158.81 123.824 158.813C124.136 158.817 124.408 158.802 124.64 158.768C124.872 158.735 125.067 158.659 125.226 158.54ZM122.437 167.707C122.805 167.707 123.123 167.613 123.392 167.424C123.66 167.232 123.866 166.96 124.008 166.609C124.154 166.257 124.227 165.841 124.227 165.361C124.227 164.887 124.154 164.484 124.008 164.153C123.863 163.818 123.655 163.563 123.387 163.387C123.118 163.211 122.799 163.124 122.427 163.124C122.149 163.124 121.899 163.173 121.677 163.273C121.455 163.372 121.266 163.518 121.11 163.71C120.954 163.902 120.835 164.136 120.752 164.411C120.669 164.686 120.624 165.003 120.618 165.361C120.618 166.08 120.78 166.652 121.105 167.076C121.43 167.497 121.874 167.707 122.437 167.707ZM132.828 164.436V165.913H128.761V164.436H132.828ZM129.318 161.364V169H127.583V161.364H129.318ZM134.006 161.364V169H132.276V161.364H134.006ZM139.208 169.149C138.442 169.149 137.781 168.99 137.224 168.672C136.671 168.35 136.245 167.896 135.946 167.31C135.648 166.72 135.499 166.025 135.499 165.227C135.499 164.441 135.648 163.752 135.946 163.158C136.248 162.562 136.669 162.098 137.209 161.766C137.749 161.432 138.384 161.264 139.113 161.264C139.584 161.264 140.028 161.34 140.446 161.493C140.867 161.642 141.238 161.874 141.559 162.189C141.884 162.504 142.139 162.905 142.325 163.392C142.511 163.876 142.603 164.453 142.603 165.122V165.674H136.344V164.461H140.878C140.875 164.116 140.8 163.81 140.654 163.541C140.509 163.269 140.305 163.056 140.043 162.9C139.784 162.744 139.483 162.666 139.138 162.666C138.77 162.666 138.447 162.756 138.169 162.935C137.89 163.11 137.673 163.342 137.517 163.631C137.365 163.916 137.287 164.229 137.284 164.57V165.629C137.284 166.073 137.365 166.455 137.527 166.773C137.69 167.088 137.917 167.33 138.208 167.499C138.5 167.664 138.842 167.747 139.233 167.747C139.494 167.747 139.731 167.711 139.944 167.638C140.156 167.562 140.34 167.451 140.495 167.305C140.651 167.159 140.769 166.978 140.848 166.763L142.529 166.952C142.423 167.396 142.221 167.784 141.922 168.115C141.627 168.443 141.249 168.698 140.789 168.881C140.328 169.06 139.801 169.149 139.208 169.149ZM147.507 169.149C146.741 169.149 146.08 168.99 145.523 168.672C144.969 168.35 144.544 167.896 144.245 167.31C143.947 166.72 143.798 166.025 143.798 165.227C143.798 164.441 143.947 163.752 144.245 163.158C144.547 162.562 144.968 162.098 145.508 161.766C146.048 161.432 146.683 161.264 147.412 161.264C147.883 161.264 148.327 161.34 148.744 161.493C149.165 161.642 149.537 161.874 149.858 162.189C150.183 162.504 150.438 162.905 150.624 163.392C150.809 163.876 150.902 164.453 150.902 165.122V165.674H144.643V164.461H149.177C149.174 164.116 149.099 163.81 148.953 163.541C148.807 163.269 148.604 163.056 148.342 162.9C148.083 162.744 147.782 162.666 147.437 162.666C147.069 162.666 146.746 162.756 146.468 162.935C146.189 163.11 145.972 163.342 145.816 163.631C145.664 163.916 145.586 164.229 145.583 164.57V165.629C145.583 166.073 145.664 166.455 145.826 166.773C145.989 167.088 146.216 167.33 146.507 167.499C146.799 167.664 147.14 167.747 147.531 167.747C147.793 167.747 148.03 167.711 148.242 167.638C148.454 167.562 148.638 167.451 148.794 167.305C148.95 167.159 149.068 166.978 149.147 166.763L150.828 166.952C150.722 167.396 150.519 167.784 150.221 168.115C149.926 168.443 149.548 168.698 149.088 168.881C148.627 169.06 148.1 169.149 147.507 169.149Z" fill="#A6C81E"/>
</svg>
